<?xml version="1.0" encoding="iso-8859-1"?>
<!-- Generator: Adobe Illustrator 19.0.0, SVG Export Plug-In . SVG Version: 6.00 Build 0)  -->
<svg xmlns="http://www.w3.org/2000/svg" xmlns:xlink="http://www.w3.org/1999/xlink" version="1.1" id="Capa_1" x="0px" y="0px" viewBox="0 0 512.001 512.001" style="enable-background:new 0 0 512.001 512.001;" xml:space="preserve" width="512px" height="512px">
<g>
	<g>
		<path d="M396.179,117.105H117.2C53.127,117.105,0.166,168.549,0,232.621c-0.055,21.191,5.57,41.65,16.328,59.636    c2.253,3.766,7.253,4.803,10.854,2.294c3.293-2.293,4.207-6.733,2.15-10.179c-9.262-15.522-14.125-33.165-14.125-51.446    c0-10.266,1.549-20.177,4.42-29.515c8.918,9.202,21.353,14.691,34.516,14.691c13.638,0,25.957-5.73,34.699-14.899    c5.024,15.149,19.316,26.112,36.13,26.112h19.827c9.129,0,17.516-3.233,24.081-8.611c3.516,11.465,14.199,19.825,26.801,19.825    h39.894c8.047,0,15.308-3.414,20.424-8.863c5.117,5.45,12.377,8.863,20.425,8.863h39.894c12.601,0,23.284-8.36,26.8-19.825    c6.566,5.378,14.952,8.611,24.081,8.611h19.827c16.814,0,31.106-10.963,36.13-26.112c8.744,9.168,21.061,14.899,34.699,14.899    c13.163,0,25.597-5.489,34.515-14.69c2.87,9.338,4.42,19.248,4.42,29.515c0,34.771-17.732,65.477-44.626,83.557    c-13.568-21.584-49.526-39.181-101.398-49.371c-4.165-0.818-8.19,1.962-8.931,6.14l-0.001,0.007    c-0.725,4.087,1.969,7.982,6.04,8.789c45.634,9.04,79.763,24.856,91.056,41.943c-12.982,6.12-27.474,9.549-42.751,9.549H319.68    v-22.675c0-4.199-3.405-7.604-7.604-7.604H256h-56.072c-4.199,0-7.604,3.405-7.604,7.604v22.675h-76.503    c-15.051,0-29.579-3.279-42.788-9.493C89.895,298.352,159.07,273.615,256,273.615c20.715,0,41.001,1.175,60.415,3.497    c4.116,0.492,7.858-2.41,8.419-6.517c0.574-4.214-2.415-8.08-6.638-8.585c-20.006-2.392-40.889-3.601-62.196-3.601    c-48.499,0-95.231,6.416-131.587,18.064c-39.057,12.514-56.794,27.592-64.623,40.065c-3.6-2.424-7.062-5.095-10.362-8.001    c-3.014-2.654-7.551-2.568-10.408,0.254l-0.001,0.001c-3.118,3.08-3.017,8.179,0.269,11.079    c21.154,18.681,48.035,28.881,76.534,28.881h279.083c63.912,0,116.727-51.233,117.094-115.144    C512.367,169.43,460.269,117.105,396.179,117.105z M46.642,159.938c3.511-3.329,7.26-6.409,11.22-9.209    c0.315,0.724,0.486,1.517,0.486,2.34v8.972c0,3.227-2.626,5.853-5.853,5.853c-3.228,0-5.853-2.626-5.853-5.853V159.938z     M54.144,202.894c-11.422,0-22.028-6.061-27.94-15.677c2.486-4.854,5.359-9.478,8.571-13.837    c3.748,5.837,10.283,9.723,17.72,9.723c9.743,0,17.939-6.66,20.333-15.66l14.049,4.035    C86.165,188.921,71.758,202.894,54.144,202.894z M86.912,155.665l-13.398-3.85c-0.187-3.188-1.083-6.22-2.571-8.919    c5.094-2.55,10.432-4.679,15.969-6.343V155.665z M167.652,191.254c0.001,12.601-10.251,22.853-22.852,22.853h-19.827    c-12.601,0-22.854-10.252-22.854-22.854v-15.399l11.706,3.363v0.441c0,11.613,9.448,21.061,21.061,21.061    c10.992,0,20.032-8.47,20.968-19.224l11.799,0.614V191.254z M129.034,179.658v-8.972c0-3.227,2.626-5.853,5.853-5.853    s5.853,2.626,5.853,5.853v8.972c0,3.227-2.626,5.853-5.853,5.853S129.034,182.885,129.034,179.658z M167.654,166.882    l-12.187-0.635c-2.045-9.487-10.491-16.622-20.58-16.622c-9.177,0-16.98,5.909-19.86,14.114l-12.908-3.708v-26.782    c4.482-0.613,9.055-0.937,13.703-0.937h51.832V166.882z M248.396,212.501c0,7.071-5.751,12.821-12.82,12.821h-39.894    c-7.07,0-12.82-5.751-12.82-12.82v-21.248v-8.351l11.706,0.609v1.754c0,11.613,9.448,21.061,21.061,21.061    c10.357,0,18.97-7.52,20.718-17.383h12.05V212.501z M209.776,185.266v-8.972c0-3.227,2.626-5.853,5.853-5.853    c3.227,0,5.853,2.626,5.853,5.853v8.972c0,3.227-2.626,5.853-5.853,5.853C212.402,191.119,209.776,188.493,209.776,185.266z     M248.396,173.737h-11.877c-1.268-10.409-10.144-18.503-20.89-18.503c-8.807,0-16.36,5.44-19.499,13.133l-13.268-0.691v-35.361    h65.534V173.737z M316.319,225.322h-39.894c-7.07,0-12.821-5.751-12.821-12.82v-23.557h12.05    c1.748,9.862,10.362,17.383,20.717,17.383c11.613,0,21.061-9.448,21.061-21.061v-1.754l11.706-0.609v8.351v21.247h0.002    C329.139,219.572,323.389,225.322,316.319,225.322z M290.52,185.266v-8.972c0-3.227,2.626-5.853,5.852-5.853    c3.227,0,5.853,2.626,5.853,5.853v8.972c0,3.227-2.626,5.853-5.853,5.853S290.52,188.493,290.52,185.266z M329.139,167.674    l-13.268,0.691c-3.14-7.692-10.692-13.133-19.5-13.133c-10.746,0-19.621,8.095-20.89,18.503h-11.877v-41.423h65.535V167.674z     M409.882,191.252c0,12.603-10.252,22.855-22.854,22.855h-19.827c-12.602,0-22.854-10.252-22.854-22.854v-9.144l11.8-0.614    c0.936,10.754,9.974,19.224,20.968,19.224c11.613,0,21.061-9.448,21.061-21.061v-0.441l11.707-3.363V191.252z M371.262,179.658    v-8.972c0-3.227,2.626-5.853,5.852-5.853c3.228,0,5.853,2.626,5.853,5.853v8.972c0,3.227-2.626,5.853-5.853,5.853    C373.887,185.511,371.262,182.885,371.262,179.658z M409.882,160.032l-12.909,3.708c-2.879-8.205-10.683-14.115-19.859-14.115    c-10.089,0-18.535,7.135-20.58,16.622l-12.188,0.635v-34.57h51.832c4.649,0.001,9.222,0.325,13.704,0.938V160.032z     M454.138,150.729c3.96,2.8,7.709,5.879,11.22,9.209v2.103c0,3.227-2.626,5.853-5.852,5.853c-3.228,0-5.853-2.626-5.853-5.853    v-8.972h-0.001C453.653,152.246,453.824,151.453,454.138,150.729z M425.09,136.554c5.538,1.665,10.876,3.793,15.968,6.343    c-1.487,2.699-2.384,5.731-2.57,8.919l-13.398,3.849V136.554z M457.858,202.894c-17.616,0-32.022-13.973-32.734-31.418    l14.048-4.035c2.394,9,10.59,15.661,20.333,15.661c7.437,0,13.971-3.885,17.719-9.722c3.212,4.36,6.085,8.983,8.571,13.837    C479.886,196.834,469.28,202.894,457.858,202.894z M248.396,333.541h-40.864V318.47h40.864V333.541z M304.468,333.54h-40.864    v-15.071h40.864V333.54z" fill="#e1005c"/>
	</g>
</g>
<g>
	<g>
		<path d="M305.423,379.689h-98.845c-4.199,0-7.604,3.405-7.604,7.604c0,4.199,3.405,7.604,7.604,7.604h98.845    c4.199,0,7.604-3.405,7.604-7.604C313.027,383.093,309.623,379.689,305.423,379.689z" fill="#e1005c"/>
	</g>
</g>
<g>
</g>
<g>
</g>
<g>
</g>
<g>
</g>
<g>
</g>
<g>
</g>
<g>
</g>
<g>
</g>
<g>
</g>
<g>
</g>
<g>
</g>
<g>
</g>
<g>
</g>
<g>
</g>
<g>
</g>
</svg>
