<?xml version="1.0" encoding="iso-8859-1"?>
<!-- Generator: Adobe Illustrator 16.0.0, SVG Export Plug-In . SVG Version: 6.00 Build 0)  -->
<!DOCTYPE svg PUBLIC "-//W3C//DTD SVG 1.1//EN" "http://www.w3.org/Graphics/SVG/1.1/DTD/svg11.dtd">
<svg xmlns="http://www.w3.org/2000/svg" xmlns:xlink="http://www.w3.org/1999/xlink" version="1.1" id="Capa_1" x="0px" y="0px" width="512px" height="512px" viewBox="0 0 226.047 226.046" style="enable-background:new 0 0 226.047 226.046;" xml:space="preserve">
<g>
	<g>
		<path d="M113.029,156.178c-54.499,0-87.033,25.424-87.033,68.016c0,1.699,1.378,1.651,3.074,1.651c1.7,0,3.075,1.651,3.075-4.497    h-0.201c0.982-54.439,55.74-59.73,79.842-59.73c24.319,0,79.937,4.961,79.937,60.799v-1.068h2.18c0,6.148,1.381,4.497,3.074,4.497    c1.699,0,3.074-0.666,3.074-2.359C200.062,180.887,167.529,156.178,113.029,156.178z" fill="#e1005c"/>
		<path d="M44.167,95.986c-0.081-0.184-0.171-0.354-0.246-0.541c-0.652-1.567-2.447-2.324-4.014-1.667    c-1.567,0.646-2.312,2.447-1.667,4.018c11.613,27.985,38.386,46.071,68.208,46.071c40.82,0,74.021-33.824,74.021-75.411    c0-1.696-1.376-3.074-3.075-3.074s-3.074,1.378-3.074,3.074c0,0.216-0.03,0.427-0.03,0.643    c-0.348,37.905-30.636,68.626-67.848,68.626C79.312,137.725,54.945,121.356,44.167,95.986z" fill="#e1005c"/>
		<circle cx="73.83" cy="76.803" r="8.332" fill="#e1005c"/>
		<path d="M155.988,76.803c0-1.348-0.354-2.597-0.919-3.72c-1.375-2.727-4.161-4.612-7.416-4.612c-4.443,0-8.034,3.48-8.287,7.851    c-0.012,0.159-0.048,0.312-0.048,0.48c0,4.6,3.735,8.332,8.335,8.332S155.988,81.403,155.988,76.803z" fill="#e1005c"/>
		<path d="M128.45,95.851c1.2-1.198,1.2-3.146,0-4.347c-1.201-1.198-3.146-1.198-4.348,0c-4.647,4.65-12.211,4.65-16.861,0    c-1.198-1.198-3.147-1.198-4.345,0c-1.201,1.201-1.201,3.149,0,4.347c3.521,3.525,8.151,5.284,12.775,5.284    C120.295,101.135,124.931,99.375,128.45,95.851z" fill="#e1005c"/>
		<path d="M34.21,59.173c-1.603-0.294-3.098,2.096-3.123,3.795c-0.024,1.696,1.321-1.489,3.021,4.66c0.066,0,0.183,0,0.36,0    c4.6,0,45.939-2.618,83.38-40.098c13.928-13.94,25.433-21.059,31.576-16.846c5.818,3.984,6.274,15.384,3.741,21.119    c-0.505,1.156-2.054,4.675,0.084,7.233c2.354,2.81,6.659,1.771,11.205,0.664c1.585-0.381,4.022-0.979,5.392-1.033    c-0.12,0.474-0.372,1.204-0.883,2.282c-2.575,5.422-3.008,8.965-1.411,11.499c1.67,2.636,4.744,2.847,6.857,2.858    c0.198,0.811,0.721,1.531,1.514,1.961c1.501,0.805,3.362,0.258,4.167-1.234c0.997-1.834,1.093-3.443,0.276-4.804    c-1.183-1.987-3.44-2.072-5.188-2.072c-0.781,0-2.234-0.006-2.385,0.099c-0.006-0.015-0.366-1.288,1.724-5.659    c1.237-2.606,2.636-6.368,0.456-9.062c-2.516-3.081-7.319-1.913-11.961-0.787c-1.249,0.3-3.081,0.769-4.359,0.934    c0.042-0.111,0.096-0.181,0.144-0.304c3.489-7.899,2.931-22.542-5.896-28.58c-3.693-2.525-9.319-3.726-17.522-0.147    C97.828-9.936,54.558,7.823,38.816,45.344c-0.658,1.567,0.081,3.369,1.648,4.023c0.387,0.159,0.786,0.237,1.186,0.237    c1.201,0,2.345-0.706,2.837-1.886C58.266,14.888,95-1.37,128.252,9.601c-4.33,2.879-9.224,6.893-14.751,12.421    C76.571,58.987,34.703,59.266,34.21,59.173z" fill="#e1005c"/>
	</g>
</g>
<g>
</g>
<g>
</g>
<g>
</g>
<g>
</g>
<g>
</g>
<g>
</g>
<g>
</g>
<g>
</g>
<g>
</g>
<g>
</g>
<g>
</g>
<g>
</g>
<g>
</g>
<g>
</g>
<g>
</g>
</svg>
