<svg version="1.2" xmlns="http://www.w3.org/2000/svg" xmlns:xlink="http://www.w3.org/1999/xlink" overflow="visible" preserveAspectRatio="none" viewBox="0 0 30 23" width="30" height="23"><g transform="translate(0, 0)"><defs><path id="path-1710097679278221361" d="M15.878569600296412 3.5814608642713486 C15.678168298730201 3.3013357017250873 15.350127682369928 3.1344196166911042 14.999998272884602 3.1344196166911042 C14.649868863399274 3.1344196166911042 14.321828247038999 3.3013357017250873 14.121426945472788 3.5814608642713486 C14.121426945472788 3.5814608642713486 7.354284867505707 13.01494096911217 7.354284867505707 13.01494096911217 C7.354284867505707 13.01494096911217 1.8299997892919213 7.622887513796461 1.8299997892919213 7.622887513796461 C1.523540839402102 7.323121871695138 1.062022497427181 7.233317106880701 0.6611500268542645 7.395446330050776 C0.26027755628134785 7.55757555322085 -0.0007764080485881998 7.939618112608674 0 8.363014277341152 C0 8.363014277341152 0 21.95291247802053 0 21.95291247802053 C0 24.262295102016882 1.9187794226520558 26.134419616691105 4.285713792252743 26.134419616691105 C4.285713792252743 26.134419616691105 25.71428275351646 26.134419616691105 25.71428275351646 26.134419616691105 C28.081217123117142 26.134419616691105 29.999996545769203 24.262295102016882 29.999996545769203 21.95291247802053 C29.999996545769203 21.95291247802053 29.999996545769203 8.363014277341152 29.999996545769203 8.363014277341152 C30.000772953817783 7.939618112608674 29.73971898948785 7.55757555322085 29.338846518914934 7.395446330050776 C28.93797404834202 7.233317106880703 28.4764557063671 7.323121871695136 28.169996756477282 7.622887513796461 C28.169996756477282 7.622887513796461 22.6457116782635 13.01494096911217 22.6457116782635 13.01494096911217 C22.6457116782635 13.01494096911217 15.878569600296412 3.5814608642713486 15.878569600296412 3.5814608642713486 Z" vector-effect="non-scaling-stroke"/></defs><g transform="translate(8.059872812731578e-7, -3.1344196166911042)"><path d="M15.878569600296412 3.5814608642713486 C15.678168298730201 3.3013357017250873 15.350127682369928 3.1344196166911042 14.999998272884602 3.1344196166911042 C14.649868863399274 3.1344196166911042 14.321828247038999 3.3013357017250873 14.121426945472788 3.5814608642713486 C14.121426945472788 3.5814608642713486 7.354284867505707 13.01494096911217 7.354284867505707 13.01494096911217 C7.354284867505707 13.01494096911217 1.8299997892919213 7.622887513796461 1.8299997892919213 7.622887513796461 C1.523540839402102 7.323121871695138 1.062022497427181 7.233317106880701 0.6611500268542645 7.395446330050776 C0.26027755628134785 7.55757555322085 -0.0007764080485881998 7.939618112608674 0 8.363014277341152 C0 8.363014277341152 0 21.95291247802053 0 21.95291247802053 C0 24.262295102016882 1.9187794226520558 26.134419616691105 4.285713792252743 26.134419616691105 C4.285713792252743 26.134419616691105 25.71428275351646 26.134419616691105 25.71428275351646 26.134419616691105 C28.081217123117142 26.134419616691105 29.999996545769203 24.262295102016882 29.999996545769203 21.95291247802053 C29.999996545769203 21.95291247802053 29.999996545769203 8.363014277341152 29.999996545769203 8.363014277341152 C30.000772953817783 7.939618112608674 29.73971898948785 7.55757555322085 29.338846518914934 7.395446330050776 C28.93797404834202 7.233317106880703 28.4764557063671 7.323121871695136 28.169996756477282 7.622887513796461 C28.169996756477282 7.622887513796461 22.6457116782635 13.01494096911217 22.6457116782635 13.01494096911217 C22.6457116782635 13.01494096911217 15.878569600296412 3.5814608642713486 15.878569600296412 3.5814608642713486 Z" style="stroke-width: 0; stroke-linecap: butt; stroke-linejoin: miter; fill: rgb(230, 15, 99);" vector-effect="non-scaling-stroke"/></g></g></svg>