<svg version="1.2" xmlns="http://www.w3.org/2000/svg" xmlns:xlink="http://www.w3.org/1999/xlink" overflow="visible" preserveAspectRatio="none" viewBox="0 0 29 30.00004" width="29" height="30.00004"><g transform="translate(0, 0)"><g transform="translate(-4.884981308350689e-15, 0) rotate(0)"><path d="M7.97613,0h2.15629c0.59544,0 1.07815,0.48093 1.07815,1.07419v3.75967h-4.31259v-3.75967c0,-0.59326 0.4827,-1.07419 1.07815,-1.07419zM6.35891,6.91779c-0.59544,0 -1.07815,0.48093 -1.07815,1.07419v7.51934c-0.00004,0.59137 0.2375,1.15816 0.65963,1.5739c0.42213,0.41574 0.99371,0.64583 1.58723,0.63894l3.14603,-0.03652c1.19459,-0.01504 2.15629,-0.98396 2.15629,-2.17416v-3.10871h3.28188c1.84184,-0.00057 3.60844,0.72802 4.91103,2.02541c1.30258,1.2974 2.0344,3.05729 2.0344,4.89238v1.54684h-19.39371c-0.89317,0 -1.61722,0.7214 -1.61722,1.61129c0,0.88989 0.72405,1.61129 1.61722,1.61129h6.57885c0,0.5285 -0.23288,1.24606 -0.65551,1.94858c-0.50026,0.47909 -1.05658,0.7369 -1.61075,0.7369h-6.35891c-0.89317,0 -1.61722,0.7214 -1.61722,1.61129c0,0.88989 0.72405,1.61129 1.61722,1.61129h25.76556c0.89317,0 1.61722,-0.7214 1.61722,-1.61129v-9.00387c0,-6.88334 -5.59997,-12.46373 -12.50866,-12.46491h-4.67269c-0.02299,-0.00072 -0.04601,-0.00072 -0.069,0h-5.39074z" style="stroke-width: 0; stroke-linecap: butt; stroke-linejoin: miter; fill: rgb(230, 15, 99);" vector-effect="non-scaling-stroke"/></g><defs><path id="path-1710097679274221350" d="M7.97613,0h2.15629c0.59544,0 1.07815,0.48093 1.07815,1.07419v3.75967h-4.31259v-3.75967c0,-0.59326 0.4827,-1.07419 1.07815,-1.07419zM6.35891,6.91779c-0.59544,0 -1.07815,0.48093 -1.07815,1.07419v7.51934c-0.00004,0.59137 0.2375,1.15816 0.65963,1.5739c0.42213,0.41574 0.99371,0.64583 1.58723,0.63894l3.14603,-0.03652c1.19459,-0.01504 2.15629,-0.98396 2.15629,-2.17416v-3.10871h3.28188c1.84184,-0.00057 3.60844,0.72802 4.91103,2.02541c1.30258,1.2974 2.0344,3.05729 2.0344,4.89238v1.54684h-19.39371c-0.89317,0 -1.61722,0.7214 -1.61722,1.61129c0,0.88989 0.72405,1.61129 1.61722,1.61129h6.57885c0,0.5285 -0.23288,1.24606 -0.65551,1.94858c-0.50026,0.47909 -1.05658,0.7369 -1.61075,0.7369h-6.35891c-0.89317,0 -1.61722,0.7214 -1.61722,1.61129c0,0.88989 0.72405,1.61129 1.61722,1.61129h25.76556c0.89317,0 1.61722,-0.7214 1.61722,-1.61129v-9.00387c0,-6.88334 -5.59997,-12.46373 -12.50866,-12.46491h-4.67269c-0.02299,-0.00072 -0.04601,-0.00072 -0.069,0h-5.39074z" vector-effect="non-scaling-stroke"/></defs></g></svg>