<svg height="30" overflow="visible" viewBox="0 0 30 30" width="30" xmlns="http://www.w3.org/2000/svg"><g><defs><path id="path-1710097679267221316" d="M15.000783554030432 5.89268906014465 C15.888430410359389 5.89268906014465 16.60801036339084 6.612210902889743 16.60801036339084 7.4997860765477355 C16.60801036339084 7.4997860765477355 16.60801036339084 15.160281854735778 16.60801036339084 15.160281854735778 C16.60801036339084 15.160281854735778 21.185392316449267 17.907346354774123 21.185392316449267 17.907346354774123 C21.68386735278779 18.199896688091254 21.986856100701196 18.737552986239507 21.978907052433605 19.315445495133453 C21.970958004166004 19.893338004027406 21.653295489236484 20.422458475927684 21.146962340287203 20.70118966700565 C20.640629191337922 20.979920858083613 20.02361192950685 20.965331990510627 19.53102018734762 20.662982038899948 C19.53102018734762 20.662982038899948 14.17359748947961 17.44878800609377 14.17359748947961 17.44878800609377 C13.689675905899515 17.15832731607093 13.393588929398238 16.635336790588177 13.393556744670029 16.07097016403086 C13.393556744670029 16.07097016403086 13.393556744670029 7.4997860765477355 13.393556744670029 7.4997860765477355 C13.393556744670029 6.612210902889743 14.11313669770148 5.89268906014465 15.000783554030432 5.89268906014465 Z" vector-effect="non-scaling-stroke"/></defs> <path d="M14.99921471876371 5.893901049267129 C15.886861575092666 5.893901049267129 16.606441528124037 6.613422892012181 16.606441528124037 7.50099806567016 C16.606441528124037 7.50099806567016 16.606441528124037 15.161493843858239 16.606441528124037 15.161493843858239 C16.606441528124037 15.161493843858239 21.183823481182458 17.90855834389663 21.183823481182458 17.90855834389663 C21.682298517521076 18.20110867721371 21.98528726543441 18.73876497536196 21.97733821716679 19.31665748425587 C21.969389168899284 19.894549993149894 21.651726653969718 20.423670465050122 21.14539350502048 20.70240165612813 C20.639060356071127 20.981132847206027 20.022043094240075 20.966543979633116 19.529451352080855 20.664194028022393 C19.529451352080855 20.664194028022393 14.172028654212795 17.449999995216217 14.172028654212795 17.449999995216217 C13.688107070632782 17.159539305193334 13.392020094131453 16.636548779710665 13.39198790940327 16.072182153153335 C13.39198790940327 16.072182153153335 13.39198790940327 7.50099806567016 13.39198790940327 7.50099806567016 C13.39198790940327 6.613422892012181 14.111567862434754 5.893901049267129 14.99921471876371 5.893901049267129 Z" style="stroke-width: 0; stroke-linecap: butt; stroke-linejoin: miter; fill: rgb(230, 15, 99);" vector-effect="non-scaling-stroke"/></g><g><defs><path id="path-1710097679266221314" d="M3.2144536187208077 14.99957215309547 C3.2135919614583472 9.978127548095785 6.394792391255863 5.507611918563683 11.139508600317981 3.8625555010555783 C15.884224809380099 2.217499083547471 21.15028981353852 3.759235076906039 24.258409975946364 7.703351698625458 C24.258409975946364 7.703351698625458 22.188301845490166 9.771149859730764 22.188301845490166 9.771149859730764 C21.881327102824635 10.0773248017014 21.789144284887833 10.53830927926376 21.954772458777384 10.938975108933436 C22.12040063266694 11.33964093860311 22.511189809017615 11.601005573084434 22.94476993042913 11.60109766240841 C22.94476993042913 11.60109766240841 28.930082568487272 11.60109766240841 28.930082568487272 11.60109766240841 C29.52184713937324 11.60109766240841 30.001567108060872 11.121416433911682 30.001567108060872 10.52969965147302 C30.001567108060872 10.52969965147302 30.001567108060872 4.5427275663660565 30.001567108060872 4.5427275663660565 C30.00234355675604 4.108792342832015 29.74127592570745 3.71724008700981 29.340382468625915 3.551075188605123 C28.939489011544378 3.3849102902004367 28.47794650812318 3.4769504500795327 28.17147151446916 3.7841777746238 C28.17147151446916 3.7841777746238 26.542815014317284 5.414845547267466 26.542815014317284 5.414845547267466 C22.096020328311404 0.06203937281105232 14.551345512086893 -1.5297222801401136 8.320876384098275 1.5704143609639656 C2.0904072561096556 4.670551002068047 -1.1895425256485195 11.648394289169948 0.39912427559504216 18.423338475788128 C1.9877910768386078 25.1982826624063 8.027841483682648 29.99101812080924 14.98708605232516 29.99877857376121 C21.946330620967675 30.006539026713185 27.99705675014739 25.227286339541383 29.60083189026035 18.45590213637304 C29.799041052162533 17.594170321856577 29.263826579127105 16.73420685461646 28.403094541459033 16.531420615018554 C27.54236250379096 16.328634375420645 26.679487338343236 16.85921154355552 26.472097034705428 17.71878030484949 C25.09770475796902 23.54308675759199 19.576204002023207 27.412881616079265 13.631971203412485 26.717901217902 C7.68773840480176 26.022920819724735 3.2080057312504007 20.983814222181696 3.2144536187208077 14.99957215309547 Z" vector-effect="non-scaling-stroke"/></defs> <path d="M3.213721533838225 15.000137764152214 C3.212859876575749 9.978693159152613 6.394060306373262 5.508177529620525 11.138776515435438 3.863121112112367 C15.8834927244975 2.2180646946043225 21.149557728655964 3.7598006879628656 24.257677891063736 7.703917309682311 C24.257677891063736 7.703917309682311 22.187569760607516 9.771715470787512 22.187569760607516 9.771715470787512 C21.880595017942028 10.077890412758165 21.78841220000527 10.538874890320585 21.954040373894827 10.939540719990191 C22.119668547784386 11.34020654965991 22.510457724134994 11.601571184141221 22.944037845546518 11.601663273465192 C22.944037845546518 11.601663273465192 28.929350483604708 11.601663273465192 28.929350483604708 11.601663273465192 C29.52111505449068 11.601663273465192 30.000835023178297 11.12198204496849 30.000835023178297 10.530265262529838 C30.000835023178297 10.530265262529838 30.000835023178297 4.543293177422811 30.000835023178297 4.543293177422811 C30.00161147187339 4.109357953888775 29.7405438408249 3.717805698066627 29.339650383743333 3.551640799661868 C28.938756926661767 3.385475901257223 28.477214423240525 3.4775160611363845 28.170739429586547 3.784743385680599 C28.170739429586547 3.784743385680599 26.542082929434628 5.415411158324218 26.542082929434628 5.415411158324218 C22.095288243428854 0.0626049838678 14.550613427204325 -1.5291566690833633 8.320144299215656 1.570979972020723 C2.089675171227043 4.671116613124809 -1.1902746105311053 11.648959900226714 0.3983921907124568 18.423904086844914 C1.9870589919560189 25.198848273463113 8.027109398800064 29.991583731866058 14.986353967442597 29.99934418481803 C21.945598536085072 30.00710463777 27.99632466526475 25.227851950598165 29.600099805377795 18.456467747429883 C29.798308967279922 17.59473593291341 29.263094494244456 16.734772465673245 28.402362456576384 16.531986226075333 C27.541630418908312 16.32919998647742 26.678755253460622 16.85977715461229 26.471364949822828 17.719345915906274 C25.096972673086384 23.543652368648736 19.57547191714059 27.41344722713609 13.631239118529834 26.718466828958753 C7.687006319919135 26.02348643078153 3.2072736463678098 20.98437983323845 3.213721533838225 15.000137764152214 Z" style="stroke-width: 0; stroke-linecap: butt; stroke-linejoin: miter; fill: rgb(230, 15, 99);" vector-effect="non-scaling-stroke"/></g></svg>