<svg version="1.2" xmlns="http://www.w3.org/2000/svg" xmlns:xlink="http://www.w3.org/1999/xlink" overflow="visible" preserveAspectRatio="none" viewBox="0 0 30.000009999999996 29.999989999999997" width="30.000009999999996" height="29.999989999999997"><g transform="translate(0, 0)"><g transform="translate(0, 0) rotate(0)"><path d="M0,3.21406c0,-1.76344 1.45714,-3.21406 3.21429,-3.21406h23.57143c1.75714,0 3.21429,1.45275 3.21429,3.21406v6.11313c0,8.86222 -5.37857,17.15448 -13.73786,20.41568c-0.40567,0.16553 -0.83902,0.25278 -1.27714,0.25712c-0.42799,-0.00833 -0.85077,-0.09549 -1.24714,-0.25712c-8.35929,-3.26119 -13.73786,-11.55346 -13.73786,-20.41568zM22.62857,9.65931c0.409,-0.42448 0.55277,-1.0388 0.37461,-1.60068c-0.17816,-0.56188 -0.64965,-0.98114 -1.22853,-1.09244c-0.57888,-0.1113 -1.17224,0.10323 -1.54608,0.55898l-7.59,8.53653l-3.10286,-2.32698c-0.71008,-0.53252 -1.71744,-0.38862 -2.25,0.32141c-0.53256,0.71003 -0.38865,1.71732 0.32143,2.24984l4.28571,3.21406c0.66861,0.50059 1.60927,0.4056 2.16429,-0.21856z" style="stroke-width: 0; stroke-linecap: butt; stroke-linejoin: miter; fill: rgb(230, 15, 99);" vector-effect="non-scaling-stroke"/></g><defs><path id="path-1710097679274221346" d="M0,3.21406c0,-1.76344 1.45714,-3.21406 3.21429,-3.21406h23.57143c1.75714,0 3.21429,1.45275 3.21429,3.21406v6.11313c0,8.86222 -5.37857,17.15448 -13.73786,20.41568c-0.40567,0.16553 -0.83902,0.25278 -1.27714,0.25712c-0.42799,-0.00833 -0.85077,-0.09549 -1.24714,-0.25712c-8.35929,-3.26119 -13.73786,-11.55346 -13.73786,-20.41568zM22.62857,9.65931c0.409,-0.42448 0.55277,-1.0388 0.37461,-1.60068c-0.17816,-0.56188 -0.64965,-0.98114 -1.22853,-1.09244c-0.57888,-0.1113 -1.17224,0.10323 -1.54608,0.55898l-7.59,8.53653l-3.10286,-2.32698c-0.71008,-0.53252 -1.71744,-0.38862 -2.25,0.32141c-0.53256,0.71003 -0.38865,1.71732 0.32143,2.24984l4.28571,3.21406c0.66861,0.50059 1.60927,0.4056 2.16429,-0.21856z" vector-effect="non-scaling-stroke"/></defs></g></svg>