<svg height="26" overflow="visible" viewBox="0 0 26 26" width="26" xmlns="http://www.w3.org/2000/svg"><g><defs><path id="path-1707677733295399275" d="M13.003250000000003 0 C13.003250000000003 0 12.996750000000011 0 12.996750000000011 0 C5.828875000000002 0 0 5.8305000000000025 0 13.000000000000005 C0 15.843750000000005 0.9165000000000004 18.47950000000001 2.474875 20.619625000000003 C2.474875 20.619625000000003 0.8547500000000002 25.449125 0.8547500000000002 25.449125 C0.8547500000000002 25.449125 5.851625000000001 23.851750000000013 5.851625000000001 23.851750000000013 C7.9072499999999994 25.213500000000003 10.359374999999998 26.00000000000001 13.003250000000003 26.00000000000001 C20.171125000000007 26.00000000000001 26.00000000000001 20.167875 26.00000000000001 13.000000000000005 C26.00000000000001 5.832125000000003 20.171125000000007 0 13.003250000000003 0 Z" vector-effect="non-scaling-stroke"/></defs> <path style="stroke-width: 0px; stroke-linecap: butt; stroke-linejoin: miter; fill: rgb(76, 175, 80);" d="M13.00324999999998 0 C13.00324999999998 0 12.99675000000002 0 12.99675000000002 0 C5.828875000000039 0 0 5.830500000000001 0 13 C0 15.84375 0.9165000000000418 18.4795 2.4748749999999973 20.619625 C2.4748749999999973 20.619625 0.8547499999999673 25.449124999999995 0.8547499999999673 25.449124999999995 C0.8547499999999673 25.449124999999995 5.851625000000013 23.85175000000001 5.851625000000013 23.85175000000001 C7.907249999999976 25.21350000000001 10.359375 26.000000000000014 13.00324999999998 26.000000000000014 C20.17112499999996 26.000000000000014 26 20.167874999999995 26 13 C26 5.832125000000005 20.17112499999996 0 13.00324999999998 0 Z" vector-effect="non-scaling-stroke"/></g><g><defs><path id="path-1707677733295399273" d="M20.567625000000035 18.357625000000006 C20.25400000000004 19.24325 19.009250000000044 19.97775000000001 18.01637500000003 20.192250000000012 C17.337125000000032 20.33687500000001 16.449875000000027 20.45225000000001 13.463125000000028 19.214 C9.642750000000019 17.631250000000005 7.182500000000012 13.749125000000012 6.990750000000009 13.497250000000003 C6.807125000000007 13.245375000000008 5.447000000000006 11.441625000000005 5.447000000000006 9.576125000000003 C5.447000000000006 7.710625000000004 6.394375000000013 6.802250000000004 6.776250000000011 6.412250000000002 C7.089875000000009 6.092125000000004 7.60825000000001 5.945875000000004 8.105500000000008 5.945875000000004 C8.26637500000001 5.945875000000004 8.411000000000012 5.9540000000000015 8.541000000000011 5.960500000000004 C8.922875000000012 5.976750000000001 9.114625000000013 5.999500000000004 9.366500000000011 6.602375000000002 C9.680125000000013 7.358000000000002 10.443875000000018 9.223500000000001 10.534875000000019 9.415250000000002 C10.627500000000017 9.607000000000001 10.720125000000023 9.867 10.59012500000001 10.118875000000003 C10.468250000000012 10.378875000000003 10.36100000000002 10.494250000000003 10.169250000000012 10.715250000000005 C9.97750000000001 10.936250000000005 9.795500000000015 11.105250000000003 9.603750000000014 11.342500000000001 C9.428250000000018 11.548875 9.230000000000013 11.769875000000004 9.451000000000011 12.151750000000002 C9.672000000000013 12.525500000000003 10.435750000000018 13.771875000000005 11.560250000000012 14.772875000000015 C13.011375000000013 16.06475 14.187875000000016 16.477500000000006 14.608750000000024 16.653000000000006 C14.922375000000022 16.783000000000005 15.296125000000023 16.752125000000007 15.525250000000023 16.508375 C15.81612500000003 16.194750000000013 16.175250000000027 15.67475000000001 16.540875000000018 15.162874999999998 C16.800875000000016 14.795625000000001 17.129125000000027 14.75012500000001 17.47362500000003 14.880125 C17.824625000000026 15.002 19.682000000000038 15.920125000000002 20.063875000000028 16.110250000000008 C20.445750000000025 16.302000000000007 20.697625000000034 16.393 20.79025000000003 16.55387500000001 C20.881250000000023 16.71475000000001 20.88125000000003 17.470375000000004 20.567625000000035 18.357625000000006 Z" vector-effect="non-scaling-stroke"/></defs> <path style="stroke-width: 0px; stroke-linecap: butt; stroke-linejoin: miter; fill: rgb(250, 250, 250);" d="M20.567625000000135 18.35762500000004 C20.254000000000133 19.24325000000003 19.00925000000018 19.977750000000043 18.016375000000153 20.192250000000044 C17.33712500000013 20.336875000000035 16.449875000000134 20.452250000000035 13.463125000000105 19.214000000000027 C9.642750000000092 17.631250000000037 7.182500000000118 13.749125000000035 6.990750000000162 13.497250000000037 C6.8071250000001555 13.245375000000038 5.447000000000116 11.44162500000003 5.447000000000116 9.576125000000033 C5.447000000000116 7.710625000000036 6.394375000000082 6.802250000000029 6.776250000000118 6.412250000000029 C7.08987500000012 6.092125000000038 7.608250000000112 5.945875000000029 8.10550000000012 5.945875000000029 C8.266375000000153 5.945875000000029 8.411000000000172 5.954000000000036 8.541000000000167 5.960500000000039 C8.92287500000009 5.976750000000024 9.11462500000016 5.999500000000026 9.366500000000087 6.602375000000023 C9.68012500000009 7.3580000000000325 10.443875000000162 9.22350000000003 10.53487500000017 9.415250000000029 C10.627500000000168 9.607000000000028 10.720125000000166 9.867000000000033 10.590125000000171 10.118875000000031 C10.468250000000126 10.378875000000036 10.361000000000104 10.494250000000036 10.169250000000147 10.715250000000026 C9.977500000000077 10.93625000000003 9.795500000000175 11.105250000000026 9.603750000000105 11.34250000000003 C9.428250000000162 11.548875000000024 9.230000000000132 11.769875000000027 9.451000000000136 12.151750000000035 C9.67200000000014 12.525500000000036 10.435750000000098 13.771875000000037 11.56025000000011 14.772875000000042 C13.011375000000157 16.064750000000032 14.187875000000076 16.477500000000035 14.6087500000001 16.653000000000034 C14.922375000000102 16.78300000000003 15.296125000000188 16.752125000000035 15.525250000000142 16.50837500000003 C15.81612500000017 16.19475000000004 16.17525000000012 15.674750000000046 16.540875000000142 15.162875000000028 C16.800875000000133 14.79562500000003 17.12912500000016 14.75012500000004 17.473625000000197 14.880125000000021 C17.824625000000196 15.002000000000024 19.68200000000013 15.920125000000027 20.063875000000166 16.110250000000036 C20.44575000000009 16.302000000000035 20.69762500000013 16.39300000000003 20.79025000000013 16.553875000000033 C20.881250000000136 16.714750000000038 20.881250000000136 17.470375000000033 20.567625000000135 18.35762500000004 Z" vector-effect="non-scaling-stroke"/></g></svg>