<svg version="1.2" xmlns="http://www.w3.org/2000/svg" xmlns:xlink="http://www.w3.org/1999/xlink" overflow="visible" preserveAspectRatio="none" viewBox="0 0 30 29" width="30" height="29"><g transform="translate(0, 0)"><defs><path id="path-1710097679275221354" d="M15.003068951356747 0.5978088453750869 C14.140987161902759 0.5981923854439406 13.356413682635957 1.0990941161899423 12.988371120745985 1.8840690325359237 C12.988371120745985 1.8840690325359237 9.584817764352483 8.80095477054009 9.584817764352483 8.80095477054009 C9.575815393313047 8.817271531261762 9.56723926659362 8.833823066458198 9.559098217578729 8.850592328098307 C9.542600009266357 8.853072001399166 9.526163335845977 8.85595037116363 9.509802419595701 8.859224946804085 C9.509802419595701 8.859224946804085 2.0146978306107632 9.977149069202262 2.0146978306107632 9.977149069202262 C1.1466433000596448 10.062003607822474 0.40747150329035714 10.64882723363358 0.1229787659248874 11.478972387417215 C-0.16151397144058235 12.30911754120085 0.06093698656474641 13.230076870171699 0.6922844673268898 13.835929630684774 C0.6922844673268898 13.835929630684774 6.1791211123945 19.164413526825893 6.1791211123945 19.164413526825893 C6.1791211123945 19.164413526825893 6.191980885781377 19.175204300208115 6.191980885781377 19.175204300208115 C6.207733754309171 19.19012510296965 6.214981997763448 19.212020585934436 6.211270545861693 19.23347447647211 C6.211270545861693 19.23347447647211 6.211270545861693 19.242107095177886 6.211270545861693 19.242107095177886 C6.211270545861693 19.242107095177886 4.903860251529177 26.94240298073135 4.903860251529177 26.94240298073135 C4.903860251529177 26.94240298073135 4.903860251529177 26.944561135407795 4.903860251529177 26.944561135407795 C4.75745229046053 27.79630030708421 5.1050229237763824 28.657719804274507 5.799893822516424 29.165291870976112 C6.494764721256463 29.672863937677718 7.415883725714191 29.738165393423106 8.174529282924947 29.3336383622317 C8.174529282924947 29.3336383622317 14.925910311035485 25.740310825951845 14.925910311035485 25.740310825951845 C14.975108678440076 25.71869003676802 15.031029224273418 25.71869003676802 15.080227591678012 25.740310825951845 C15.080227591678012 25.740310825951845 21.831608619788547 29.331480207555256 21.831608619788547 29.331480207555256 C22.58991863631412 29.73869668887097 23.5124305310927 29.675009262766743 24.2084497771833 29.167390295620418 C24.904469023273897 28.659771328474086 25.252217991997085 27.79703536735312 25.104420946748796 26.944561135407795 C25.104420946748796 26.944561135407795 23.79701065241628 19.239948940501442 23.79701065241628 19.239948940501442 C23.79701065241628 19.239948940501442 23.79701065241628 19.233474476472107 23.79701065241628 19.233474476472107 C23.792724061287316 19.224841857766332 23.794867356851803 19.211892929707663 23.79701065241628 19.203260311001888 C23.80022816577368 19.192576118451257 23.806134818193627 19.182911264779445 23.814157016932114 19.17520430020811 C23.814157016932114 19.17520430020811 23.827016790318993 19.164413526825886 23.827016790318993 19.164413526825886 C23.827016790318993 19.164413526825886 29.311710139822118 13.833771476008325 29.311710139822118 13.833771476008325 C29.941660211253485 13.227728298176913 30.16320017311877 12.30766386508863 29.878852532617344 11.478406151784025 C29.594504892115918 10.649148438479422 28.85639729257478 10.06271998409082 27.989296776538247 9.977149069202259 C27.989296776538247 9.977149069202259 20.49633548311779 8.859224946804082 20.49633548311779 8.859224946804082 C20.47997456686751 8.855950371163628 20.463537893447135 8.853072001399164 20.44703968513476 8.850592328098307 C20.438898636119866 8.833823066458196 20.43032250940044 8.81727153126176 20.421320138361008 8.800954770540088 C20.421320138361008 8.800954770540088 17.017766781967513 1.8840690325359237 17.017766781967513 1.8840690325359237 C16.64972422007754 1.0990941161899415 15.865150740810735 0.5981923854439394 15.003068951356747 0.5978088453750869 Z" vector-effect="non-scaling-stroke"/></defs><g transform="translate(-0.0004563546731222489, -0.5978088453750869)"><path d="M15.003068951356747 0.5978088453750869 C14.140987161902759 0.5981923854439406 13.356413682635957 1.0990941161899423 12.988371120745985 1.8840690325359237 C12.988371120745985 1.8840690325359237 9.584817764352483 8.80095477054009 9.584817764352483 8.80095477054009 C9.575815393313047 8.817271531261762 9.56723926659362 8.833823066458198 9.559098217578729 8.850592328098307 C9.542600009266357 8.853072001399166 9.526163335845977 8.85595037116363 9.509802419595701 8.859224946804085 C9.509802419595701 8.859224946804085 2.0146978306107632 9.977149069202262 2.0146978306107632 9.977149069202262 C1.1466433000596448 10.062003607822474 0.40747150329035714 10.64882723363358 0.1229787659248874 11.478972387417215 C-0.16151397144058235 12.30911754120085 0.06093698656474641 13.230076870171699 0.6922844673268898 13.835929630684774 C0.6922844673268898 13.835929630684774 6.1791211123945 19.164413526825893 6.1791211123945 19.164413526825893 C6.1791211123945 19.164413526825893 6.191980885781377 19.175204300208115 6.191980885781377 19.175204300208115 C6.207733754309171 19.19012510296965 6.214981997763448 19.212020585934436 6.211270545861693 19.23347447647211 C6.211270545861693 19.23347447647211 6.211270545861693 19.242107095177886 6.211270545861693 19.242107095177886 C6.211270545861693 19.242107095177886 4.903860251529177 26.94240298073135 4.903860251529177 26.94240298073135 C4.903860251529177 26.94240298073135 4.903860251529177 26.944561135407795 4.903860251529177 26.944561135407795 C4.75745229046053 27.79630030708421 5.1050229237763824 28.657719804274507 5.799893822516424 29.165291870976112 C6.494764721256463 29.672863937677718 7.415883725714191 29.738165393423106 8.174529282924947 29.3336383622317 C8.174529282924947 29.3336383622317 14.925910311035485 25.740310825951845 14.925910311035485 25.740310825951845 C14.975108678440076 25.71869003676802 15.031029224273418 25.71869003676802 15.080227591678012 25.740310825951845 C15.080227591678012 25.740310825951845 21.831608619788547 29.331480207555256 21.831608619788547 29.331480207555256 C22.58991863631412 29.73869668887097 23.5124305310927 29.675009262766743 24.2084497771833 29.167390295620418 C24.904469023273897 28.659771328474086 25.252217991997085 27.79703536735312 25.104420946748796 26.944561135407795 C25.104420946748796 26.944561135407795 23.79701065241628 19.239948940501442 23.79701065241628 19.239948940501442 C23.79701065241628 19.239948940501442 23.79701065241628 19.233474476472107 23.79701065241628 19.233474476472107 C23.792724061287316 19.224841857766332 23.794867356851803 19.211892929707663 23.79701065241628 19.203260311001888 C23.80022816577368 19.192576118451257 23.806134818193627 19.182911264779445 23.814157016932114 19.17520430020811 C23.814157016932114 19.17520430020811 23.827016790318993 19.164413526825886 23.827016790318993 19.164413526825886 C23.827016790318993 19.164413526825886 29.311710139822118 13.833771476008325 29.311710139822118 13.833771476008325 C29.941660211253485 13.227728298176913 30.16320017311877 12.30766386508863 29.878852532617344 11.478406151784025 C29.594504892115918 10.649148438479422 28.85639729257478 10.06271998409082 27.989296776538247 9.977149069202259 C27.989296776538247 9.977149069202259 20.49633548311779 8.859224946804082 20.49633548311779 8.859224946804082 C20.47997456686751 8.855950371163628 20.463537893447135 8.853072001399164 20.44703968513476 8.850592328098307 C20.438898636119866 8.833823066458196 20.43032250940044 8.81727153126176 20.421320138361008 8.800954770540088 C20.421320138361008 8.800954770540088 17.017766781967513 1.8840690325359237 17.017766781967513 1.8840690325359237 C16.64972422007754 1.0990941161899415 15.865150740810735 0.5981923854439394 15.003068951356747 0.5978088453750869 Z" style="stroke-width: 0; stroke-linecap: butt; stroke-linejoin: miter; fill: rgb(230, 15, 99);" vector-effect="non-scaling-stroke"/></g></g></svg>