<svg version="1.2" xmlns="http://www.w3.org/2000/svg" xmlns:xlink="http://www.w3.org/1999/xlink" overflow="visible" preserveAspectRatio="none" viewBox="0 0 30.00001054070519 26.999999542021747" width="30.00001054070519" height="26.999999542021747"><g transform="translate(0, 0)"><g transform="translate(-0.000009999999999732445, -4.579782522332737e-7) rotate(0)"><path d="M9.41304,26.46919c0.72495,0.34905 1.51808,0.5304 2.32144,0.53081h11.53383c2.6573,-0.00002 4.91866,-1.95158 5.32895,-4.59888l1.35058,-8.70829c0.1955,-1.25641 -0.16397,-2.53617 -0.98384,-3.5026c-0.81987,-0.96643 -2.01805,-1.52278 -3.27932,-1.52267h-7.08297v-5.12751c0.00209,-1.61046 -1.07556,-3.0188 -2.62101,-3.42527c-1.54545,-0.40647 -3.16802,0.29166 -3.94632,1.69797l-4.48106,8.07088c-0.27039,0.48723 -0.41227,1.03627 -0.41208,1.5946v11.83875c-0.00019,1.25785 0.71663,2.40383 1.84248,2.94555l0.43149,0.20667zM2.151,10.28392c-0.57028,-0.00058 -1.1174,0.22745 -1.52085,0.63385c-0.40345,0.4064 -0.63014,0.95785 -0.63014,1.53289v11.12085c0,1.19786 0.96303,2.16891 2.151,2.16891h1.0701c0.59577,0 1.07873,-0.48699 1.07873,-1.08772v-13.28324c0,-0.60073 -0.48297,-1.08772 -1.07873,-1.08772h-1.0701z" style="stroke-width: 0; stroke-linecap: butt; stroke-linejoin: miter; fill: rgb(230, 15, 99);" vector-effect="non-scaling-stroke"/></g><defs><path id="path-1710097679280221371" d="M9.41304,26.46919c0.72495,0.34905 1.51808,0.5304 2.32144,0.53081h11.53383c2.6573,-0.00002 4.91866,-1.95158 5.32895,-4.59888l1.35058,-8.70829c0.1955,-1.25641 -0.16397,-2.53617 -0.98384,-3.5026c-0.81987,-0.96643 -2.01805,-1.52278 -3.27932,-1.52267h-7.08297v-5.12751c0.00209,-1.61046 -1.07556,-3.0188 -2.62101,-3.42527c-1.54545,-0.40647 -3.16802,0.29166 -3.94632,1.69797l-4.48106,8.07088c-0.27039,0.48723 -0.41227,1.03627 -0.41208,1.5946v11.83875c-0.00019,1.25785 0.71663,2.40383 1.84248,2.94555l0.43149,0.20667zM2.151,10.28392c-0.57028,-0.00058 -1.1174,0.22745 -1.52085,0.63385c-0.40345,0.4064 -0.63014,0.95785 -0.63014,1.53289v11.12085c0,1.19786 0.96303,2.16891 2.151,2.16891h1.0701c0.59577,0 1.07873,-0.48699 1.07873,-1.08772v-13.28324c0,-0.60073 -0.48297,-1.08772 -1.07873,-1.08772h-1.0701z" vector-effect="non-scaling-stroke"/></defs></g></svg>