<?xml version="1.0" encoding="utf-8"?>
<!-- Generator: Adobe Illustrator 19.1.0, SVG Export Plug-In . SVG Version: 6.00 Build 0)  -->
<svg version="1.1" id="Layer_1" xmlns="http://www.w3.org/2000/svg" xmlns:xlink="http://www.w3.org/1999/xlink" x="0px" y="0px"
	 viewBox="0 0 206 55" style="enable-background:new 0 0 206 55;" xml:space="preserve">
<style type="text/css">
	.st0{fill:#747378;}
	.st1{fill:#FFFFFF;}
	.st2{fill:#E1005D;}
	.st3{fill-rule:evenodd;clip-rule:evenodd;fill:#E1005D;}
</style>
<g>
	<path class="st0" d="M182.2,40.2H88.6c-4.1,0-7.4,3.3-7.4,7.4c0,4.1,3.3,7.4,7.4,7.4h93.6c4.1,0,7.4-3.3,7.4-7.4
		C189.6,43.5,186.3,40.2,182.2,40.2z"/>
	<g>
		<path class="st1" d="M108.7,43.7c-2.2,0-3.6,1.5-3.6,4.1c0,2.5,1.2,4.2,3.5,4.2c2.3,0,3.6-1.5,3.6-4.3
			C112.2,45.1,110.8,43.7,108.7,43.7z M108.7,51.1c-1.9,0-2.5-1.8-2.5-3.4c0-1.8,0.9-3.1,2.5-3.1c1.8,0,2.5,1.6,2.5,3.2
			C111.1,49.7,110.4,51.1,108.7,51.1z"/>
		<path class="st1" d="M140,43.7c-2.2,0-3.6,1.5-3.6,4.1c0,2.5,1.2,4.2,3.5,4.2c2.3,0,3.6-1.5,3.6-4.3
			C143.4,45.1,142.1,43.7,140,43.7z M139.9,51.1c-1.9,0-2.5-1.8-2.5-3.4c0-1.8,0.9-3.1,2.5-3.1c1.8,0,2.5,1.6,2.5,3.2
			C142.4,49.7,141.6,51.1,139.9,51.1z"/>
		<path class="st1" d="M155.1,43.9c-2.2,0-3.6,1.5-3.6,4.1c0,2.5,1.2,4.2,3.5,4.2c2.3,0,3.6-1.5,3.6-4.3
			C158.6,45.2,157.2,43.9,155.1,43.9z M155.1,51.2c-1.9,0-2.5-1.8-2.5-3.4c0-1.8,0.9-3.1,2.5-3.1c1.8,0,2.5,1.6,2.5,3.2
			C157.5,49.8,156.8,51.2,155.1,51.2z"/>
		<path class="st1" d="M97.1,50.2c-0.6,0.5-1.3,0.9-2.3,0.9c-1.9,0-2.4-1.7-2.4-3.3c0-2.3,1.2-3.2,2.5-3.2c1,0,1.8,0.5,2,0.8
			l0.5-0.7c-0.5-0.6-1.6-0.9-2.5-0.9c-2.1,0-3.7,1.5-3.7,4.2c0,2.5,1.1,4,3.5,4c1.2,0,2.1-0.4,2.8-1.1L97.1,50.2z"/>
		<path class="st1" d="M128.9,49.5v-3.3c0-1.5-0.3-2.5-2.1-2.5c-0.9,0-2,0.4-2.8,0.7l0.3,0.8c0.5-0.2,1.5-0.6,2.4-0.6
			c1.2,0,1.3,0.7,1.3,1.6V47c-1.8,0.5-2.9,0.8-3.3,1c-0.5,0.3-1,0.8-1,1.9c0,1.6,1,2.1,2,2.1c0.9,0,1.4-0.5,2.3-1.1l0.1,0
			c0.1,0.3,0.1,0.5,0.2,0.9h1C129.1,51.7,128.9,50.3,128.9,49.5z M127.9,49.9c-0.5,0.5-1.3,1.2-2.1,1.2c-0.8,0-1.1-0.5-1.1-1.2
			c0-0.7,0.2-1.1,0.7-1.3c0.7-0.3,1.5-0.5,2.5-0.8V49.9z"/>
		<polygon class="st1" points="165.9,52.1 167.5,52.1 171.4,45.6 171.4,45.6 171.4,52.1 172.4,52.1 172.4,44 171.2,44 166.9,51.1 
			166.9,51.1 166.9,44 165.9,44 		"/>
		<path class="st1" d="M113.6,52h1v-7c0,0,0,0,0,0l2.7,6.7h1l2.6-6.7c0,0,0,0,0,0v7h1v-8.1h-1.6l-2.5,6.4h-0.1l-2.5-6.4h-1.7V52z"/>
		<polygon class="st1" points="98.4,43.9 98.4,44.8 101.1,44.8 101.1,52 102.2,52 102.2,44.8 104.9,44.8 104.9,43.9 		"/>
		<polygon class="st1" points="130,43.9 130,44.8 132.7,44.8 132.7,52 133.8,52 133.8,44.8 136.5,44.8 136.5,43.9 		"/>
		<polygon class="st1" points="159.9,52.1 161,52.1 161,44.9 164.9,44.9 164.9,44 159.9,44 		"/>
		<path class="st1" d="M145.9,43.9L145.9,43.9L145.9,43.9c-0.2,1.8-0.5,4.7-0.5,4.7c-0.2,2-0.4,2.2-1.7,3l0.6,0.6
			c1-0.5,1.8-0.6,2.1-2.7c0,0,0.3-2.7,0.5-4.7h2.2c0,2.1,0,7.1,0,7.1h1.1c0,0,0-8,0-8.1H145.9z"/>
		<path class="st1" d="M179.6,44.1c0,0-0.4,0-1,0H177c-1.3,0-2.6,0.7-2.6,2.2c0,1,0.6,1.6,1.3,1.9c-0.5,0.2-0.8,1.1-0.9,1.6
			c-0.2,2.2-1.4,1.7-1.6,1.7l0.3,0.7c0.7,0.1,2,0,2.3-2.1c0,0,0.2-1.5,1.2-1.7c0.5,0,1,0,1.5,0v3.6c0,0,0.9,0,1,0L179.6,44.1
			L179.6,44.1z M177.1,47.6c-1.1,0-1.7-0.5-1.7-1.3c0,0,0,0,0,0c0-0.8,0.6-1.3,1.7-1.3c0.4,0,1,0,1.5,0v2.6
			C178.1,47.6,177.5,47.6,177.1,47.6z"/>
	</g>
	<g>
		<path class="st2" d="M205.3,12.8c-0.4-0.4-1.3-0.8-2-0.8c-0.6,0.1-0.8,1.7-0.8,3.5c0,0-0.5,1.3-1.1,2.6c-0.4,0.8-1,1.7-1.4,2.1
			c-0.4,0.4-1.1,0.2-1.2-0.6c-0.1-0.7-0.3-1.2-0.1-2.5c0.2-1.3,0.5-2.2,1-3.3c0.6-1.1,1.4-2,1.9-2.3c0.5-0.3,1.1-1.6,1.1-1.8
			c0-0.2-0.1-0.2-0.1-0.2c-2.4,1.4-2.8,1.9-3.9,3.2c-1,1.2-2.5,3.8-2.8,5.6c-0.2,1.9-0.3,3.6,0.3,4.9c0.5,1.1,1.8,0.7,2.2,0.3
			c0.5-0.3,2.3-2.7,2.8-3.6c0.1-0.1,0.2-0.3,0.3-0.4c-0.6,2.2-1.4,4.2-2.8,6.5c-1.4,2.4-5,5.1-5.6,5.4c-0.6,0.2-0.4,0.6,0.2,0.7
			c0.6,0.2,2.3-0.4,4.3-1.6c1.4-0.8,3.4-2.9,4.9-5.3c0,1.3,0,2.2,0,2.2c0.1,2.4,0.9,3.3,1,3.4c0.1,0.1,0.4,0.2,0.9,0.1
			c0.5-0.1,0.5-1.6,0.5-2.6c0-1,0.2-5.9,0.3-7.4c0.1-1.5,0.6-4.8,0.7-6C206.1,13.7,205.6,13.2,205.3,12.8z"/>
		<path class="st2" d="M134.1,19.3c0.2-1.8,0.8-6.2,0.8-6.9c0-1.8-3.2-2.2-3.4-2.2c-0.6,0-0.9,0.4-0.9,0.5c-0.6,0.7-3,5.6-3.6,7.1
			c-1,2.8-3.1,9.7-2.8,13.1c0,0,0,0.7,0.8,0.5c0.8-0.2,1.8-0.1,2.1-0.9c0.3-0.8-0.3-2.6,0.5-7.7c0.4-2.4,1.1-4.5,1.5-5.3
			c0.4-0.8,0.9-1.6,1-1.7c0.1-0.1,0.2-0.2,0.3-0.2c0.1,0,0.2,0,0.2,0.2v0.1c0,0-0.5,3.2-0.5,7c0,1.9,0.1,3.9,0.5,5.7
			c0,0,1.3,5.1,3.5,5.4c0.3,0,0.5,0,0.5-0.4c-0.8-1.7-1-4-1-6.5C133.6,23.2,133.9,20.9,134.1,19.3z"/>
		<path class="st2" d="M123.1,19.6c0.4-4.6,0.8-6.4,0.8-7.1c0-1.8-3.2-2.2-3.4-2.2c-0.6,0-0.8,0.4-0.8,0.4
			c-2.5,3.7-5.1,11.9-5.2,12.3c-0.1,0.2-0.1,0.2-0.2,0.2c-0.1,0-0.2-0.2-0.2-0.2c0-0.5,0-1.1,0-1.8c0-2.7,0.6-8.5,0.6-8.5
			c0.1-1.6-2.6-1.6-2.9-1.6c-1.8,0-3.3,4.6-4.3,8.4c-0.5,1.6-1,3.4-1.4,5.2c0,0,0,0,0,0c0,0,0,0,0,0c-0.4,2-0.7,3.8-0.6,5.2
			c0,0,0,0.7,0.8,0.5c0.8-0.2,1.8-0.1,2.1-0.9c0.3-0.8-0.3-2.6,0.5-7.7c0.1-0.5,0.2-1.1,0.4-1.7c0.2-0.6,0.9-2.7,1.4-4.1
			c0,0,0.2-0.2,0.3-0.2c0,0,0.1,0,0.1,0.3c0,1.9-0.2,10.3,1,13c0,0,0.4,0.9,1.3,0.9c0.5,0,1-0.1,1.1-0.7c0-0.2,1.5-7.3,4.7-13.2
			c0,0,0.1-0.2,0.3-0.2c0.1,0,0.2,0,0.2,0.2V16c0,0-0.5,3.2-0.5,7c0,1.9,0.1,3.9,0.5,5.7c0,0,1.3,5.1,3.5,5.4c0.3,0,0.5-0.1,0.5-0.4
			c-0.8-1.7-1-4-1-6.5C122.5,23.3,123.1,19.6,123.1,19.6z"/>
		<path class="st2" d="M194.2,15.4c0-5-3.7-7.3-6.7-7.3c-1,0-1.1,0.4-1.1,0.4c0,0.1,0,0.4,0.7,0.5c0,0,3.1,0.9,3.5,4.2
			c0,0,0,0.2-0.1,0.3c-1.4,1-7.3,5.1-7.3,11.2c0,1.3,0.6,4.4,2.4,4.4c0.2,0,0.5-0.1,0.8-0.2c0,0,2.1-1.1,3.8-3.5
			c0,0,0.1-0.1,0.2-0.1c0,0,0,0.1,0,0.2c0,0,0.7,4,3.5,4c0,0,0.2,0,0.2-0.4c0,0-0.5-2.2-0.5-4.5c0-3.1,0.5-6.1,0.5-6.1
			C194.1,17.3,194.2,16.2,194.2,15.4z M190.3,20.5c-0.1,3.3-2.1,4.9-2.5,4.9c-1,0-1.2-1.8-1.2-2.6c0-3.5,1.9-6.1,3.6-7.5
			c0,0,0.3-0.2,0.3-0.2c0,0,0.1,0,0.1,0.3C190.7,15.5,190.3,19,190.3,20.5z"/>
		<path class="st2" d="M145.4,31.6c-5.2-2.1-5.6-8.2-5.6-8.2c0-0.2,0.2-0.2,0.2-0.2c6.2-3.8,6.9-8.1,6.9-9.9c0-1.5-0.5-2.4-1.6-2.4
			c-2.8,0-9.4,5.3-9.4,12.3c0,2.8,2,9.4,8.6,9.4c0.6,0,1.3,0,1.6-0.5C146,31.6,145.4,31.6,145.4,31.6z M139.6,21.3
			c0-3.9,1.7-7.6,3-7.6c0.2,0,0.6,0.2,0.6,0.9c0,4-2.9,7-3.4,7C139.7,21.6,139.6,21.5,139.6,21.3z"/>
		<path class="st2" d="M105.3,32.2c-5.2-2.1-5.6-8.2-5.6-8.2c0-0.2,0.2-0.2,0.2-0.2c6.2-3.8,6.9-8.1,6.9-9.9c0-1.5-0.5-2.4-1.6-2.4
			c-2.8,0-9.4,5.3-9.4,12.3c0,2.8,2,9.4,8.6,9.4c0.6,0,1.3,0,1.6-0.5C106,32.2,105.3,32.2,105.3,32.2z M99.5,21.9
			c0-3.9,1.7-7.6,3-7.6c0.2,0,0.6,0.2,0.6,0.9c0,4-2.9,7-3.4,7C99.6,22.2,99.5,22.2,99.5,21.9z"/>
		<path class="st2" d="M169.5,24.1c0-0.5-0.1-0.6-0.1-0.6c-0.1-0.2-0.2-0.2-0.3-0.2c-0.1,0-0.2,0.2-0.2,0.2c-1.4,3.5-2.4,3.7-3,3.7
			c-2.1,0-3.2-5-3.2-7.7c0-5.4,2.8-6,2.9-6c0.2,0,0.2,0.2,0.2,0.2c0,3.7,1.8,4.9,2.1,4.9c0.2,0,0.3-0.3,0.3-0.4
			c0.1-2.4,0.7-3.8,0.7-5.5c0-0.9-0.1-1.4-0.5-1.4c-3.4,0-8.5,3.8-8.5,11.4c0,2.9,1.6,7.8,5.1,7.8C166.3,30.3,169.3,28.4,169.5,24.1
			z"/>
		<path class="st2" d="M96.3,13.9c0-3.3-1-3.3-1.6-3.3c-3.9,0-7.2,7.1-7.5,7.6c0,0.2-0.1,0.2-0.2,0.2c-0.1,0-0.1-0.3-0.1-0.3
			c0.5-2.7,1.1-6.5,1.1-6.5c0-0.5-0.2-0.5-0.3-0.5c-0.1,0-2.5,0.5-3.1,2.5C84.4,14.5,83,18.4,83,27c0,4.5,0.4,6.2,3.6,7
			c0.3,0,0.4-0.3,0.4-0.5c-0.3-2.2-0.4-3.1-0.4-4.8c0-3.5,1-10.2,4.9-14.3c0,0,0.1-0.1,0.3-0.1c0.4,0,0.5,0.8,0.5,2.2
			c0,0.7-0.4,6.9-5.1,9.8c0,0-0.1,0.2-0.1,0.4c0,0.1,0,0.2,0.2,0.3C90.1,26.9,96.3,23.9,96.3,13.9z"/>
		<path class="st3" d="M87.5,1.9c-1.7,2.1-5.9,5.6-7.8,7.6c-1.8,2-2.3,2.8-3.8,5.1c0.7,5,1.5,11.2,4.9,16.5c0.5,0.8,1.7,1.3,1.7,2.4
			c-3.9-0.7-5.9-3.2-7.5-6.1c-0.9-1.7-1.9-4.9-2.5-8.5c-1.4,1.4-2.8,3-3.4,4.9c-0.8,2.6-1.6,5-1.6,8.1c-3.8,1.1-2.5-6-2.3-9.5
			c0.1-2.5,0.5-6,0.8-9.2c0.6-6,1.1-10.7,6.8-11c0.1,1.4-0.5,2.6-0.9,4c-1,3.8-1.9,6.1-2.3,10.8c0.9-1.1,3.7-5,5.4-7.1
			c1.7-2.1,8.5-9,12.3-8.4C87.3,1.8,87.3,1.9,87.5,1.9z"/>
		<path class="st2" d="M156.9,14.2c-3.4,0-6.3,5.9-6.6,6.6c-0.1,0.1-0.1,0.1-0.1,0.1c-0.1,0-0.1-0.2-0.1-0.2
			c0.2-1.5,0.4-3.1,0.6-4.4c6.5-2.9,8.8-9,8.5-12.8c-0.1-1.5-0.3-3.7-2-3.6c-2.3,0.1-4.5,3.6-5,4.5c-0.5,0.9-0.9,1.7-1,2
			c-1,2.1-2.5,5.6-2.9,9.4c-0.3,2.8-0.5,4.9-0.6,7.5c0,1.5,0.2,4.7,0.6,5.9c0.8,1.9,2.8,2.4,3.8,1.8c4.6-3,6.6-9.7,6.6-12.9
			C158.6,16.7,158.6,14.2,156.9,14.2z M151.3,12.6c0.3-2.1,1-4.1,1.6-5.5c0.6-1.4,1.5-2.8,2.1-2.9c0.4,0,0.7,0,0.6,1.3
			c-0.1,2.7-0.8,7-4.8,9.8C151.1,13.7,151.3,12.6,151.3,12.6z M154.3,17.6c0.4,0,0.6,0.7,0.6,2c0,1.5-0.5,3.9-1.6,6.2
			c-0.3,0.6-0.7,1.3-1.2,1.9c-0.8,0.9-1.9,1.3-2.3,1c-0.1-0.1-0.1-0.2-0.2-0.3C149.8,25.8,152.7,17.6,154.3,17.6z"/>
		<path class="st2" d="M143.1,9.2c0.6-0.7,1-1.8,0.3-2.4c-0.7-0.6-1.4-0.3-1.7,0.4C141.2,8.3,141.6,10.9,143.1,9.2z"/>
		<path class="st2" d="M147.4,9.2c0.6-0.6,1.1-1.7,0.3-2.4c-0.6-0.6-1.4-0.4-1.7,0.4C145.5,8.2,145.8,10.8,147.4,9.2z"/>
		<path class="st2" d="M185,32.2c-4-5.5-5.6-14.4-5.6-14.4c0-0.4,0.1-0.6,0.1-0.6c2.2-4.4,4.9-5.7,4.9-5.7c0.2-0.1,0.2-0.2,0.2-0.4
			c0-0.2-0.2-0.2-0.2-0.2c-5.5,0.1-8.5,8.2-9.5,10.9c0,0.1-0.1,0.3-0.1,0.4c0,0.1-0.1,0.2-0.2,0.2c-0.2,0-0.2-0.4-0.2-0.4
			c0.1-1.3,0.3-2.1,0.4-3.2c0.1-1.9-0.1-3.7-0.3-4.6c-0.5-2.4-1.8-4.5-2.9-4.5c-0.3,0-0.3,0.3-0.3,0.5c0,0,0.3,4.6,0.3,6.2
			c-0.1,1.9-0.6,7.9-1.3,12.3c0,0.6,0.1,1.3,0.7,1.9c0,0,0.7,0.7,1.6,0.7c0.4,0,0.7,0,0.9-0.8c0,0,0.6-4,2.9-8c0,0,0.2-0.3,0.3-0.3
			c0,0,0.1,0,0.2,0.2c0,0,2.8,9.3,7.9,10.4c0.5,0,0.6-0.2,0.6-0.2C185.1,32.5,185.1,32.3,185,32.2z"/>
	</g>
	<g>
		<path class="st2" d="M6.2,25c0.4-4,3-5.5,7.8-6c4.8-0.5,4.9-6.1,6.3-8.8c2.5-5,5.9-4.2,5.9-4.2s-2.9-3.8-5.3-4.7
			c-2.5-0.9-6-1.3-7.2,5c-1.2,6.3-1.2,12.6-8.5,15.6c-7.3,3-5.2,9.6-3.1,11.2c8.4,6.6,8.7,8.7,8.7,8.7s0.9-3.4,0-5.8
			C9.9,33.6,5.8,29.1,6.2,25z"/>
		<path class="st2" d="M18,49c-3.6,0.5-5.5-1.5-5.5-1.5c0.5,5.4,1.3,6.9,6.4,7.3c5.1,0.4,6.8-2.6,9.7-4.3c2.9-1.7,6-2.8,6-2.8
			s-2.4-0.9-6.5-1.1C24,46.5,21.6,48.4,18,49z"/>
		<path class="st2" d="M49.3,26.3c-0.4-4.2,2.8-5.9,2-11.7c-0.8-5.8-6.9-5.3-13.6-5c-3.6,0.2-7.6-0.5-7.6-0.5s0.6,1.9,1.7,3.4
			c1.1,1.5,3.9,4.7,9.3,5.1c5.4,0.4,7.5,3.8,7.7,6.5c0.3,2.7-1.5,4.5-3.2,8c-1.7,3.5-0.2,6.7-0.1,9.4c0.3,4.2-3.3,5.2-3.3,5.2
			C49,47.8,52,47,52.9,42.6C53.8,38.5,49.7,30.5,49.3,26.3z"/>
		<path class="st2" d="M41.6,33.8c-0.6-1.5-0.8-3.4,0.9-7.4c1.6-4,0.1-5.6-1.6-6.6c-1.7-1-7.1-0.8-10.1-1.8c-3-1.1-5-6.1-7.2-6.1
			c-2.2,0.1-3.1,5.1-3.7,8.5c-0.7,3.4-5.1,3.5-6.7,4.1c-2.9,1-3.3,3.8-1.4,7.1c1.9,3.3,5.6,1.6,5,7.7c-0.4,4,0.8,6,4.3,6.1
			c3.5,0.1,5.4-4,9.8-4.3c5.6-0.3,9.2,2.3,10.7,0.9C43.1,40.6,42.2,35.3,41.6,33.8z M37.2,24.8c-0.3,1.9-1.5,3.4-1,5.2
			c0.5,1.8,1.3,4.4,0.8,5.8c-0.8,2.3-4.5-0.3-7.4,0.3c-3.6,0.7-3.3,3.1-6.3,2.8c-3-0.2-1.6-1.8-2.3-4c-0.7-2.1-3.5-3.7-3.9-5.6
			c-0.4-1.9,1.2-3.2,3.8-4.1c2.6-0.9,1.6-3.2,1.7-4.8c0.1-1.3,2-3.9,3.9-1.7c1.9,2.1,2,4,5.8,3.8C36.2,22.4,37.5,22.9,37.2,24.8z"/>
		<path class="st2" d="M34.7,26.5c-0.3-1.8-2.6-1.6-4.4-2c-1.8-0.4-2.4-2.8-3.6-3.1C25.6,21,25,22.7,24.6,24c-0.4,1.3-1,2.2-2.8,2.6
			c-1.8,0.3-1.9,1.7-1.3,3.1c0.6,1.4,2.1,1.9,2.1,3.6c0,1.7-0.1,2.6,1.5,2.9c1.6,0.3,2.4-1.1,4.7-1.5c1.9-0.3,4.2,0.9,5.1,0.2
			c1-0.7,0.3-3,0-4.6C33.5,28.8,35.1,28.2,34.7,26.5z M30.8,29.6c0.1,0.7,0.6,2.2-0.2,2.7c-0.7,0.5-1.2-0.5-2.4-0.4
			c-0.9,0.1-2.1,1-2.9,0.6c-0.9-0.4-0.2-0.9-0.5-2c-0.3-1.1-1.4-1.5-1.1-2.4c0.3-0.9,1.3-0.5,1.9-1.4c0.5-0.9,0.8-2.2,1.4-2.1
			c0.6,0.1,0.8,1.7,2.1,1.9c1.3,0.2,2.4,0.6,2.3,1.3C31.4,28.6,30.8,29,30.8,29.6z"/>
	</g>
</g>
</svg>
