<svg version="1.2" xmlns="http://www.w3.org/2000/svg" xmlns:xlink="http://www.w3.org/1999/xlink" overflow="visible" preserveAspectRatio="none" viewBox="0 0 51.99999 36.99998" width="51.99999" height="36.99998"><g transform="translate(0, 0)"><g transform="translate(-0.000010000000003174137, 0) rotate(0)"><path d="M41.20027,0h-30.40053c-5.96453,0 -10.79973,4.86194 -10.79973,10.85945v15.28108c0,5.99751 4.8352,10.85945 10.79973,10.85945h30.40053c5.96453,0 10.79973,-4.86194 10.79973,-10.85945v-15.28108c0,-5.99751 -4.8352,-10.85945 -10.79973,-10.85945zM33.89648,19.24347l-14.21932,6.81926c-0.37889,0.1817 -0.81654,-0.09607 -0.81654,-0.51811v-14.06475c0,-0.42805 0.44916,-0.70548 0.82884,-0.51199l14.21932,7.24549c0.42277,0.21539 0.41544,0.82503 -0.01229,1.0301z" style="stroke-width: 0; stroke-linecap: butt; stroke-linejoin: miter; fill: rgb(246, 28, 13);" vector-effect="non-scaling-stroke"/></g><defs><path id="path-1710275169544274239" d="M41.20027,0h-30.40053c-5.96453,0 -10.79973,4.86194 -10.79973,10.85945v15.28108c0,5.99751 4.8352,10.85945 10.79973,10.85945h30.40053c5.96453,0 10.79973,-4.86194 10.79973,-10.85945v-15.28108c0,-5.99751 -4.8352,-10.85945 -10.79973,-10.85945zM33.89648,19.24347l-14.21932,6.81926c-0.37889,0.1817 -0.81654,-0.09607 -0.81654,-0.51811v-14.06475c0,-0.42805 0.44916,-0.70548 0.82884,-0.51199l14.21932,7.24549c0.42277,0.21539 0.41544,0.82503 -0.01229,1.0301z" vector-effect="non-scaling-stroke"/></defs></g></svg>