<?xml version="1.0" encoding="UTF-8" standalone="no"?>
<svg
   xmlns:dc="http://purl.org/dc/elements/1.1/"
   xmlns:cc="http://creativecommons.org/ns#"
   xmlns:rdf="http://www.w3.org/1999/02/22-rdf-syntax-ns#"
   xmlns:svg="http://www.w3.org/2000/svg"
   xmlns="http://www.w3.org/2000/svg"
   xmlns:sodipodi="http://sodipodi.sourceforge.net/DTD/sodipodi-0.dtd"
   xmlns:inkscape="http://www.inkscape.org/namespaces/inkscape"
   version="1.2"
   preserveAspectRatio="none"
   viewBox="0 0 2362 2362"
   class="ng-element"
   data-id="980da894bfa04d1ca34c75991fd84095"
   style="opacity: 1; mix-blend-mode: normal; overflow: visible; width: 120px; height: 120px"
   id="svg35"
   sodipodi:docname="1.svg"
   inkscape:version="0.92.3 (2405546, 2018-03-11)">
  <metadata
     id="metadata39">
    <rdf:RDF>
      <cc:Work
         rdf:about="">
        <dc:format>image/svg+xml</dc:format>
        <dc:type
           rdf:resource="http://purl.org/dc/dcmitype/StillImage" />
        <dc:title></dc:title>
      </cc:Work>
    </rdf:RDF>
  </metadata>
  <sodipodi:namedview
     pagecolor="#ffffff"
     bordercolor="#666666"
     borderopacity="1"
     objecttolerance="10"
     gridtolerance="10"
     guidetolerance="10"
     inkscape:pageopacity="0"
     inkscape:pageshadow="2"
     inkscape:window-width="828"
     inkscape:window-height="480"
     id="namedview37"
     showgrid="false"
     inkscape:zoom="0.099915326"
     inkscape:cx="1181"
     inkscape:cy="1181"
     inkscape:window-x="0"
     inkscape:window-y="27"
     inkscape:window-maximized="0"
     inkscape:current-layer="svg35" />
  <defs
     id="defs4">
    <style
       type="text/css"
       id="style2">

        .fil3_1579085767799 {fill:black}
        .fil2_1579085767799 {fill:#B3B0B5}
        .fil0_1579085767799 {fill:#E8E7E9}
        .fil1_1579085767799 {fill:#FFC15A}

    </style>
  </defs>
  <g
     id="Слой_x0020_1_1579085767799">
    <metadata
       id="CorelCorpID_0Corel-Layer_1579085767799"
       vector-effect="non-scaling-stroke" />
    <g
       id="_1579085767799">
      <g
         id="g23">
        <path
           d="M739.05 383.33l882.11 0 0 210.13 -882.11 0 0 -210.13zm0 0z"
           class="fil0_1579085767799"
           vector-effect="non-scaling-stroke"
           id="path7" />
        <path
           d="M730.26 383.33l1030.18 0c45.61,0 82.99,-37.34 82.99,-82.89 0,-44.9 -36.27,-81.78 -80.88,-82.9l-1164.9 0c-44.72,1.12 -80.87,38 -80.87,82.89 0,45.56 37.37,82.9 82.99,82.9l130.49 0zm0 0z"
           class="fil1_1579085767799"
           vector-effect="non-scaling-stroke"
           id="path9" />
        <path
           d="M1621.12 593.46l-882.09 0c-253.87,0.34 -280.9,339.36 -52.51,360.47 19.24,1.79 38.5,0.67 56.74,-3.33 61.3,-13.66 109.8,-61.11 98.45,-148.01l676.73 0c-11.34,86.9 37.28,134.35 98.58,148.01 18.12,4 37.48,5.12 56.61,3.33 228.4,-21.11 201.49,-360.03 -52.51,-360.47l0 0zm0 0z"
           class="fil1_1579085767799"
           vector-effect="non-scaling-stroke"
           id="path11" />
        <path
           d="M1180.1 802.59l-338.42 0c11.35,86.9 -37.16,134.35 -98.45,148.01l0 815.06 873.74 0 0 -815.06c-61.28,-13.66 -109.9,-61.11 -98.56,-148.01l-338.31 0zm0 0z"
           class="fil0_1579085767799"
           vector-effect="non-scaling-stroke"
           id="path13" />
        <path
           d="M1180.1 1765.66l-480.82 0 -80.87 209.26 1123.39 0 -80.88 -209.26 -480.82 0zm0 0z"
           class="fil1_1579085767799"
           vector-effect="non-scaling-stroke"
           id="path15" />
        <path
           d="M1169.64 1974.92l-570.72 0c-47.16,0 -85.76,38.55 -85.76,85.67 0,46.99 38.37,85.44 85.32,85.67l1163.23 0c46.95,-0.23 85.33,-38.66 85.33,-85.67 0,-47.12 -38.6,-85.67 -85.78,-85.67l-591.62 0zm0 0z"
           class="fil0_1579085767799"
           vector-effect="non-scaling-stroke"
           id="path17" />
        <path
           d="M935.85 1555.98c0,43.12 35.27,78.35 78.32,78.35 43.16,0 78.44,-35.23 78.44,-78.35l0 -530.05c0,-42.99 -35.28,-78.22 -78.44,-78.22 -43.05,0 -78.32,35.23 -78.32,78.22l0 530.05zm0 0z"
           class="fil2_1579085767799"
           vector-effect="non-scaling-stroke"
           id="path19" />
        <path
           d="M1267.7 1025.93l0 530.05c0,43.12 35.28,78.35 78.34,78.35 43.04,0 78.32,-35.23 78.32,-78.35l0 -530.05c0,-42.99 -35.28,-78.22 -78.32,-78.22 -43.06,0 -78.34,35.23 -78.34,78.22zm0 0z"
           class="fil2_1579085767799"
           vector-effect="non-scaling-stroke"
           id="path21" />
      </g>
      <path
         d="M1346.04 908.22c-64.97,0 -117.83,52.82 -117.83,117.71l0 530.05c0,64.98 52.85,117.84 117.83,117.84 64.96,0 117.8,-52.86 117.8,-117.84l0 -530.05c0,-64.89 -52.84,-117.71 -117.8,-117.71zm38.83 647.76c0,21.43 -17.43,38.85 -38.83,38.85 -21.42,0 -38.83,-17.42 -38.83,-38.85l0 -530.05c0,-21.35 17.41,-38.73 38.83,-38.73 21.4,0 38.83,17.38 38.83,38.73l0 530.05zm0 0z"
         class="fil3_1579085767799"
         vector-effect="non-scaling-stroke"
         id="path25" />
      <path
         d="M1014.17 908.22c-64.96,0 -117.81,52.82 -117.81,117.71l0 530.05c0,64.98 52.85,117.84 117.81,117.84 65.02,0 117.93,-52.86 117.93,-117.84l0 -530.05c0,-64.89 -52.91,-117.71 -117.93,-117.71zm38.93 647.76c0,21.43 -17.46,38.85 -38.93,38.85 -21.4,0 -38.83,-17.42 -38.83,-38.85l0 -530.05c0,-21.35 17.41,-38.73 38.83,-38.73 21.47,0 38.93,17.38 38.93,38.73l0 530.05zm0 0z"
         class="fil3_1579085767799"
         vector-effect="non-scaling-stroke"
         id="path27" />
      <path
         d="M1768.97 1935.67l-71.21 -184.24c-5.88,-15.22 -20.51,-25.25 -36.84,-25.25l-4.44 0 0 -731.92c6.84,-0.03 13.78,-0.35 20.8,-1 137.83,-12.74 195.86,-121.14 191.47,-216.48 -4.66,-100.97 -77.2,-203.03 -208.11,-220.24l0 -133.72 99.8 0c67.53,0 122.49,-54.9 122.49,-122.39 0,-67.48 -54.96,-122.38 -122.49,-122.38l-1160.67 0c-67.54,0 -122.48,54.9 -122.48,122.38 0,67.49 54.94,122.39 122.48,122.39l99.79 0 0 133.77c-131,17.32 -203.52,119.49 -208.12,220.5 -4.32,95.18 53.75,203.43 191.44,216.17 7.03,0.65 13.98,0.95 20.86,0.98l0 731.94 -4.46 0c-16.31,0 -30.95,10.03 -36.83,25.25l-71.22 184.24c-65.49,4 -117.56,58.49 -117.56,124.92 0,69 56.19,125.16 125.27,125.16l1162.34 0c69.07,0 125.25,-56.16 125.25,-125.16 0,-66.43 -52.06,-120.92 -117.56,-124.92l0 0zm-1212.7 -1635.24c0,-23.92 19.51,-43.41 43.5,-43.41l1160.67 0.01c23.98,0 43.5,19.48 43.5,43.41 0,23.92 -19.52,43.41 -43.5,43.41l-1160.67 0c-23.99,0 -43.5,-19.49 -43.5,-43.42zm14.07 480.24c3.23,-71.04 57.41,-147.57 168.69,-147.72l262.88 0c21.82,0 39.49,-17.68 39.49,-39.49 0,-21.81 -17.67,-39.49 -39.49,-39.49l-223.37 0 0 -131.15 803.13 0 0 131.15 -223.32 0c-21.79,0 -39.49,17.68 -39.49,39.49 0,21.81 17.68,39.49 39.49,39.49l262.77 0c111.26,0 165.46,76.45 168.73,147.46 2.62,56.55 -27.21,125.64 -119.86,134.2 -37.7,3.51 -72.22,-6.85 -92.29,-27.68 -17.78,-18.44 -24.54,-45.1 -20.1,-79.24 0.28,-2.05 0.32,-4.09 0.28,-6.13 0.35,-10.01 5.85,-18.06 16.47,-23.91 14.56,-8.01 33.99,-8.7 45.18,-1.6 2.76,1.73 11.14,7.04 9.88,27.32 -1.33,21.78 15.23,40.52 36.99,41.85 0.83,0.06 1.66,0.09 2.47,0.09 20.69,0 38.09,-16.13 39.38,-37.07 2.62,-42.5 -14.31,-78.56 -46.46,-98.92 -35.33,-22.39 -85.78,-22.73 -125.52,-0.86 -23.67,13.02 -40.75,32.06 -49.86,54.64l-616.49 0c-23.68,-48.46 -76.29,-70.75 -121.8,-66.77 -56.79,5.01 -96.44,47.42 -96.44,103.15 0,21.81 17.68,39.49 39.49,39.49 21.81,0 39.5,-17.68 39.5,-39.49 0,-5.51 0,-22.32 24.39,-24.46 16.43,-1.44 42.67,6.54 47.63,34.48 0.04,0.18 0.1,0.37 0.14,0.57 3.86,32.99 -2.92,58.84 -20.26,76.84 -20.07,20.85 -54.59,31.22 -92.41,27.71 -92.54,-8.56 -122.37,-77.5 -119.82,-133.95l0 0zm212.38 198.94c21.73,-8.88 41.05,-21.61 56.77,-37.92 18.87,-19.62 39.36,-51.59 42.87,-99.61l595.47 0c3.55,48.06 24.08,80.03 43,99.65 15.68,16.29 34.97,29 56.66,37.87l0 746.58 -794.77 0 0 -746.57zm-56.37 825.56l907.5 0 50.35 130.26 -1008.2 0 50.35 -130.26zm1034.92 301.6l-1162.33 0c-25.52,0 -46.29,-20.72 -46.29,-46.18 0,-25.48 20.77,-46.19 46.29,-46.19l1162.33 0.01c25.51,0 46.28,20.71 46.28,46.18 0,25.46 -20.77,46.18 -46.28,46.18l0 0zm0 0z"
         class="fil3_1579085767799"
         vector-effect="non-scaling-stroke"
         id="path29" />
      <path
         d="M1179.72 632.95l0.77 0c21.81,0 39.5,-17.68 39.5,-39.49 0,-0.11 -0.03,-0.22 -0.03,-0.34 0,-0.1 0.03,-0.21 0.03,-0.32 0,-21.81 -17.69,-39.5 -39.5,-39.5l-0.77 0c-21.81,0 -39.5,17.69 -39.5,39.5 0,0.11 0.01,0.22 0.01,0.32 0,0.12 -0.01,0.23 -0.01,0.34 0,21.81 17.69,39.49 39.5,39.49zm0 0z"
         class="fil3_1579085767799"
         vector-effect="non-scaling-stroke"
         id="path31" />
    </g>
  </g>
</svg>