<?xml version="1.0" encoding="UTF-8" standalone="no"?>
<svg
   xmlns:dc="http://purl.org/dc/elements/1.1/"
   xmlns:cc="http://creativecommons.org/ns#"
   xmlns:rdf="http://www.w3.org/1999/02/22-rdf-syntax-ns#"
   xmlns:svg="http://www.w3.org/2000/svg"
   xmlns="http://www.w3.org/2000/svg"
   xmlns:sodipodi="http://sodipodi.sourceforge.net/DTD/sodipodi-0.dtd"
   xmlns:inkscape="http://www.inkscape.org/namespaces/inkscape"
   version="1.2"
   preserveAspectRatio="none"
   viewBox="0 0 2362 2362"
   class="ng-element"
   data-id="5b5538a250d7419fb0174085db97e7f4"
   style="opacity: 1; mix-blend-mode: normal; overflow: visible; width: 120px; height: 120px"
   id="svg113"
   sodipodi:docname="2.svg"
   inkscape:version="0.92.3 (2405546, 2018-03-11)">
  <metadata
     id="metadata117">
    <rdf:RDF>
      <cc:Work
         rdf:about="">
        <dc:format>image/svg+xml</dc:format>
        <dc:type
           rdf:resource="http://purl.org/dc/dcmitype/StillImage" />
        <dc:title></dc:title>
      </cc:Work>
    </rdf:RDF>
  </metadata>
  <sodipodi:namedview
     pagecolor="#ffffff"
     bordercolor="#666666"
     borderopacity="1"
     objecttolerance="10"
     gridtolerance="10"
     guidetolerance="10"
     inkscape:pageopacity="0"
     inkscape:pageshadow="2"
     inkscape:window-width="828"
     inkscape:window-height="480"
     id="namedview115"
     showgrid="false"
     inkscape:zoom="0.099915326"
     inkscape:cx="1181"
     inkscape:cy="1181"
     inkscape:window-x="0"
     inkscape:window-y="27"
     inkscape:window-maximized="0"
     inkscape:current-layer="svg113" />
  <defs
     id="defs4">
    <style
       type="text/css"
       id="style2">

        .fil1_1579085767883 {fill:#00838F;fill-rule:nonzero}
        .fil2_1579085767883 {fill:#00BCD4;fill-rule:nonzero}
        .fil6_1579085767883 {fill:#37474F;fill-rule:nonzero}
        .fil0_1579085767883 {fill:#607D8B;fill-rule:nonzero}
        .fil3_1579085767883 {fill:#A3BBC7;fill-rule:nonzero}
        .fil5_1579085767883 {fill:#B31E52;fill-rule:nonzero}
        .fil4_1579085767883 {fill:#B4CBD6;fill-rule:nonzero}
        .fil7_1579085767883 {fill:#E1005C;fill-rule:nonzero}
        .fil8_1579085767883 {fill:black;fill-rule:nonzero}

    </style>
  </defs>
  <g
     id="Слой_x0020_1_1579085767883">
    <metadata
       id="CorelCorpID_0Corel-Layer_1579085767883"
       vector-effect="non-scaling-stroke" />
    <g
       id="_1579085767883">
      <path
         d="M2150.5 278.44l0 1173.83 -48.53 0c-5.97,-1.75 -12.18,-2.65 -18.4,-2.68l-66.93 0 0 -1104.23 66.93 0c17.76,0.09 34.78,-7.03 47.18,-19.74 12.72,-12.39 19.84,-29.43 19.75,-47.18z"
         class="fil0_1579085767883"
         vector-effect="non-scaling-stroke"
         id="path7" />
      <path
         d="M1772.05 1089.55l-32.14 128.82c-14.4,57.21 -65.82,97.33 -124.81,97.38 -17.26,-0.02 -34.34,-3.55 -50.19,-10.38 -37.13,-15.7 -64.76,-47.9 -74.62,-87l-32.12 -128.82c-2.48,-9.99 -0.21,-20.56 6.13,-28.64 6.33,-8.11 16.04,-12.84 26.33,-12.86l248.96 0c10.28,0.02 19.99,4.75 26.32,12.86 6.34,8.08 8.6,18.65 6.14,28.64z"
         class="fil1_1579085767883"
         vector-effect="non-scaling-stroke"
         id="path9" />
      <path
         d="M1671.65 1089.55l-32.11 128.82c-9.87,39.1 -37.49,71.3 -74.63,87 -37.13,-15.7 -64.76,-47.9 -74.62,-87l-32.12 -128.82c-2.48,-9.99 -0.21,-20.56 6.13,-28.64 6.33,-8.11 16.04,-12.84 26.33,-12.86l148.57 0c10.28,0.02 19.99,4.75 26.33,12.86 6.34,8.08 8.59,18.65 6.12,28.64z"
         class="fil2_1579085767883"
         vector-effect="non-scaling-stroke"
         id="path11" />
      <path
         d="M2101.97 1318.42l-85.33 0 0 -2.67 -468.46 0c-36.91,0.12 -66.82,30 -66.92,66.92l0 702.7c0.1,36.92 30.01,66.8 66.92,66.93l535.39 0c36.9,-0.13 66.81,-30.01 66.93,-66.93l0 -702.7c-0.05,-29.83 -19.84,-56.04 -48.53,-64.25z"
         class="fil3_1579085767883"
         vector-effect="non-scaling-stroke"
         id="path13" />
      <path
         d="M2001.58 1318.42l-85.32 0 0 -2.67 -368.08 0c-36.91,0.12 -66.82,30 -66.92,66.92l0 702.7c0.1,36.92 30.01,66.8 66.92,66.93l435 0c36.92,-0.13 66.82,-30.01 66.92,-66.93l0 -702.7c-0.04,-29.83 -19.83,-56.04 -48.52,-64.25z"
         class="fil4_1579085767883"
         vector-effect="non-scaling-stroke"
         id="path15" />
      <path
         d="M1648.57 1449.59l334.61 0c18.48,0 33.46,14.99 33.46,33.47l0 66.92c0,18.49 -14.98,33.47 -33.46,33.47l-334.61 0c-18.49,0 -33.47,-14.98 -33.47,-33.47l0 -66.92c0,-18.48 14.98,-33.47 33.47,-33.47z"
         class="fil1_1579085767883"
         vector-effect="non-scaling-stroke"
         id="path17" />
      <path
         d="M1648.57 1717.29l334.61 0c18.48,0 33.46,14.98 33.46,33.46l0 66.92c0,18.49 -14.98,33.47 -33.46,33.47l-334.61 0c-18.49,0 -33.47,-14.98 -33.47,-33.47l0 -66.92c0,-18.48 14.98,-33.46 33.47,-33.46z"
         class="fil1_1579085767883"
         vector-effect="non-scaling-stroke"
         id="path19" />
      <path
         d="M1648.57 1449.59l234.22 0c18.49,0 33.47,14.99 33.47,33.47l0 66.92c0,18.49 -14.98,33.47 -33.47,33.47l-234.22 0c-18.49,0 -33.47,-14.98 -33.47,-33.47l0 -66.92c0,-18.48 14.98,-33.47 33.47,-33.47z"
         class="fil2_1579085767883"
         vector-effect="non-scaling-stroke"
         id="path21" />
      <path
         d="M1648.57 1717.29l234.22 0c18.49,0 33.47,14.98 33.47,33.46l0 66.92c0,18.49 -14.98,33.47 -33.47,33.47l-234.22 0c-18.49,0 -33.47,-14.98 -33.47,-33.47l0 -66.92c0,-18.48 14.98,-33.46 33.47,-33.46z"
         class="fil2_1579085767883"
         vector-effect="non-scaling-stroke"
         id="path23" />
      <polygon
         points="711.64,2118.83 845.49,2118.83 845.49,1778.63 711.64,1778.63"
         class="fil5_1579085767883"
         vector-effect="non-scaling-stroke"
         id="polygon25" />
      <polygon
         points="711.64,710.63 845.49,710.63 845.49,356.5 711.64,356.5"
         class="fil5_1579085767883"
         vector-effect="non-scaling-stroke"
         id="polygon27" />
      <polygon
         points="678.18,1379.89 878.94,1379.89 878.94,953.25 678.18,953.25"
         class="fil5_1579085767883"
         vector-effect="non-scaling-stroke"
         id="polygon29" />
      <path
         d="M1156 1415.46c-0.01,7.63 -0.68,15.24 -2,22.76l-64.92 390.49c-5.46,32.18 -33.28,55.76 -65.91,55.88l-489.21 0c-32.64,-0.12 -60.45,-23.7 -65.92,-55.88l-64.92 -390.49c-6.83,-38.84 3.93,-78.71 29.41,-108.85 25.46,-30.11 62.99,-47.36 102.43,-47.08l487.2 0c73.67,0 133.48,59.51 133.84,133.17z"
         class="fil5_1579085767883"
         vector-effect="non-scaling-stroke"
         id="path31" />
      <path
         d="M1079.72 2085.37c-0.27,36.84 -30.08,66.65 -66.93,66.93l-468.46 0c-36.91,-0.13 -66.81,-30.01 -66.92,-66.93 0.27,-36.85 30.07,-66.66 66.92,-66.92l468.46 0c36.91,0.11 66.81,30.01 66.93,66.92z"
         class="fil6_1579085767883"
         vector-effect="non-scaling-stroke"
         id="path33" />
      <path
         d="M979.33 2085.37c-0.27,36.84 -30.08,66.65 -66.92,66.93l-368.08 0c-36.91,-0.13 -66.81,-30.01 -66.92,-66.93 0.27,-36.85 30.07,-66.66 66.92,-66.92l368.08 0c36.92,0.11 66.82,30.01 66.92,66.92z"
         class="fil0_1579085767883"
         vector-effect="non-scaling-stroke"
         id="path35" />
      <path
         d="M1079.72 1014.6c-0.1,17.75 7.03,34.77 19.74,47.18 3,3.05 6.24,5.85 9.71,8.36 -9.29,26.82 -34.53,44.82 -62.92,44.84l-535.39 0c-28.36,-0.02 -53.63,-18.02 -62.89,-44.84 3.46,-2.51 6.71,-5.31 9.7,-8.36 12.71,-12.41 19.83,-29.43 19.74,-47.18 -0.03,-23.9 -12.78,-45.95 -33.47,-57.9l0 -176.33c0,-92.42 74.92,-167.32 167.31,-167.32l334.62 0c92.4,0 167.31,74.9 167.31,167.32l0 176.33c-20.68,11.95 -33.44,34 -33.46,57.9z"
         class="fil5_1579085767883"
         vector-effect="non-scaling-stroke"
         id="path37" />
      <path
         d="M1055.63 1415.46c-0.03,7.63 -0.69,15.24 -2.01,22.76l-64.91 390.49c-5.47,32.18 -33.29,55.76 -65.93,55.88l-388.82 0c-32.64,-0.12 -60.45,-23.7 -65.92,-55.88l-64.92 -390.49c-6.83,-38.84 3.93,-78.71 29.41,-108.85 25.46,-30.11 62.99,-47.36 102.43,-47.08l386.83 0c73.64,0 133.47,59.51 133.84,133.17z"
         class="fil7_1579085767883"
         vector-effect="non-scaling-stroke"
         id="path39" />
      <path
         d="M979.33 1014.6c-0.09,17.75 7.04,34.77 19.75,47.18 2.99,3.05 6.23,5.85 9.7,8.36 -9.27,26.82 -34.53,44.82 -62.91,44.84l-435.01 0c-28.36,-0.02 -53.63,-18.02 -62.89,-44.84 3.46,-2.51 6.71,-5.31 9.7,-8.36 12.71,-12.41 19.83,-29.43 19.74,-47.18 -0.03,-23.9 -12.78,-45.95 -33.47,-57.9l0 -176.33c0,-92.42 74.92,-167.32 167.31,-167.32l234.24 0c92.39,0 167.3,74.9 167.3,167.32l0 176.33c-20.68,11.95 -33.42,34 -33.46,57.9z"
         class="fil7_1579085767883"
         vector-effect="non-scaling-stroke"
         id="path41" />
      <path
         d="M869.91 479.21l-182.7 0c-19.24,0.06 -37.57,-8.18 -50.31,-22.6 -12.75,-14.39 -18.68,-33.6 -16.27,-52.69l16.72 -133.84c4.32,-33.49 32.83,-58.56 66.59,-58.56l149.24 0c33.76,0 62.27,25.07 66.58,58.56l16.75 133.84c2.4,19.09 -3.53,38.3 -16.27,52.69 -12.76,14.42 -31.08,22.66 -50.33,22.6z"
         class="fil5_1579085767883"
         vector-effect="non-scaling-stroke"
         id="path43" />
      <path
         d="M769.53 479.21l-82.32 0c-19.24,0.06 -37.57,-8.18 -50.31,-22.6 -12.75,-14.39 -18.68,-33.6 -16.27,-52.69l16.72 -133.84c4.32,-33.49 32.83,-58.56 66.59,-58.56l48.86 0c33.76,0 62.27,25.07 66.59,58.56l16.72 133.84c2.41,19.09 -3.52,38.3 -16.26,52.69 -12.75,14.42 -31.08,22.66 -50.32,22.6z"
         class="fil7_1579085767883"
         vector-effect="non-scaling-stroke"
         id="path45" />
      <path
         d="M2150.5 278.44c0.09,17.75 -7.03,34.79 -19.75,47.18 -12.4,12.71 -29.42,19.83 -47.18,19.74l-355.03 0 -29.79 -133.84 384.82 0c36.9,0.1 66.81,30.01 66.93,66.92z"
         class="fil3_1579085767883"
         vector-effect="non-scaling-stroke"
         id="path47" />
      <path
         d="M2050.1 278.44c0.1,17.75 -7.03,34.79 -19.74,47.18 -12.39,12.71 -29.42,19.83 -47.18,19.74l-254.64 0 -29.79 -133.84 284.43 0c36.92,0.1 66.82,30.01 66.92,66.92z"
         class="fil4_1579085767883"
         vector-effect="non-scaling-stroke"
         id="path49" />
      <path
         d="M1748.61 322.94l-20.07 22.42 -189.4 211.48c-2,-7.03 -60.79,20.08 -64.18,13.39l-6.24 -60.68c-10.38,-21.08 14.21,-57.75 -3.87,-70.46l84 -93.73 100.04 -111.75c24.68,-27.54 67,-29.87 94.54,-5.19 27.53,24.67 29.86,66.99 5.18,94.52z"
         class="fil0_1579085767883"
         vector-effect="non-scaling-stroke"
         id="path51" />
      <path
         d="M1490.95 709.09l-0.32 0.34 -52.54 40.82c-11.12,8.56 -25.5,11.69 -39.18,8.52 -13.68,-3.17 -25.21,-12.32 -31.43,-24.92l-2.33 -5.01 -113.1 -228.56c-6.35,-12.53 -6.67,-27.27 -0.89,-40.08 5.79,-12.8 17.06,-22.3 30.66,-25.83l49.19 -13.05 4.69 -1.35 10.37 -3c40.91,-10.75 84.47,-2.65 118.78,22.09 18.6,13.26 33.55,30.97 43.51,51.53l22.42 45.51c3.42,6.65 6.22,13.58 8.36,20.74 17.31,55.83 -1.9,116.53 -48.19,152.25z"
         class="fil3_1579085767883"
         vector-effect="non-scaling-stroke"
         id="path53" />
      <path
         d="M1390.58 709.09l-0.34 0.34 -25.09 19.41 -113.1 -228.56c-6.35,-12.53 -6.67,-27.27 -0.89,-40.08 5.79,-12.8 17.06,-22.3 30.66,-25.83l49.19 -13.05c11.91,4.37 23.18,10.33 33.47,17.74 18.58,13.26 33.53,30.97 43.5,51.53l22.41 45.51c3.41,6.65 6.22,13.58 8.38,20.74 17.29,55.83 -1.92,116.53 -48.19,152.25z"
         class="fil4_1579085767883"
         vector-effect="non-scaling-stroke"
         id="path55" />
      <path
         d="M477.41 1014.6c0.09,17.75 -7.03,34.77 -19.74,47.18 -2.99,3.05 -6.24,5.85 -9.7,8.36 -11.06,7.49 -24.12,11.46 -37.48,11.38l-133.85 0c-36.91,-0.12 -66.81,-30 -66.92,-66.92 -0.11,-17.77 7.03,-34.78 19.74,-47.19 12.4,-12.7 29.43,-19.84 47.18,-19.74l133.85 0c36.96,0 66.92,29.97 66.92,66.93z"
         class="fil6_1579085767883"
         vector-effect="non-scaling-stroke"
         id="path57" />
      <path
         d="M1347.41 1014.6c-0.1,36.92 -30,66.8 -66.92,66.92l-133.84 0c-13.36,0.08 -26.43,-3.89 -37.48,-11.38 -3.47,-2.51 -6.71,-5.31 -9.71,-8.36 -12.71,-12.41 -19.84,-29.43 -19.74,-47.18 0,-36.96 29.97,-66.93 66.93,-66.93l133.84 0c36.84,0.27 66.65,30.08 66.92,66.93z"
         class="fil6_1579085767883"
         vector-effect="non-scaling-stroke"
         id="path59" />
      <path
         d="M377.02 1014.6c0.09,17.75 -7.03,34.77 -19.75,47.18 -2.98,3.05 -6.23,5.85 -9.69,8.36 -11.06,7.49 -24.13,11.46 -37.48,11.38l-33.46 0c-36.91,-0.12 -66.81,-30 -66.92,-66.92 -0.11,-17.77 7.03,-34.78 19.74,-47.19 12.4,-12.7 29.43,-19.84 47.18,-19.74l33.46 0c36.96,0 66.92,29.97 66.92,66.93z"
         class="fil0_1579085767883"
         vector-effect="non-scaling-stroke"
         id="path61" />
      <path
         d="M1247.02 1014.6c-0.1,36.92 -30,66.8 -66.92,66.92l-33.45 0c-13.36,0.08 -26.43,-3.89 -37.48,-11.38 -3.47,-2.51 -6.71,-5.31 -9.71,-8.36 -12.71,-12.41 -19.84,-29.43 -19.74,-47.18 0,-36.96 29.97,-66.93 66.93,-66.93l33.45 0c36.85,0.27 66.65,30.08 66.92,66.93z"
         class="fil0_1579085767883"
         vector-effect="non-scaling-stroke"
         id="path63" />
      <path
         d="M1023.03 1918.06l-488.93 0c-49.12,0.12 -91.08,-35.41 -99.03,-83.89l-65.07 -390.53c-8.08,-48.5 5.58,-98.12 37.36,-135.65 31.8,-37.52 78.49,-59.17 127.67,-59.17l487.07 0c49.19,0 95.87,21.65 127.66,59.17 31.78,37.53 45.46,87.15 37.37,135.65l-65.08 390.53c-7.95,48.48 -49.89,84.01 -99.02,83.89zm-488 -602.31c-29.51,0 -57.51,12.98 -76.58,35.5 -19.07,22.52 -27.28,52.28 -22.43,81.38l65.09 390.54c2.68,16.13 16.63,27.95 32.99,27.97l488.93 0c16.35,0 30.3,-11.83 33,-27.94l65.08 -390.57c4.84,-29.1 -3.35,-58.86 -22.42,-81.38 -19.07,-22.52 -47.09,-35.5 -76.59,-35.5l-487.07 0z"
         class="fil8_1579085767883"
         vector-effect="non-scaling-stroke"
         id="path65" />
      <path
         d="M845.49 2051.9l-133.85 0c-18.48,0 -33.46,-14.98 -33.46,-33.45l0 -133.86c0,-18.47 14.98,-33.45 33.46,-33.45l133.85 0c18.47,0 33.45,14.98 33.45,33.45l0 133.86c0,18.47 -14.98,33.45 -33.45,33.45zm-100.39 -66.92l66.92 0 0 -66.92 -66.92 0 0 66.92z"
         class="fil8_1579085767883"
         vector-effect="non-scaling-stroke"
         id="path67" />
      <path
         d="M1012.79 2185.75l-468.46 0c-55.43,0 -100.39,-44.94 -100.39,-100.38 0,-55.44 44.96,-100.39 100.39,-100.39l468.46 0c55.45,0 100.39,44.95 100.39,100.39 0,55.44 -44.94,100.38 -100.39,100.38zm-468.46 -133.85c-18.49,0 -33.47,14.99 -33.47,33.47 0,18.47 14.98,33.46 33.47,33.46l468.46 0c18.49,0 33.46,-14.99 33.46,-33.46 0,-18.48 -14.97,-33.47 -33.46,-33.47l-468.46 0z"
         class="fil8_1579085767883"
         vector-effect="non-scaling-stroke"
         id="path69" />
      <path
         d="M878.94 1315.75l-200.76 0c-18.48,0 -33.46,-14.99 -33.46,-33.46l0 -133.84c0,-18.49 14.98,-33.47 33.46,-33.47l200.76 0c18.49,0 33.47,14.98 33.47,33.47l0 133.84c0,18.47 -14.98,33.46 -33.47,33.46zm-167.3 -66.93l133.85 0 0 -66.92 -133.85 0 0 66.92z"
         class="fil8_1579085767883"
         vector-effect="non-scaling-stroke"
         id="path71" />
      <path
         d="M1046.25 1148.45l-535.39 0c-42.63,-0.03 -80.58,-27.07 -94.52,-67.37 -5.9,-17.42 3.37,-36.34 20.76,-42.36 17.38,-6 36.36,3.15 42.48,20.49 4.61,13.32 17.17,22.28 31.28,22.31l535.39 0c14.13,-0.03 26.67,-8.99 31.3,-22.31 3.84,-11.38 13.49,-19.83 25.27,-22.12 11.8,-2.3 23.92,1.88 31.76,10.98 7.84,9.1 10.21,21.69 6.2,33.01 -13.94,40.3 -51.88,67.34 -94.53,67.37z"
         class="fil8_1579085767883"
         vector-effect="non-scaling-stroke"
         id="path73" />
      <path
         d="M1113.18 990.17c-18.47,0 -33.46,-14.98 -33.46,-33.47l0 -176.33c0,-73.93 -59.93,-133.85 -133.85,-133.85l-334.62 0c-73.92,0 -133.84,59.92 -133.84,133.85l0 176.33c0,18.49 -14.98,33.47 -33.47,33.47 -18.47,0 -33.45,-14.98 -33.45,-33.47l0 -176.33c0.11,-110.84 89.93,-200.66 200.76,-200.77l334.62 0c110.83,0.11 200.66,89.93 200.78,200.77l0 176.33c0,18.49 -14.99,33.47 -33.47,33.47z"
         class="fil8_1579085767883"
         vector-effect="non-scaling-stroke"
         id="path75" />
      <path
         d="M870.05 512.68l-182.97 0c-28.8,0 -56.2,-12.36 -75.26,-33.96 -19.05,-21.58 -27.92,-50.3 -24.36,-78.89l16.73 -133.84c6.28,-50.24 48.99,-87.94 99.61,-87.94l149.52 0c50.62,0 93.33,37.7 99.61,87.94l16.74 133.84c3.57,28.59 -5.3,57.31 -24.37,78.89 -19.05,21.6 -46.46,33.96 -75.25,33.96zm-166.25 -267.71c-16.88,0 -31.12,12.56 -33.22,29.32l-16.73 133.85c-1.19,9.52 1.76,19.11 8.12,26.29 6.37,7.2 15.5,11.33 25.11,11.31l182.97 0c9.6,0.02 18.74,-4.11 25.1,-11.31 6.36,-7.18 9.31,-16.77 8.12,-26.29l-16.73 -133.85c-2.08,-16.76 -16.34,-29.32 -33.22,-29.32l-149.52 0z"
         class="fil8_1579085767883"
         vector-effect="non-scaling-stroke"
         id="path77" />
      <path
         d="M410.49 1114.98l-133.85 0c-55.45,0 -100.39,-44.94 -100.39,-100.38 0,-55.45 44.94,-100.39 100.39,-100.39l133.85 0c55.43,0 100.37,44.94 100.37,100.39 0,55.44 -44.94,100.38 -100.37,100.38zm-133.85 -133.85c-18.48,0 -33.47,14.98 -33.47,33.47 0,18.47 14.99,33.45 33.47,33.45l133.85 0c18.47,0 33.45,-14.98 33.45,-33.45 0,-18.49 -14.98,-33.47 -33.45,-33.47l-133.85 0z"
         class="fil8_1579085767883"
         vector-effect="non-scaling-stroke"
         id="path79" />
      <path
         d="M401.15 1448.93c-1.62,0 -3.23,-0.11 -4.82,-0.34 -49.33,-7.31 -85.96,-49.5 -86.23,-99.38l0 -267.69c0,-18.48 14.98,-33.47 33.46,-33.47 18.48,0 33.46,14.99 33.46,33.47l0 267.69c0.12,16.65 12.37,30.71 28.84,33.13 17.39,2.47 29.9,17.97 28.66,35.49 -1.24,17.51 -15.81,31.1 -33.37,31.1z"
         class="fil8_1579085767883"
         vector-effect="non-scaling-stroke"
         id="path81" />
      <path
         d="M1280.49 1114.98l-133.84 0c-55.45,0 -100.4,-44.94 -100.4,-100.38 0,-55.45 44.95,-100.39 100.4,-100.39l133.84 0c55.43,0 100.38,44.94 100.38,100.39 0,55.44 -44.95,100.38 -100.38,100.38zm-133.84 -133.85c-18.49,0 -33.47,14.98 -33.47,33.47 0,18.47 14.98,33.45 33.47,33.45l133.84 0c18.47,0 33.46,-14.98 33.46,-33.45 0,-18.49 -14.99,-33.47 -33.46,-33.47l-133.84 0z"
         class="fil8_1579085767883"
         vector-effect="non-scaling-stroke"
         id="path83" />
      <path
         d="M1155.98 1448.93c-17.56,0 -32.14,-13.59 -33.38,-31.1 -1.24,-17.52 11.27,-33.02 28.66,-35.49 16.46,-2.42 28.72,-16.48 28.84,-33.13l0 -267.69c0,-18.48 14.98,-33.47 33.47,-33.47 18.47,0 33.45,14.99 33.45,33.47l0 267.69c-0.27,49.88 -36.9,92.07 -86.22,99.38 -1.61,0.23 -3.21,0.34 -4.82,0.34z"
         class="fil8_1579085767883"
         vector-effect="non-scaling-stroke"
         id="path85" />
      <path
         d="M845.49 646.52l-133.85 0c-18.48,0 -33.46,-14.98 -33.46,-33.47l0 -133.84c0,-18.47 14.98,-33.47 33.46,-33.47l133.85 0c18.47,0 33.45,15 33.45,33.47l0 133.84c0,18.49 -14.98,33.47 -33.45,33.47zm-100.39 -66.92l66.92 0 0 -66.92 -66.92 0 0 66.92z"
         class="fil8_1579085767883"
         vector-effect="non-scaling-stroke"
         id="path87" />
      <path
         d="M2083.57 2185.75l-535.39 0c-55.43,0 -100.39,-44.94 -100.39,-100.38l0 -702.7c0,-55.44 44.96,-100.38 100.39,-100.38l535.39 0c55.44,0 100.38,44.94 100.38,100.38l0 702.7c0,55.44 -44.94,100.38 -100.38,100.38zm-535.39 -836.54c-18.49,0 -33.47,14.98 -33.47,33.46l0 702.7c0,18.47 14.98,33.46 33.47,33.46l535.39 0c18.48,0 33.46,-14.99 33.46,-33.46l0 -702.7c0,-18.48 -14.98,-33.46 -33.46,-33.46l-535.39 0z"
         class="fil8_1579085767883"
         vector-effect="non-scaling-stroke"
         id="path89" />
      <path
         d="M1615.1 1349.21c-74.39,0.17 -139.31,-50.47 -157.26,-122.67l-32.2 -128.8c-4.99,-20 -0.49,-41.2 12.21,-57.45 12.7,-16.24 32.18,-25.72 52.81,-25.69l248.88 0c20.6,-0.01 40.07,9.48 52.76,25.72 12.68,16.22 17.18,37.41 12.2,57.39l-32.22 128.83c-17.95,72.17 -82.81,122.79 -157.18,122.67zm-124.51 -267.69l32.16 128.79c10.57,42.37 48.68,72.07 92.35,71.98 43.63,0.03 81.66,-29.66 92.23,-71.98l32.26 -128.79 -249 0z"
         class="fil8_1579085767883"
         vector-effect="non-scaling-stroke"
         id="path91" />
      <path
         d="M1882.79 1349.21c-18.47,0 -33.45,-14.98 -33.45,-33.46l0 -401.54c0,-18.49 -14.98,-33.47 -33.47,-33.47l-100.38 0c-18.49,0 -33.46,14.98 -33.46,33.47 0,18.47 -14.98,33.46 -33.46,33.46 -18.49,0 -33.47,-14.99 -33.47,-33.46 0,-55.43 44.95,-100.39 100.39,-100.39l100.38 0c55.45,0 100.39,44.96 100.39,100.39l0 401.54c0,18.48 -14.98,33.46 -33.47,33.46z"
         class="fil8_1579085767883"
         vector-effect="non-scaling-stroke"
         id="path93" />
      <path
         d="M2150.5 1351.89l-133.86 0c-18.48,0 -33.46,-14.98 -33.46,-33.47l0 -973.06c0,-18.49 14.98,-33.46 33.46,-33.46 18.49,0 33.46,14.97 33.46,33.46l0 939.61 66.93 0 0 -1006.53c0,-18.49 -14.98,-33.47 -33.46,-33.47l-66.93 0c-18.48,0 -33.46,-14.98 -33.46,-33.45 0,-18.49 14.98,-33.47 33.46,-33.47l66.93 0c55.44,0 100.38,44.94 100.38,100.39l0 1039.98c0,18.49 -14.98,33.47 -33.45,33.47z"
         class="fil8_1579085767883"
         vector-effect="non-scaling-stroke"
         id="path95" />
      <path
         d="M2083.57 378.82l-355.03 0c-18.49,0 -33.46,-14.98 -33.46,-33.46 0,-18.49 14.97,-33.46 33.46,-33.46l355.03 0c8.74,0.09 17.11,-3.39 23.23,-9.64 6.54,-6.19 10.25,-14.81 10.23,-23.82 0,-18.49 -14.98,-33.47 -33.46,-33.47l-384.82 0c-18.47,0 -33.45,-14.98 -33.45,-33.45 0,-18.49 14.98,-33.47 33.45,-33.47l384.82 0c55.44,0 100.38,44.94 100.38,100.39 0.17,26.79 -10.63,52.49 -29.88,71.13 -18.57,18.89 -44.01,29.45 -70.5,29.25z"
         class="fil8_1579085767883"
         vector-effect="non-scaling-stroke"
         id="path97" />
      <path
         d="M1539.14 590.31c-2.49,0 -4.99,-0.29 -7.43,-0.88 -11.88,-2.72 -21.33,-11.7 -24.69,-23.42 -1.61,-5.21 -3.66,-10.26 -6.15,-15.1l-22.52 -45.63c-7.51,-15.52 -18.77,-28.92 -32.77,-38.98 -7.81,-5.52 -12.88,-14.1 -13.95,-23.59 -1.09,-9.5 1.96,-19 8.33,-26.1l184.21 -205.09c19,-21.23 46.11,-33.39 74.58,-33.47 39.72,-0.32 75.79,23.07 91.69,59.46 16.44,36.12 9.75,78.55 -17,107.85l-209.33 233.76c-6.35,7.11 -15.42,11.19 -24.97,11.19zm-27.14 -153.73c10.52,11.84 19.39,25.06 26.38,39.29l10.03 20.51 175.17 -195.59c8.83,-9.82 11.05,-23.9 5.69,-35.95 -5.37,-12.05 -17.31,-19.84 -30.52,-19.87 -9.48,0.02 -18.52,4.06 -24.86,11.12l-161.89 180.49z"
         class="fil8_1579085767883"
         vector-effect="non-scaling-stroke"
         id="path99" />
      <path
         d="M1409.62 793.45c-30.65,0.04 -58.65,-17.31 -72.26,-44.77l-115.39 -233.57c-10.8,-21.52 -11.31,-46.78 -1.39,-68.71 9.93,-21.95 29.21,-38.25 52.51,-44.36l64.27 -17.36c50.69,-13.51 104.74,-3.52 147.24,27.21 22.97,16.53 41.45,38.51 53.78,63.98l22.45 45.54c4.29,8.41 7.8,17.2 10.47,26.27 21.01,69.18 -2.98,144.15 -60.23,188.31l-52.47 40.7c-14.01,10.86 -31.24,16.76 -48.98,16.76zm-27.51 -347.71c-9.29,0 -18.54,1.21 -27.51,3.58l-64.08 17.34c-3.98,0.98 -7.3,3.73 -9,7.46 -1.58,3.54 -1.47,7.6 0.3,11.04l115.79 233.88c1.79,3.61 5.11,6.23 9.07,7.12 3.88,0.93 7.98,0.04 11.13,-2.41l52.43 -40.76c35.25,-27.28 49.91,-73.54 36.81,-116.15 -1.62,-5.41 -3.73,-10.66 -6.32,-15.69l-22.52 -45.64c-7.51,-15.52 -18.76,-28.92 -32.76,-38.99 -18.4,-13.4 -40.57,-20.67 -63.34,-20.78z"
         class="fil8_1579085767883"
         vector-effect="non-scaling-stroke"
         id="path101" />
      <path
         d="M1983.18 1616.9l-334.61 0c-36.96,0 -66.92,-29.96 -66.92,-66.92l0 -66.92c0,-36.96 29.96,-66.93 66.92,-66.93l334.61 0c36.97,0 66.92,29.97 66.92,66.93l0 66.92c0,36.96 -29.95,66.92 -66.92,66.92zm-334.61 -133.84l0 66.92 334.61 0 0 -66.92 -334.61 0z"
         class="fil8_1579085767883"
         vector-effect="non-scaling-stroke"
         id="path103" />
      <path
         d="M1983.18 1884.59l-334.61 0c-36.96,0 -66.92,-29.96 -66.92,-66.92l0 -66.92c0,-36.96 29.96,-66.93 66.92,-66.93l334.61 0c36.97,0 66.92,29.97 66.92,66.93l0 66.92c0,36.96 -29.95,66.92 -66.92,66.92zm-334.61 -133.84l0 66.92 334.61 0 0 -66.92 -334.61 0z"
         class="fil8_1579085767883"
         vector-effect="non-scaling-stroke"
         id="path105" />
      <path
         d="M1347.41 512.68c-15.9,-0.02 -29.57,-11.21 -32.76,-26.78l-28.11 -140.54 -106.44 0c-18.47,0 -33.45,-14.98 -33.45,-33.46 0,-18.48 14.98,-33.46 33.45,-33.46l133.85 0c15.9,0 29.61,11.18 32.79,26.76l33.47 167.32c1.77,8.69 0.01,17.75 -4.87,25.15 -4.9,7.4 -12.53,12.56 -21.23,14.33 -2.21,0.46 -4.45,0.68 -6.7,0.68z"
         class="fil8_1579085767883"
         vector-effect="non-scaling-stroke"
         id="path107" />
      <path
         d="M1447.79 914.21c-13.53,0 -25.72,-8.15 -30.89,-20.66 -5.18,-12.5 -2.33,-26.89 7.24,-36.46l75.22 -75.25 -79.4 -119.16c-9.87,-15.36 -5.59,-35.8 9.6,-45.92 15.2,-10.11 35.69,-6.2 46.08,8.81l94.63 141.97c8.82,13.27 7.08,30.93 -4.18,42.21l-94.63 94.66c-6.29,6.28 -14.79,9.8 -23.67,9.8z"
         class="fil8_1579085767883"
         vector-effect="non-scaling-stroke"
         id="path109" />
    </g>
  </g>
</svg>