<?xml version="1.0" encoding="UTF-8" standalone="no"?>
<svg
   xmlns:dc="http://purl.org/dc/elements/1.1/"
   xmlns:cc="http://creativecommons.org/ns#"
   xmlns:rdf="http://www.w3.org/1999/02/22-rdf-syntax-ns#"
   xmlns:svg="http://www.w3.org/2000/svg"
   xmlns="http://www.w3.org/2000/svg"
   xmlns:sodipodi="http://sodipodi.sourceforge.net/DTD/sodipodi-0.dtd"
   xmlns:inkscape="http://www.inkscape.org/namespaces/inkscape"
   version="1.2"
   preserveAspectRatio="none"
   viewBox="0 0 2362 2362"
   class="ng-element"
   data-id="534bb5db9daf4d089e275e9e276f4c05"
   style="opacity: 1; mix-blend-mode: normal; overflow: visible; width: 120px; height: 120px"
   id="svg71"
   sodipodi:docname="3.svg"
   inkscape:version="0.92.3 (2405546, 2018-03-11)">
  <metadata
     id="metadata75">
    <rdf:RDF>
      <cc:Work
         rdf:about="">
        <dc:format>image/svg+xml</dc:format>
        <dc:type
           rdf:resource="http://purl.org/dc/dcmitype/StillImage" />
        <dc:title></dc:title>
      </cc:Work>
    </rdf:RDF>
  </metadata>
  <sodipodi:namedview
     pagecolor="#ffffff"
     bordercolor="#666666"
     borderopacity="1"
     objecttolerance="10"
     gridtolerance="10"
     guidetolerance="10"
     inkscape:pageopacity="0"
     inkscape:pageshadow="2"
     inkscape:window-width="828"
     inkscape:window-height="480"
     id="namedview73"
     showgrid="false"
     inkscape:zoom="0.099915326"
     inkscape:cx="1181"
     inkscape:cy="1181"
     inkscape:window-x="0"
     inkscape:window-y="27"
     inkscape:window-maximized="0"
     inkscape:current-layer="svg71" />
  <defs
     id="defs4">
    <style
       type="text/css"
       id="style2">

        .fil7_1579085767957 {fill:#71CAF0;fill-rule:nonzero}
        .fil1_1579085767957 {fill:#914C2A;fill-rule:nonzero}
        .fil0_1579085767957 {fill:#AB5A32;fill-rule:nonzero}
        .fil9_1579085767957 {fill:#B31E52;fill-rule:nonzero}
        .fil5_1579085767957 {fill:#E1005C;fill-rule:nonzero}
        .fil3_1579085767957 {fill:#F5CBA1;fill-rule:nonzero}
        .fil2_1579085767957 {fill:#FCE0B9;fill-rule:nonzero}
        .fil10_1579085767957 {fill:black;fill-rule:nonzero}
        .fil4_1579085767957 {fill:#C1C1C1;fill-rule:nonzero}
        .fil8_1579085767957 {fill:#ECECED;fill-rule:nonzero}
        .fil6_1579085767957 {fill:white;fill-rule:nonzero}

    </style>
  </defs>
  <g
     id="Слой_x0020_1_1579085767957">
    <metadata
       id="CorelCorpID_0Corel-Layer_1579085767957"
       vector-effect="non-scaling-stroke" />
    <g
       id="_1579085767957">
      <path
         d="M1509.92 204.55c148.9,0 269.61,120.72 269.61,269.62l0 259.63c0,227.54 57.99,451.37 168.51,650.31l-118.56 -86.25c-98.44,-71.58 -186.33,-156.03 -261.48,-250.77l-260.29 -751.24c49.37,-55.97 121.67,-91.3 202.21,-91.3z"
         class="fil0_1579085767957"
         vector-effect="non-scaling-stroke"
         id="path7" />
      <path
         d="M1307.71 295.85c17.87,-20.23 38.79,-37.65 61.92,-51.8 177,30.93 308.8,191.89 308.8,377.23l0 358.41c0,55.25 -12.4,107.51 -34.09,154.59 -26.58,-28.1 -52.36,-56.93 -76.38,-87.19l-260.25 -751.24z"
         class="fil1_1579085767957"
         vector-effect="non-scaling-stroke"
         id="path9" />
      <path
         d="M1287.04 544.91c33.31,135.81 129.83,246.59 256.54,299.64l0 156.53c0,204.14 -159.67,379.21 -363.76,382.96 -207.87,3.8 -377.63,-163.59 -377.63,-370.65l0 -134.81 33.7 0c212.48,0 392.09,-140.53 451.15,-333.67z"
         class="fil2_1579085767957"
         vector-effect="non-scaling-stroke"
         id="path11" />
      <path
         d="M1172.91 271.96c241.96,0 438.12,196.15 438.12,438.12l0 168.5 -67.41 0 0 -33.7c0,-0.11 0,-0.24 0,-0.33 -126.71,-53.1 -223.27,-163.83 -256.53,-299.64 -59.11,193.14 -238.72,333.67 -451.2,333.67l-101.1 0 0 -168.5c0,-241.97 196.15,-438.12 438.12,-438.12z"
         class="fil1_1579085767957"
         vector-effect="non-scaling-stroke"
         id="path13" />
      <path
         d="M1172.91 474.17c204.65,0 370.52,165.81 370.71,370.38 -126.71,-53.1 -223.27,-163.83 -256.53,-299.64 -59.11,193.14 -238.72,333.67 -451.2,333.67l-33.7 0c0,-100.84 31.88,-194.04 85.77,-270.75 68.02,-81.62 170.39,-133.66 284.95,-133.66z"
         class="fil0_1579085767957"
         vector-effect="non-scaling-stroke"
         id="path15" />
      <path
         d="M1326.69 1350.41c-46.89,21.43 -98.84,33.7 -153.78,33.7 -54.94,0 -106.9,-12.27 -153.79,-33.7l-14.72 0 0 140.83 168.51 202.21 168.51 -202.21 0 -140.83 -14.73 0z"
         class="fil2_1579085767957"
         vector-effect="non-scaling-stroke"
         id="path17" />
      <path
         d="M1004.4 1444.42l0 -94.01 14.72 0c46.89,21.43 98.85,33.7 153.79,33.7 54.94,0 106.89,-12.27 153.78,-33.7l14.73 0 0 94.01c-50.6,25.89 -107.78,40.79 -168.51,40.79 -60.73,0 -117.91,-14.9 -168.51,-40.79z"
         class="fil3_1579085767957"
         vector-effect="non-scaling-stroke"
         id="path19" />
      <path
         d="M1594.18 878.58c46.53,0 84.25,37.72 84.25,84.26 0,46.53 -37.72,84.25 -84.25,84.25l-50.56 0 0 -168.51 50.56 0z"
         class="fil2_1579085767957"
         vector-effect="non-scaling-stroke"
         id="path21" />
      <path
         d="M751.64 878.58l50.55 0 0 168.51 -50.55 0c-46.54,0 -84.26,-37.72 -84.26,-84.25 0,-46.54 37.72,-84.26 84.26,-84.26z"
         class="fil2_1579085767957"
         vector-effect="non-scaling-stroke"
         id="path23" />
      <path
         d="M1172.91 271.96c241.96,0 438.12,196.15 438.12,438.12l0 67.4c0,-241.97 -196.16,-438.12 -438.12,-438.12 -241.97,0 -438.12,196.15 -438.12,438.12l0 -67.4c0,-241.97 196.15,-438.12 438.12,-438.12z"
         class="fil0_1579085767957"
         vector-effect="non-scaling-stroke"
         id="path25" />
      <path
         d="M835.89 878.58c196.01,0 363.74,-119.66 435.03,-289.79 11.52,3.16 22.82,6.84 33.86,11.05 40.98,104.69 121.15,189.14 222.33,236.62 10.66,34.51 16.45,71.18 16.47,109.2 -126.71,-53.1 -223.27,-163.84 -256.54,-299.65 -59.06,193.14 -238.67,333.68 -451.15,333.68l-33.7 0c0,-34.76 4.04,-68.52 11.21,-101.11l22.49 0z"
         class="fil3_1579085767957"
         vector-effect="non-scaling-stroke"
         id="path27" />
      <path
         d="M498.88 1215.6c0,-37.24 30.17,-67.4 67.4,-67.4l0 -134.81 -134.81 0 0 134.81c37.24,0 67.41,30.16 67.41,67.4z"
         class="fil4_1579085767957"
         vector-effect="non-scaling-stroke"
         id="path29" />
      <path
         d="M1004.4 1423.84l-133.03 96.76c0,0 31.97,206.55 99.33,307.66l202.21 -134.81 -168.51 -202.21 0 -67.4z"
         class="fil5_1579085767957"
         vector-effect="non-scaling-stroke"
         id="path31" />
      <path
         d="M1476.22 1521.92l-134.8 -98.12 0 67.4 -168.51 202.21 202.21 134.8c67.4,-101.06 101.1,-306.29 101.1,-306.29z"
         class="fil5_1579085767957"
         vector-effect="non-scaling-stroke"
         id="path33" />
      <path
         d="M498.88 1215.6c0,37.23 -30.17,67.4 -67.41,67.4l0 235.91c0,37.24 30.17,67.41 67.41,67.41 37.23,0 67.4,-30.17 67.4,-67.41l0 -235.91c-37.23,0 -67.4,-30.17 -67.4,-67.4z"
         class="fil4_1579085767957"
         vector-effect="non-scaling-stroke"
         id="path35" />
      <path
         d="M1678.43 1889.63c-35.76,-42.61 -59.81,-161.29 -65.89,-193.85 -1.03,-5.53 -1.51,-10.99 -1.51,-16.61l0 -20.91c0,-24.49 9.74,-47.98 27.05,-65.29 8.36,-8.37 18.3,-14.14 28.79,-18.66 -55.73,-33.08 -120.81,-52.37 -190.6,-52.37 0,0 -33.7,205.21 -101.11,306.32l-202.21 -134.81 0 465.79 572.93 0c-0.05,0 -10.86,-202.21 -67.45,-269.61z"
         class="fil5_1579085767957"
         vector-effect="non-scaling-stroke"
         id="path37" />
      <path
         d="M1179.84 1384.04c164.89,-3.03 300.66,-117.93 346.8,-269.54l-710.1 0c44.67,157.64 190.65,272.7 363.3,269.54z"
         class="fil6_1579085767957"
         vector-effect="non-scaling-stroke"
         id="path39" />
      <path
         d="M498.88 1215.6c0,37.23 30.17,67.4 67.4,67.4l33.7 0c37.24,0 67.4,-30.17 67.4,-67.4 0,-37.24 -30.16,-67.4 -67.4,-67.4l-33.7 0c-37.23,0 -67.4,30.16 -67.4,67.4z"
         class="fil6_1579085767957"
         vector-effect="non-scaling-stroke"
         id="path41" />
      <path
         d="M2123.22 1592.99c-24.73,-24.73 -61.31,-33.38 -94.5,-22.32l-118.86 39.65c-18.95,6.3 -39.42,6.3 -58.4,0l-118.88 -39.65c-21.96,-7.3 -45.17,-5.24 -65.71,3.64 -10.45,4.57 -20.43,10.31 -28.79,18.66 -17.31,17.31 -27.05,40.8 -27.05,65.29l0 20.91c0,5.62 0.48,11.08 1.51,16.61 6.08,32.56 30.13,151.24 65.89,193.85 56.59,67.4 67.4,269.61 67.4,269.61l104.69 -209.32c12.44,-24.84 47.85,-24.84 60.29,0l104.63 209.32c0,0 12.03,-205.81 67.41,-269.61 36.57,-42.13 60.16,-161.84 65.98,-194.12 0.98,-5.37 1.42,-10.66 1.42,-16.08l0 -21.17c0,-24.49 -9.74,-47.98 -27.03,-65.27z"
         class="fil6_1579085767957"
         vector-effect="non-scaling-stroke"
         id="path43" />
      <path
         d="M633.68 541.57c0,74.44 -60.36,134.81 -134.8,134.81 -74.45,0 -134.81,-60.37 -134.81,-134.81 0,-74.45 60.36,-134.81 134.81,-134.81 74.44,0 134.8,60.36 134.8,134.81z"
         class="fil7_1579085767957"
         vector-effect="non-scaling-stroke"
         id="path45" />
      <path
         d="M1745.83 1842.61c-35.76,-42.59 -59.8,-161.29 -65.88,-193.85 -1.04,-5.53 -1.52,-10.99 -1.52,-16.61l0 -20.89c0,-15.38 4.21,-30.15 11.32,-43.42 -7.85,1.32 -15.58,3.27 -22.9,6.47 -10.47,4.57 -20.43,10.31 -28.79,18.66 -17.29,17.31 -27.03,40.8 -27.03,65.29l0 20.91c0,5.62 0.48,11.08 1.51,16.61 6.08,32.56 30.13,151.24 65.89,193.85 56.59,67.4 67.4,269.61 67.4,269.61l60.19 -120.41c-8.43,-64.88 -25.85,-155.3 -60.19,-196.22z"
         class="fil8_1579085767957"
         vector-effect="non-scaling-stroke"
         id="path47" />
      <path
         d="M1978.17 1902.9c-12.45,-24.84 -47.86,-24.84 -60.3,0l-17.5 35.06c4.12,2.99 7.8,6.81 10.39,11.96l104.68 209.32c0,0 4.28,-71.73 19.11,-143.6l-56.38 -112.74z"
         class="fil8_1579085767957"
         vector-effect="non-scaling-stroke"
         id="path49" />
      <path
         d="M431.47 1148.2l-120.41 0c-61.12,0 -108.32,53.86 -100.22,114.44l43.13 323.68 177.5 0 0 -303.32c37.24,0 67.41,-30.17 67.41,-67.4 0,-37.24 -30.17,-67.4 -67.41,-67.4z"
         class="fil6_1579085767957"
         vector-effect="non-scaling-stroke"
         id="path51" />
      <path
         d="M970.7 1828.26c-67.4,-101.11 -99.33,-307.66 -99.33,-307.66l0.51 -0.37 -2.29 -1.32 -67.4 0c-111.68,0 -202.21,90.53 -202.21,202.21l0 126.45 -101.1 -261.25 -244.58 0 0.42 1.11 -0.75 -1.11 76.4 572.92 842.54 0 0 -465.79 -202.21 134.81z"
         class="fil5_1579085767957"
         vector-effect="non-scaling-stroke"
         id="path53" />
      <path
         d="M1172.91 1693.45l-202.21 134.81c-67.4,-101.11 -99.33,-307.66 -99.33,-307.66l0.51 -0.37 -2.29 -1.32 -65.47 0c18.39,95.05 64.46,297.92 140.47,411.95l228.32 -152.21 0 -85.2z"
         class="fil9_1579085767957"
         vector-effect="non-scaling-stroke"
         id="path55" />
      <path
         d="M1172.91 1785.45l229.81 153.22c75.08,-112.67 122.98,-308.41 143.98,-409.25 -22.89,-4.41 -46.26,-7.5 -70.48,-7.5 0,0 -33.7,205.19 -101.1,306.29l-202.21 -134.8 0 92.04z"
         class="fil9_1579085767957"
         vector-effect="non-scaling-stroke"
         id="path57" />
      <polygon
         points="537.4,474.17 444.73,564.76 444.73,593.02 537.4,500.34"
         class="fil6_1579085767957"
         vector-effect="non-scaling-stroke"
         id="polygon59" />
      <polygon
         points="566.28,507.87 473.6,598.46 473.6,626.72 566.28,534.04"
         class="fil6_1579085767957"
         vector-effect="non-scaling-stroke"
         id="polygon61" />
      <path
         d="M1341.42 1038.67c-32.52,0 -58.98,-26.47 -58.98,-58.98 0,-32.52 26.46,-58.98 58.98,-58.98 32.51,0 58.97,26.46 58.97,58.98 0,32.51 -26.46,58.98 -58.97,58.98zm0 -67.41c-4.65,0 -8.43,3.78 -8.43,8.43 0,9.26 16.85,9.26 16.85,0 0,-4.65 -3.77,-8.43 -8.42,-8.43z"
         class="fil10_1579085767957"
         vector-effect="non-scaling-stroke"
         id="path63" />
      <path
         d="M1004.4 1038.67c-32.52,0 -58.98,-26.47 -58.98,-58.98 0,-32.52 26.46,-58.98 58.98,-58.98 32.52,0 58.98,26.46 58.98,58.98 0,32.51 -26.46,58.98 -58.98,58.98zm0 -67.41c-4.65,0 -8.43,3.78 -8.43,8.43 0,9.26 16.86,9.26 16.86,0 0,-4.65 -3.78,-8.43 -8.43,-8.43z"
         class="fil10_1579085767957"
         vector-effect="non-scaling-stroke"
         id="path65" />
      <path
         d="M2018.03 1538.7l-118.85 39.63c-12.11,4.02 -24.95,4.02 -37.08,0l-118.86 -39.63c-24.94,-8.36 -50.92,-8.36 -74.95,-1.36 -55.57,-29.79 -117.07,-46.42 -180,-48.31l-113.17 -82.34 0 -45.49c94.56,-56.94 164.87,-152.21 190.88,-264.43 71.86,85.63 153.28,162.67 243.66,228.4l118.59 86.23c5.9,4.28 12.86,6.41 19.79,6.41 7.99,0 16.02,-2.88 22.34,-8.47 11.85,-10.51 14.76,-27.76 7.11,-41.58 -107.43,-193.46 -164.25,-412.65 -164.25,-633.96l0 -259.63c0,-167.26 -136.06,-303.32 -303.32,-303.32 -78.76,0 -153.98,30.94 -210.3,85.2 -40.37,-11.3 -82.76,-17.8 -126.71,-17.8 -260.18,0 -471.82,211.65 -471.82,471.83l0 146.63c-39.69,19 -67.41,59.24 -67.41,106.13 0,65.03 52.93,117.95 117.96,117.95l22.84 0c13.96,83.62 53.36,160.52 115.12,221.19 24.64,24.21 52,44.45 81.1,61.33l0 43.35 -107.97 78.55 -60.54 0c-116.07,0 -212.63,84.38 -232.09,194.97l-26.64 -70.98c33.33,-16.54 56.52,-50.62 56.52,-90.29l0 -202.21c55.76,0 101.11,-45.35 101.11,-101.1 0,-55.75 -45.35,-101.1 -101.11,-101.1l0 -101.11c0,-18.63 -15.07,-33.7 -33.7,-33.7l-33.7 0 0 -273.01c76.82,-15.67 134.8,-83.73 134.8,-165.11 0,-92.92 -75.58,-168.51 -168.5,-168.51 -92.92,0 -168.51,75.59 -168.51,168.51 0,81.35 57.99,149.44 134.81,165.11l0 273.01 -33.71 0c-18.62,0 -33.7,15.07 -33.7,33.7l0 101.11 -86.71 0c-38.85,0 -75.87,16.78 -101.43,46 -25.63,29.25 -37.32,68.11 -32.19,106.59l119.54 896.61c2.21,16.73 16.5,29.24 33.39,29.24l1415.46 0 0 -0.44c12.47,0 24.38,-6.6 30.17,-18.18l104.64 -209.35 104.64 209.35c5.79,11.58 17.6,18.62 30.16,18.62 2.23,0 4.53,-0.24 6.79,-0.7 14.91,-3.07 25.97,-15.82 26.85,-31.04 4.45,-75.2 24.44,-209.44 59.22,-249.5 40.77,-46.98 65.14,-162.65 73.7,-210.09 1.32,-7.39 1.95,-14.67 1.95,-22.18l0 -21.17c0,-33.15 -13.45,-65.65 -36.92,-89.13 -33.99,-33.98 -83.4,-45.67 -129,-30.43zm-1620.26 -997.13c0,-55.75 45.35,-101.11 101.11,-101.11 55.75,0 101.1,45.36 101.1,101.11 0,55.75 -45.35,101.1 -101.1,101.1 -55.76,0 -101.11,-45.35 -101.11,-101.1zm1181.64 1160.37c8.8,47.18 33.5,162.04 73.24,209.37 30.67,36.55 49.48,139.08 56.79,214.23l-98.41 0 0 -168.51 -67.41 0 0 168.51 -337.01 0 0 -369.14 149.81 99.9c15.54,10.27 36.38,6.12 46.74,-9.35 55.46,-83.22 88.42,-227.2 100.73,-289.44 34.53,2.85 68.45,10.53 100.56,23.65 -17.07,21.96 -27.12,49.1 -27.12,77.1l0 20.91c0,7.75 0.67,15.29 2.08,22.77zm-140.16 -165.28c-9.04,46.82 -34.45,164.45 -75.19,243.68l-141.23 -94.17 144.47 -173.4c5.05,-5.99 7.82,-13.65 7.82,-21.53l0 -1.2 64.13 46.62zm-603.36 -523.27l0 -101.1c192.71,0 363.5,-106.57 449.01,-272.77 46.03,98.42 125.76,178.88 225.02,226.3l0 135.26c0,27.45 -3.44,54.04 -9.32,79.71l-658 0c-4.43,-21.94 -6.71,-44.49 -6.71,-67.4zm1.28 -168.51c5.96,-78.11 32.55,-152.49 76.68,-215.48 64.33,-77.25 158.72,-121.53 259.06,-121.53 31.55,0 62.07,4.34 91.05,12.51 -4.16,3.9 -7.37,8.92 -9.12,14.7 -56.54,184.87 -224.33,309.23 -417.67,309.8zm484 -302.61c95.13,46.85 165.17,137.24 183.79,245.06 -90.28,-54.24 -157.11,-142.4 -183.79,-245.06zm273.01 370.02c27.86,0 50.55,22.68 50.55,50.55 0,27.86 -22.69,50.55 -50.55,50.55l-17.47 0c0.13,-4.1 0.62,-8.16 0.62,-12.31l0 -88.79 16.85 0zm-84.26 -674.04c130.05,0 235.91,105.87 235.91,235.92l0 259.63c0,186.71 38.47,372.03 112.03,543.03l-8.6 -6.23c-78.9,-57.39 -150.67,-123.9 -214.84,-197.36 45.2,-16.52 77.71,-59.54 77.71,-110.4 0,-46.89 -27.71,-87.13 -67.4,-106.13l0 -146.63c0,-188.96 -111.92,-351.88 -272.71,-427.13 39.83,-28.72 87.99,-44.7 137.9,-44.7zm-337.01 67.41c223.01,0 404.42,181.41 404.42,404.42l0 134.8 -0.07 0c0,-0.13 0.02,-0.24 0.02,-0.37 -0.15,-222.77 -181.58,-404.05 -404.37,-404.05 -120.39,0 -233.69,53.15 -312.51,148.02 -53.6,76.27 -84.5,164.34 -90.6,256.4l-1.31 0 0 -134.8c0,-223.01 181.41,-404.42 404.42,-404.42zm-421.27 707.73c-27.87,0 -50.55,-22.69 -50.55,-50.55 0,-27.87 22.68,-50.55 50.55,-50.55l16.85 0 0 101.1 -16.85 0zm112.36 134.81l613.8 0c-53.07,117.05 -166.77,199.74 -298.6,202.14 -91.53,1.25 -177.37,-32.58 -242.4,-96.43 -31.35,-30.78 -55.75,-66.68 -72.8,-105.71zm308.8 269.61c2.55,0 5.09,-0.05 7.7,-0.07 44.54,-0.81 87.22,-9.54 127.21,-24.31l0 85.58 -134.8 161.76 -134.81 -161.76 0 -84.59c42.76,15.09 88.03,23.39 134.7,23.39zm-202.1 72.19l0 1.2c0,7.9 2.76,15.56 7.79,21.61l144.48 173.4 -141.19 94.13c-40.5,-79.41 -65.08,-197.97 -73.66,-244.84l62.58 -45.5zm-505.52 28.91l0 -208.41c12.59,-4.48 23.96,-11.28 33.7,-20.08 9.74,8.75 21.11,15.6 33.7,20.08l0 208.41c0,18.61 -15.1,33.7 -33.7,33.7 -18.61,0 -33.7,-15.09 -33.7,-33.7zm168.5 -303.31c0,18.6 -15.09,33.7 -33.7,33.7l-33.7 0c-18.6,0 -33.7,-15.1 -33.7,-33.7 0,-18.6 15.1,-33.7 33.7,-33.7l33.7 0c18.61,0 33.7,15.1 33.7,33.7zm-101.1 -168.51l0 73.61c-12.59,4.48 -23.96,11.33 -33.7,20.08 -9.74,-8.8 -21.11,-15.6 -33.7,-20.08l0 -73.61 67.4 0zm-272.25 157.83c12.82,-14.64 31.29,-23.02 50.73,-23.02l120.41 0c18.61,0 33.71,15.1 33.71,33.7 0,18.6 -15.1,33.7 -33.71,33.7l-101.1 0 0 67.4 67.4 0 0 202.21c0,11.87 2.44,23.13 6.21,33.7l-120.5 0 -39.25 -294.4c-2.57,-19.29 3.31,-38.71 16.1,-53.29zm32.17 415.1l183.03 0 90.75 242.05 0 61.26 -67.4 0 0 67.4 101.1 0c18.63,0 33.7,-15.07 33.7,-33.7l0 -235.91c0,-92.92 75.59,-168.51 168.51,-168.51l40.55 0c11.28,60.74 43.33,209.5 99.92,294.32 6.47,9.74 17.18,14.98 28.08,14.98 6.39,0 12.91,-1.84 18.65,-5.65l149.82 -99.86 0 369.14 -779.31 0 -67.4 -505.52zm1824.05 59.41c0,3.41 -0.24,6.65 -0.88,10.12 -12.57,69.66 -35.46,151.72 -58.27,178 -32.7,37.62 -51.63,111.45 -62.44,175.43l-54.07 -108.09c-11.47,-23.01 -34.58,-37.27 -60.3,-37.27 -25.71,0 -48.79,14.28 -60.27,37.23l-53.86 107.71c-10.62,-62.95 -29.45,-135.51 -62.27,-174.61 -22.54,-26.86 -45.64,-108.91 -58.58,-178.51 -0.62,-3.4 -0.88,-6.81 -0.88,-10.27l0 -20.91c0,-15.43 6.27,-30.52 17.18,-41.44 15.77,-15.81 38.84,-21.31 59.98,-14.2l118.88 39.65c6.43,2.15 13.01,3.77 19.64,4.84l102.64 68.37 37.37 -56.05 -43.82 -29.21 82.74 -27.56c21.19,-7.11 44.21,-1.62 59.99,14.2 10.92,10.9 17.18,26 17.18,41.44l0 21.13 0.04 0z"
         class="fil10_1579085767957"
         vector-effect="non-scaling-stroke"
         id="path67" />
    </g>
  </g>
</svg>