<?xml version="1.0" encoding="UTF-8" standalone="no"?>
<svg
   xmlns:dc="http://purl.org/dc/elements/1.1/"
   xmlns:cc="http://creativecommons.org/ns#"
   xmlns:rdf="http://www.w3.org/1999/02/22-rdf-syntax-ns#"
   xmlns:svg="http://www.w3.org/2000/svg"
   xmlns="http://www.w3.org/2000/svg"
   xmlns:sodipodi="http://sodipodi.sourceforge.net/DTD/sodipodi-0.dtd"
   xmlns:inkscape="http://www.inkscape.org/namespaces/inkscape"
   version="1.2"
   preserveAspectRatio="none"
   viewBox="0 0 2362 2362"
   class="ng-element"
   data-id="75363da058c246898524d26bd0f7db0a"
   style="opacity: 1; mix-blend-mode: normal; overflow: visible; width: 120px; height: 120px"
   id="svg37"
   sodipodi:docname="4.svg"
   inkscape:version="0.92.3 (2405546, 2018-03-11)">
  <metadata
     id="metadata41">
    <rdf:RDF>
      <cc:Work
         rdf:about="">
        <dc:format>image/svg+xml</dc:format>
        <dc:type
           rdf:resource="http://purl.org/dc/dcmitype/StillImage" />
        <dc:title></dc:title>
      </cc:Work>
    </rdf:RDF>
  </metadata>
  <sodipodi:namedview
     pagecolor="#ffffff"
     bordercolor="#666666"
     borderopacity="1"
     objecttolerance="10"
     gridtolerance="10"
     guidetolerance="10"
     inkscape:pageopacity="0"
     inkscape:pageshadow="2"
     inkscape:window-width="828"
     inkscape:window-height="480"
     id="namedview39"
     showgrid="false"
     inkscape:zoom="0.099915326"
     inkscape:cx="1181"
     inkscape:cy="1181"
     inkscape:window-x="0"
     inkscape:window-y="27"
     inkscape:window-maximized="0"
     inkscape:current-layer="svg37" />
  <defs
     id="defs4">
    <style
       type="text/css"
       id="style2">

        .fil2_1579085768040 {fill:#B31E52;fill-rule:nonzero}
        .fil1_1579085768040 {fill:#D7AA02;fill-rule:nonzero}
        .fil3_1579085768040 {fill:#E1005C;fill-rule:nonzero}
        .fil0_1579085768040 {fill:#FEDF30;fill-rule:nonzero}
        .fil5_1579085768040 {fill:#FFE5F0;fill-rule:nonzero}
        .fil6_1579085768040 {fill:black;fill-rule:nonzero}
        .fil4_1579085768040 {fill:white;fill-rule:nonzero}

    </style>
  </defs>
  <g
     id="Слой_x0020_1_1579085768040">
    <metadata
       id="CorelCorpID_0Corel-Layer_1579085768040"
       vector-effect="non-scaling-stroke" />
    <g
       id="_1579085768040">
      <polygon
         points="758.65,675.33 857.42,590.37 1016.23,774.96 917.44,859.95"
         class="fil0_1579085768040"
         vector-effect="non-scaling-stroke"
         id="polygon7" />
      <polygon
         points="625.77,654.02 856.28,455.75 923.32,533.71 692.82,731.96"
         class="fil1_1579085768040"
         vector-effect="non-scaling-stroke"
         id="polygon9" />
      <polygon
         points="1883.79,860.21 1785.02,775.22 1943.8,590.62 2042.57,675.59"
         class="fil0_1579085768040"
         vector-effect="non-scaling-stroke"
         id="polygon11" />
      <polygon
         points="2108.45,732.13 1877.94,533.88 1944.98,455.92 2175.49,654.19"
         class="fil1_1579085768040"
         vector-effect="non-scaling-stroke"
         id="polygon13" />
      <polygon
         points="1308.99,658.05 1500.61,658.05 1500.61,384.4 1308.99,384.4"
         class="fil2_1579085768040"
         vector-effect="non-scaling-stroke"
         id="polygon15" />
      <path
         d="M1639.39 401.52l-469.17 0c-33.03,0 -59.81,-26.77 -59.81,-59.8l0 -72.66c0,-33.02 26.78,-59.8 59.81,-59.8l469.17 0c33.02,0 59.8,26.78 59.8,59.8l0 72.66c0,33.03 -26.78,59.8 -59.8,59.8z"
         class="fil3_1579085768040"
         vector-effect="non-scaling-stroke"
         id="path17" />
      <path
         d="M1639.39 209.26l-124.91 0c33.03,0 59.81,26.78 59.81,59.8l0 72.66c0,33.03 -26.78,59.8 -59.81,59.8l124.91 0c33.02,0 59.8,-26.77 59.8,-59.8l0 -72.66c0,-33.02 -26.78,-59.8 -59.8,-59.8z"
         class="fil2_1579085768040"
         vector-effect="non-scaling-stroke"
         id="path19" />
      <path
         d="M1972.19 783.95c313.53,313.5 313.53,821.81 0,1135.32 -313.5,313.53 -821.82,313.53 -1135.32,0 -313.51,-313.51 -313.51,-821.82 0,-1135.32 313.5,-313.51 821.82,-313.51 1135.32,0z"
         class="fil3_1579085768040"
         vector-effect="non-scaling-stroke"
         id="path21" />
      <path
         d="M1404.79 548.68c-21,0 -41.84,0.82 -62.45,2.41 414.26,31.87 740.48,378.09 740.48,800.51 0,422.43 -326.22,768.66 -740.48,800.54 20.61,1.58 41.45,2.39 62.45,2.39 443.45,0 802.93,-359.47 802.93,-802.93 0,-443.44 -359.48,-802.92 -802.93,-802.92z"
         class="fil2_1579085768040"
         vector-effect="non-scaling-stroke"
         id="path23" />
      <path
         d="M2030.08 1351.6c0,345.33 -279.95,625.29 -625.29,625.29 -345.32,0 -625.27,-279.96 -625.27,-625.29 0,-345.34 279.95,-625.28 625.27,-625.28 345.34,0 625.29,279.94 625.29,625.28z"
         class="fil4_1579085768040"
         vector-effect="non-scaling-stroke"
         id="path25" />
      <path
         d="M1485.6 731.58c-48.82,-6.38 -97.03,-6.9 -143.97,-2.18 6.33,0.64 12.69,1.33 19.06,2.18 342.44,44.61 583.86,358.37 539.25,700.83 -38.28,293.63 -274.43,512.97 -556.87,541.41 334.94,33.41 637.98,-205.35 681.77,-541.41 44.62,-342.46 -196.81,-656.22 -539.24,-700.83z"
         class="fil5_1579085768040"
         vector-effect="non-scaling-stroke"
         id="path27" />
      <path
         d="M2002.05 769.92l43.31 -50.37 42.19 36.28c5.69,4.89 12.93,7.56 20.36,7.56 0.8,0 1.57,-0.04 2.35,-0.1 8.27,-0.63 15.94,-4.48 21.32,-10.77l67.07 -77.99c11.24,-13.07 9.76,-32.78 -3.32,-44.03l-230.61 -198.26c-6.27,-5.38 -14.44,-8.09 -22.71,-7.45 -8.25,0.63 -15.91,4.5 -21.32,10.77l-67.04 77.99c-11.25,13.07 -9.76,32.81 3.31,44.03l42.21 36.3 -46.62 54.22c-95.5,-60.99 -204.16,-103.1 -320.73,-120.98l0 -94.36 107.57 0c50.19,0 91.01,-40.84 91.01,-91.04l0 -72.66c0,-50.19 -40.84,-91.01 -91.01,-91.01l-469.17 0c-50.2,0 -91.04,40.82 -91.04,91.01l0 72.66c0,50.2 40.84,91.04 91.04,91.04l107.53 0 0 94.36c-118.82,18.22 -229.46,61.67 -326.32,124.64l-49.76 -57.88 42.2 -36.3c6.29,-5.39 10.17,-13.05 10.79,-21.33 0.6,-8.25 -2.07,-16.41 -7.47,-22.7l-67.05 -77.99c-11.24,-13.07 -30.95,-14.56 -44.03,-3.32l-230.59 198.26c-6.28,5.38 -10.14,13.08 -10.77,21.33 -0.62,8.25 2.05,16.41 7.46,22.7l67.04 77.99c6.18,7.17 14.9,10.85 23.69,10.85 7.2,0 14.46,-2.48 20.34,-7.54l42.2 -36.28 47.42 55.13c-41.04,42.81 -77.53,89.97 -108.79,140.68 -1.06,-0.12 -2.11,-0.18 -3.21,-0.18l-197.2 0c-17.23,0 -31.22,13.98 -31.22,31.24 0,17.25 13.99,31.24 31.22,31.24l165.61 0c-16.43,32.63 -30.78,66.48 -42.88,101.4l-315.51 0c-17.26,0 -31.24,13.98 -31.24,31.21 0,17.26 13.98,31.24 31.24,31.24l296.55 0c-11.27,43.27 -19.11,87.93 -23.29,133.62l-421.69 0c-17.26,0 -31.24,13.98 -31.24,31.24 0,17.25 13.98,31.23 31.24,31.23l418.33 0c-0.06,4.66 -0.17,9.31 -0.17,14 0,40.62 2.97,80.56 8.62,119.63l-307.5 0c-17.26,0 -31.24,13.98 -31.24,31.24 0,17.23 13.98,31.21 31.24,31.21l318.96 0c7.73,34.66 17.61,68.51 29.55,101.41l-155.73 0c-17.23,0 -31.21,13.97 -31.21,31.23 0,17.23 13.98,31.21 31.21,31.21l181.28 0c131.71,287.79 422.36,488.22 758.98,488.22 175.81,0 343.97,-54.05 486.28,-156.33 202.62,-145.64 68.97,-117.65 58.91,-131.65 -30.37,32.35 -61.83,57.86 -95.37,80.93 -131.62,94.62 -287.17,144.62 -449.82,144.62 -425.52,0 -771.71,-346.18 -771.71,-771.72 0,-425.5 346.19,-771.68 771.71,-771.68 205.97,0 393.36,81.13 531.9,213.09 0.28,0.31 0.61,0.59 0.91,0.87 147.11,140.6 238.88,338.64 238.88,557.72 0,206.38 -80.44,400.35 -226.5,546.17 -12.21,12.17 -12.23,31.95 -0.04,44.16 12.17,12.19 -48.25,85.65 44.16,0.02 157.89,-157.6 244.83,-367.25 244.83,-590.35 0,-226.01 -90.41,-431.29 -236.9,-581.68zm-54.35 -269.94l183.24 157.51 -26.34 30.64 -183.22 -157.55 26.32 -30.6zm-1.16 134.61l51.46 44.25 -41.21 47.93c-16.95,-14.97 -34.49,-29.32 -52.61,-42.91l42.36 -49.27zm-679.84 -264.28l0 -129.81 50.44 0 0 129.81 -50.44 0zm112.89 -129.81l50.42 0 0 129.81 -50.42 0 0 -129.81zm112.88 129.81l0 -129.81 50.43 0 0 129.81 -50.43 0zm175.48 -101.25l0 72.66c0,15.78 -12.82,28.59 -28.56,28.59l-34.04 0 0 -129.81 34.04 0c15.74,0 28.56,12.81 28.56,28.56zm-526.3 72.66l0 -72.66c0,-15.75 12.82,-28.56 28.57,-28.56l34.03 0 0 129.81 -34.03 0c-15.75,0 -28.57,-12.81 -28.57,-28.59zm-445.41 346.41l-26.33 -30.64 183.25 -157.51 26.32 30.6 -42.2 36.29 0 0.01 -98.84 84.97 -42.2 36.28zm107.54 -10.11l50.54 -43.43 45.82 53.32c-18.01,13.72 -35.46,28.15 -52.28,43.28l-45.03 -52.35 0.95 -0.82zm536.45 -158.08l0 -87.18 129.14 0 0 87.18c-21.3,-1.63 -42.84,-2.47 -64.58,-2.47 -21.71,0 -43.26,0.84 -64.56,2.47z"
         class="fil6_1579085768040"
         vector-effect="non-scaling-stroke"
         id="path29" />
      <path
         d="M1143.26 782.69c-7.96,-15.27 -26.84,-21.19 -42.13,-13.2 -189.85,99.23 -319.69,285.14 -347.33,497.29 -46.79,358.95 207.2,689.05 566.18,735.84 28.67,3.72 57.11,5.53 85.28,5.53 324.54,-0.02 607.5,-241.42 650.54,-571.71 22.66,-173.89 -23.74,-346.2 -130.7,-485.17 -106.94,-138.99 -261.59,-228.01 -435.48,-250.67 -84.83,-11.05 -169.45,-5.73 -251.48,15.83 -16.7,4.4 -26.65,21.46 -22.28,38.13 4.4,16.7 21.48,26.65 38.13,22.28 39.32,-10.32 79.28,-16.5 119.58,-18.57l0 82.05c0,17.24 13.98,31.22 31.22,31.22 17.25,0 31.24,-13.98 31.24,-31.22l0 -81.97c15.14,0.82 30.33,2.2 45.54,4.18 121.6,15.84 232.78,67.58 321.71,148.32l-56.55 56.55c-12.19,12.19 -12.19,31.97 0,44.16 6.1,6.1 14.09,9.14 22.08,9.14 7.99,0 15.98,-3.04 22.08,-9.14l56.38 -56.39c9.82,10.98 19.28,22.37 28.35,34.16 74.66,97.05 116.67,212.04 122.58,331.79l-77.47 0c-17.23,0 -31.21,13.99 -31.21,31.22 0,17.26 13.98,31.24 31.21,31.24l77.29 0c-0.82,14.9 -2.19,29.83 -4.15,44.78 -16.07,123.44 -69.22,233.13 -146.73,319.41l-53.49 -53.49c-12.19,-12.19 -31.97,-12.19 -44.16,0 -12.19,12.2 -12.19,31.97 0,44.16l53.55 53.56c-98.36,88.79 -225.72,144.55 -363.12,152.63l0 -76.35c0,-17.23 -13.98,-31.21 -31.23,-31.21 -17.24,0 -31.22,13.98 -31.22,31.21l0 76.73c-16.39,-0.77 -32.87,-2.18 -49.44,-4.35 -122.07,-15.9 -230.74,-68.03 -316.58,-144.16l55.32 -55.3c12.19,-12.19 12.19,-31.97 0,-44.16 -12.19,-12.2 -31.97,-12.2 -44.17,0l-55.62 55.62c-90.15,-98.55 -146.85,-226.75 -155.16,-365.19l80.93 0c17.25,0 31.24,-13.98 31.24,-31.23 0,-17.24 -13.99,-31.21 -31.24,-31.21l-81.39 0c0.75,-16.66 2.18,-33.4 4.35,-50.2 15.65,-119.94 67.39,-230.63 145.93,-318.72l58.21 58.18c6.1,6.13 14.09,9.17 22.08,9.17 8,0 15.98,-3.04 22.08,-9.17 12.19,-12.19 12.19,-31.94 0,-44.14l-58.36 -58.35c37.18,-33.8 78.87,-63.16 124.41,-86.97 15.29,-7.99 21.2,-26.86 13.2,-42.14z"
         class="fil6_1579085768040"
         vector-effect="non-scaling-stroke"
         id="path31" />
      <path
         d="M1404.81 1065.16c-17.26,0 -31.24,13.98 -31.24,31.23l0 185.49c-26.62,11.98 -45.23,38.69 -45.23,69.72 0,42.17 34.29,76.49 76.47,76.49 11.55,0 22.47,-2.66 32.31,-7.29l208.34 208.34c6.1,6.09 14.09,9.16 22.08,9.16 7.99,0 15.98,-3.07 22.08,-9.16 12.2,-12.19 12.2,-31.97 0,-44.16l-211.57 -211.55c2.07,-6.94 3.21,-14.24 3.21,-21.83 0,-31.03 -18.61,-57.74 -45.23,-69.72l0 -185.49c0,-17.25 -13.99,-31.23 -31.22,-31.23zm-14.02 286.44c0,-7.73 6.29,-14.02 14.02,-14.02 7.72,0 14,6.29 14,14.02 0,7.74 -6.28,14.01 -14,14.01 -7.73,0 -14.02,-6.27 -14.02,-14.01z"
         class="fil6_1579085768040"
         vector-effect="non-scaling-stroke"
         id="path33" />
    </g>
  </g>
</svg>