<?xml version="1.0" encoding="UTF-8" standalone="no"?>
<svg
   xmlns:dc="http://purl.org/dc/elements/1.1/"
   xmlns:cc="http://creativecommons.org/ns#"
   xmlns:rdf="http://www.w3.org/1999/02/22-rdf-syntax-ns#"
   xmlns:svg="http://www.w3.org/2000/svg"
   xmlns="http://www.w3.org/2000/svg"
   xmlns:sodipodi="http://sodipodi.sourceforge.net/DTD/sodipodi-0.dtd"
   xmlns:inkscape="http://www.inkscape.org/namespaces/inkscape"
   version="1.2"
   preserveAspectRatio="none"
   viewBox="0 0 2362 2362"
   class="ng-element"
   data-id="a18d31b04e124b9da0ebc0dd77a2a67c"
   style="opacity: 1; mix-blend-mode: normal; overflow: visible; width: 120px; height: 120px"
   id="svg45"
   sodipodi:docname="5.svg"
   inkscape:version="0.92.3 (2405546, 2018-03-11)">
  <metadata
     id="metadata49">
    <rdf:RDF>
      <cc:Work
         rdf:about="">
        <dc:format>image/svg+xml</dc:format>
        <dc:type
           rdf:resource="http://purl.org/dc/dcmitype/StillImage" />
        <dc:title></dc:title>
      </cc:Work>
    </rdf:RDF>
  </metadata>
  <sodipodi:namedview
     pagecolor="#ffffff"
     bordercolor="#666666"
     borderopacity="1"
     objecttolerance="10"
     gridtolerance="10"
     guidetolerance="10"
     inkscape:pageopacity="0"
     inkscape:pageshadow="2"
     inkscape:window-width="828"
     inkscape:window-height="480"
     id="namedview47"
     showgrid="false"
     inkscape:zoom="0.099915326"
     inkscape:cx="1181"
     inkscape:cy="1181"
     inkscape:window-x="0"
     inkscape:window-y="27"
     inkscape:window-maximized="0"
     inkscape:current-layer="svg45" />
  <defs
     id="defs4">
    <style
       type="text/css"
       id="style2">

        .fil0_1579085768100 {fill:#90A4AE;fill-rule:nonzero}
        .fil1_1579085768100 {fill:#CFD8DC;fill-rule:nonzero}
        .fil3_1579085768100 {fill:#E1005C;fill-rule:nonzero}
        .fil2_1579085768100 {fill:#FFE082;fill-rule:nonzero}
        .fil5_1579085768100 {fill:black;fill-rule:nonzero}
        .fil4_1579085768100 {fill:white;fill-rule:nonzero}

    </style>
  </defs>
  <g
     id="Слой_x0020_1_1579085768100">
    <metadata
       id="CorelCorpID_0Corel-Layer_1579085768100"
       vector-effect="non-scaling-stroke" />
    <g
       id="_1579085768100">
      <path
         d="M1658.42 2153.43l127.55 0c70.45,0 127.56,-57.11 127.56,-127.56l0 -127.55 -255.11 0 0 255.11z"
         class="fil0_1579085768100"
         vector-effect="non-scaling-stroke"
         id="path7" />
      <path
         d="M1785.97 2153.43l-956.63 0c-70.44,0 -127.56,-57.11 -127.56,-127.56l0 -1403.06 956.64 0 0 1403.06c0,70.45 57.11,127.56 127.55,127.56z"
         class="fil1_1579085768100"
         vector-effect="non-scaling-stroke"
         id="path9" />
      <path
         d="M1180.1 1483.77c-35.63,0 -63.77,-44.39 -95.88,-54.85 -33.32,-10.83 -82.05,8.11 -109.76,-12.14 -27.72,-20.25 -25,-72.86 -45.35,-100.93 -20.33,-28.05 -71.08,-41.04 -81.79,-74.42 -10.43,-32.21 22.57,-72.7 22.57,-108.42 0,-35.72 -33,-76.21 -22.57,-108.41 10.8,-33.4 61.61,-46.62 81.79,-74.43 20.19,-27.8 17.34,-80.53 45.35,-100.96 28.01,-20.44 76.53,-1.28 109.76,-12.13 32.11,-10.45 60.25,-54.84 95.88,-54.84 35.63,0 63.77,44.39 95.89,54.84 33.34,10.85 82.04,-8.09 109.76,12.16 27.7,20.24 25,72.86 45.35,100.93 20.33,28.06 71.08,41.03 81.79,74.43 10.43,32.2 -22.58,72.69 -22.58,108.41 0,35.72 33.01,76.21 22.58,108.42 -10.81,33.38 -61.62,46.61 -81.79,74.42 -20.2,27.82 -17.36,80.51 -45.35,100.96 -28.01,20.44 -76.53,1.28 -109.76,12.11 -32.12,10.46 -60.26,54.85 -95.89,54.85z"
         class="fil2_1579085768100"
         vector-effect="non-scaling-stroke"
         id="path11" />
      <path
         d="M1371.43 1133.01c0,105.66 -85.65,191.32 -191.33,191.32 -105.66,0 -191.32,-85.66 -191.32,-191.32 0,-105.68 85.66,-191.33 191.32,-191.33 105.68,0 191.33,85.65 191.33,191.33z"
         class="fil3_1579085768100"
         vector-effect="non-scaling-stroke"
         id="path13" />
      <path
         d="M597.32 219.83c0,0 70.15,107.5 42.88,209.58 -27.26,102.06 -141.92,160.04 -141.92,160.04 0,0 -70.16,-107.5 -42.89,-209.57 27.26,-102.07 141.93,-160.05 141.93,-160.05z"
         class="fil2_1579085768100"
         vector-effect="non-scaling-stroke"
         id="path15" />
      <path
         d="M282.59 616.41c0,0 114.58,57.99 141.93,160.05 27.36,102.08 -42.89,209.64 -42.89,209.64 0,0 -114.57,-57.96 -141.95,-160.04 -27.35,-102.08 42.91,-209.65 42.91,-209.65z"
         class="fil2_1579085768100"
         vector-effect="non-scaling-stroke"
         id="path17" />
      <path
         d="M208.34 1117.34c0,0 128.19,-7.06 202.94,67.65 74.75,74.71 67.64,202.94 67.64,202.94 0,0 -128.21,7.07 -202.94,-67.63 -74.7,-74.74 -67.64,-202.96 -67.64,-202.96z"
         class="fil2_1579085768100"
         vector-effect="non-scaling-stroke"
         id="path19" />
      <path
         d="M603.89 1545.48c-102.05,-28.14 -209.51,44.13 -209.51,44.13 0,0 58.05,117.39 160.08,145.5 49.27,10.96 100.75,6.39 147.32,-13.1l0 -115.72c-26.73,-28.5 -60.49,-49.47 -97.89,-60.81z"
         class="fil2_1579085768100"
         vector-effect="non-scaling-stroke"
         id="path21" />
      <path
         d="M1767.79 1545.48c-37.38,11.34 -71.14,32.31 -97.89,60.81l0 115.72c46.58,19.49 98.03,24.06 147.32,13.1 102.05,-28.11 160.08,-145.5 160.08,-145.5 0,0 -107.47,-72.27 -209.51,-44.13z"
         class="fil2_1579085768100"
         vector-effect="non-scaling-stroke"
         id="path23" />
      <path
         d="M1762.88 219.83c0,0 -70.14,107.5 -42.87,209.58 27.25,102.06 141.91,160.04 141.91,160.04 0,0 70.16,-107.5 42.89,-209.57 -27.25,-102.07 -141.93,-160.05 -141.93,-160.05z"
         class="fil2_1579085768100"
         vector-effect="non-scaling-stroke"
         id="path25" />
      <path
         d="M2077.61 616.41c0,0 -114.56,58.05 -141.75,160.12 -27.21,102.07 42.87,209.57 42.87,209.57 0,0 114.59,-57.96 141.94,-160.04 27.36,-102.08 -43.06,-209.65 -43.06,-209.65z"
         class="fil2_1579085768100"
         vector-effect="non-scaling-stroke"
         id="path27" />
      <path
         d="M2151.86 1117.34c0,0 -128.19,-7.06 -202.95,67.65 -74.73,74.71 -67.62,202.94 -67.62,202.94 0,0 128.22,7.07 202.94,-67.63 74.69,-74.74 67.63,-202.96 67.63,-202.96z"
         class="fil2_1579085768100"
         vector-effect="non-scaling-stroke"
         id="path29" />
      <polygon
         points="861.22,1675.11 1498.98,1675.11 1498.98,1611.33 861.22,1611.33"
         class="fil4_1579085768100"
         vector-effect="non-scaling-stroke"
         id="polygon31" />
      <polygon
         points="861.22,1802.65 1498.98,1802.65 1498.98,1738.88 861.22,1738.88"
         class="fil4_1579085768100"
         vector-effect="non-scaling-stroke"
         id="polygon33" />
      <polygon
         points="988.78,1930.21 1371.42,1930.21 1371.42,1866.44 988.78,1866.44"
         class="fil4_1579085768100"
         vector-effect="non-scaling-stroke"
         id="polygon35" />
      <path
         d="M1543.24 1014.73c-11.53,-26.39 -31.93,-47.94 -57.65,-60.93 -10.64,-5.96 -20.32,-13.47 -28.69,-22.31 -6,-10.89 -10.29,-22.62 -12.76,-34.8 -4.22,-28.36 -18.29,-54.32 -39.74,-73.35 -24.45,-14.46 -53.18,-19.89 -81.23,-15.29 -12.49,1.42 -25.1,0.97 -37.45,-1.41 -10.71,-5.2 -20.61,-11.94 -29.35,-20.04 -20.4,-20.6 -47.39,-33.43 -76.27,-36.24 -28.98,2.78 -56.07,15.66 -76.52,36.37 -8.78,8.11 -18.68,14.87 -29.41,20.07 -12.33,2.31 -24.93,2.76 -37.37,1.37 -28.05,-4.63 -56.85,0.8 -81.28,15.3 -21.39,18.99 -35.44,44.87 -39.68,73.15 -2.48,12.18 -6.77,23.92 -12.75,34.82 -8.39,8.84 -18.06,16.36 -28.69,22.33 -25.74,12.99 -46.14,34.55 -57.66,60.96 -6.05,27.49 -2.29,56.22 10.62,81.22 5.41,11.74 8.99,24.23 10.62,37.06 -1.56,12.8 -5.07,25.29 -10.4,37.03 -12.91,25.01 -16.67,53.74 -10.62,81.25 11.54,26.39 31.93,47.95 57.66,60.93 10.65,5.96 20.31,13.47 28.68,22.31 6.01,10.88 10.31,22.62 12.78,34.8 4.2,28.36 18.27,54.34 39.72,73.34 24.45,14.44 53.18,19.85 81.22,15.31 12.49,-1.43 25.12,-0.96 37.46,1.39 10.72,5.22 20.58,11.96 29.35,20.04 20.42,20.61 47.38,33.44 76.27,36.26 28.99,-2.8 56.07,-15.68 76.53,-36.39 8.76,-8.09 18.68,-14.84 29.42,-20.06 12.31,-2.33 24.9,-2.8 37.35,-1.36 28.05,4.61 56.84,-0.79 81.28,-15.31 21.39,-18.98 35.44,-44.87 39.68,-73.16 2.48,-12.19 6.78,-23.92 12.76,-34.83 8.39,-8.82 18.05,-16.36 28.69,-22.31 25.74,-12.97 46.13,-34.55 57.65,-60.96 6.05,-27.49 2.29,-56.21 -10.62,-81.22 -5.42,-11.74 -8.99,-24.24 -10.61,-37.06 1.55,-12.8 5.05,-25.29 10.4,-37.03 12.91,-24.99 16.66,-53.75 10.61,-81.25zm-70.16 178.01c6.16,12.03 9.42,25.35 9.56,38.85 -2.7,8.38 -18.07,18.32 -31.65,27.12 -17.4,9.85 -32.87,22.82 -45.61,38.27 -10.88,17.06 -18.53,35.99 -22.63,55.81 -2.06,13.84 -7.44,26.95 -15.72,38.24 -13.02,4.28 -26.86,5.37 -40.4,3.2 -20.22,-2.24 -40.69,-0.73 -60.37,4.47 -18.46,7.21 -35.42,17.81 -49.96,31.28 -12.76,10.32 -26.98,22 -36.11,22 -9.12,0 -23.43,-11.68 -36.09,-22 -14.53,-13.46 -31.46,-24.06 -49.91,-31.24 -12.52,-3.79 -25.55,-5.55 -38.63,-5.24 -7.5,0 -14.82,0.39 -21.78,0.7 -13.54,2.18 -27.4,1.09 -40.42,-3.2 -8.26,-11.28 -13.66,-24.4 -15.72,-38.24 -4.08,-19.84 -11.74,-38.75 -22.63,-55.81 -12.74,-15.45 -28.19,-28.42 -45.59,-38.28 -13.6,-8.79 -28.97,-18.73 -31.69,-27.08 0.14,-13.51 3.42,-26.83 9.58,-38.88 8.4,-18.85 13.28,-39.09 14.44,-59.7 -1.19,-20.63 -6.13,-40.87 -14.57,-59.73 -6.16,-12.05 -9.43,-25.34 -9.57,-38.87 2.71,-8.36 18.09,-18.31 31.66,-27.1 17.42,-9.87 32.88,-22.84 45.61,-38.28 10.89,-17.05 18.56,-35.97 22.64,-55.8 2.06,-13.83 7.45,-26.97 15.72,-38.26 13.02,-4.29 26.88,-5.38 40.41,-3.18 20.22,2.21 40.68,0.7 60.34,-4.48 18.48,-7.2 35.43,-17.82 49.99,-31.27 12.75,-10.34 26.97,-22 36.09,-22 9.12,0 23.43,11.66 36.1,22 14.53,13.45 31.46,24.04 49.89,31.24 19.72,5.2 40.19,6.72 60.43,4.54 13.53,-2.17 27.4,-1.08 40.42,3.19 8.27,11.29 13.65,24.42 15.71,38.25 4.07,19.85 11.76,38.76 22.67,55.8 12.72,15.46 28.18,28.43 45.57,38.28 13.58,8.8 28.96,18.74 31.66,27.07 -0.15,13.54 -3.4,26.84 -9.56,38.9 -8.42,18.87 -13.33,39.09 -14.5,59.7 1.18,20.63 6.12,40.88 14.56,59.73l0.06 0z"
         class="fil5_1579085768100"
         vector-effect="non-scaling-stroke"
         id="path37" />
      <path
         d="M1180.1 909.8c-123.27,0 -223.21,99.92 -223.21,223.21 0,123.27 99.94,223.22 223.21,223.22 123.29,0 223.21,-99.95 223.21,-223.22 -0.15,-123.21 -100,-223.06 -223.21,-223.21zm0 382.65c-88.04,0 -159.44,-71.39 -159.44,-159.44 0,-88.05 71.4,-159.44 159.44,-159.44 88.05,0 159.44,71.39 159.44,159.44 -0.11,88 -71.42,159.33 -159.44,159.44z"
         class="fil5_1579085768100"
         vector-effect="non-scaling-stroke"
         id="path39" />
      <path
         d="M1879.57 1419.75c0.84,0 4.74,0.25 11.01,0.25 35.06,0 145.05,-6.03 216.22,-77.16 83.79,-83.84 77.23,-221.45 76.91,-227.23l-1.57 -28.52 -28.53 -1.57c-65.05,-2.17 -129.44,13.44 -186.29,45.12 5.61,-35.72 8.81,-71.77 9.56,-107.93l16.15 -8.17c5.19,-2.63 127.54,-65.71 158.35,-180.23 30.79,-114.51 -43.78,-230.39 -47.01,-235.26l-15.59 -23.93 -25.52 12.76c-57.52,30.8 -105.56,76.67 -139.02,132.68 -13.02,-33.7 -28.33,-66.48 -45.79,-98.11l10.18 -15.56c3.17,-4.84 77.68,-120.73 46.96,-235.26 -30.71,-114.56 -153.06,-177.61 -158.28,-180.23l-25.51 -12.77 -15.64 23.92c-34.47,55.37 -53.2,119.08 -54.21,184.29 -12.05,-9.78 -24.39,-19.21 -37.02,-28.33l-36.99 51.67c264.8,190.27 372.27,532.49 263.77,839.99l-0.61 1.6c-37.79,106.07 -99.69,201.96 -180.8,280.09l0 -940.94 -1020.4 0 0 940.94c-81.11,-78.16 -143.01,-174.07 -180.83,-280.15l-0.55 -1.45c-108.55,-307.51 -1.09,-649.78 263.74,-840.08l-37.18 -51.82c-12.75,9.09 -24.98,18.55 -36.99,28.28 -1.02,-65.2 -19.75,-128.89 -54.2,-184.24l-15.64 -23.92 -25.51 12.92c-5.19,2.62 -127.54,65.71 -158.31,180.23 -30.78,114.5 43.96,230.42 47.16,235.23l10.13 15.52c-17.43,31.69 -32.71,64.5 -45.73,98.25 -33.44,-56.01 -81.49,-101.85 -138.99,-132.66l-25.51 -12.75 -15.63 23.92c-3.19,4.85 -77.67,120.72 -47,235.26 30.67,114.55 153.06,177.6 158.31,180.24l16.19 8.2c0.76,36.14 3.94,72.16 9.55,107.86 -56.84,-31.71 -121.27,-47.35 -186.34,-45.18l-28.51 1.57 -1.57 28.52c-0.31,5.78 -6.88,143.49 76.94,227.23 71.15,71.16 181.03,77.16 216.21,77.16 6.38,0 10.14,-0.18 11.03,-0.25l17.71 -0.96c18.78,30.93 39.69,60.56 62.55,88.6 -65.45,1.12 -129.29,20.41 -184.42,55.74l-23.17 15.61 12.37 25.04c2.65,5.32 65.73,130.5 180.34,162.12 18.81,5 38.21,7.52 57.66,7.42 22.33,-0.18 44.55,-3.01 66.19,-8.39l0 260.94c0.11,88 71.41,159.33 159.44,159.45l956.63 0c88.02,-0.12 159.34,-71.45 159.44,-159.45l0 -159.43 -255.11 0 0 -104.5c25.25,7.24 51.35,11.07 77.59,11.35 19.52,0.1 38.96,-2.4 57.81,-7.42 114.48,-31.59 177.53,-156.77 180.16,-162.09l12.38 -25.04 -23.15 -15.61c-58.44,-37.63 -126.86,-56.86 -196.36,-55.13 23.06,-28.25 44.14,-58.09 63.07,-89.28l17.77 1.03zm-128.68 -998.61c-9.99,-53.46 -1.49,-108.72 24.12,-156.7 46.19,28.73 81.16,72.37 99.1,123.7 9.97,53.43 1.5,108.66 -24.04,156.63 -46.12,-28.78 -81.09,-72.36 -99.18,-123.63zm215.7 363.54c18.07,-51.27 53.02,-94.84 99.13,-123.61 25.63,47.96 34.1,103.24 23.98,156.69 -18.07,51.25 -53.03,94.84 -99.13,123.63 -25.56,-47.96 -34.04,-103.17 -24.07,-156.59l0.09 -0.12zm4.95 422.76c41.36,-35.36 93.46,-55.61 147.83,-57.39 -1.79,54.35 -22.13,106.46 -57.6,147.7 -41.3,35.31 -93.36,55.55 -147.66,57.39 1.83,-54.27 22.07,-106.3 57.36,-147.57l0.07 -0.13zm-1485.34 -819.3c18.07,-51.3 53.06,-94.89 99.23,-123.66 25.58,47.98 34.02,103.25 23.88,156.66 -18.09,51.3 -53.08,94.91 -99.24,123.71 -25.6,-47.99 -34.02,-103.28 -23.87,-156.71zm-116.56 553.25c-46.12,-28.75 -81.08,-72.35 -99.14,-123.6 -9.99,-53.46 -1.51,-108.72 24.05,-156.72 46.12,28.78 81.09,72.36 99.16,123.64 10.01,53.43 1.51,108.7 -24.07,156.68zm-71.12 356.36c-35.33,-41.32 -55.55,-93.39 -57.39,-147.7 54.32,1.83 106.4,22.08 147.7,57.39 35.36,41.3 55.6,93.41 57.39,147.76 -54.34,-1.76 -106.44,-22.03 -147.7,-57.45zm371.38 401.32c-34.49,11.51 -71.49,13.35 -106.96,5.31 -52.04,-19.13 -96.01,-55.49 -124.54,-103.03 47.77,-26.6 103.4,-35.5 157.1,-25.14 27.97,8.55 53.49,23.67 74.4,44.1l0 78.76zm159.44 422.46c-52.84,0 -95.67,-42.83 -95.67,-95.66l0 -1371.18 892.87 0 0 1371.18c-0.07,34.51 11.13,68.09 31.88,95.66l-829.08 0zm1052.29 -191.32l0 95.66c0,52.83 -42.83,95.66 -95.66,95.66 -52.83,0 -95.67,-42.83 -95.67,-95.66l0 -95.66 191.33 0zm51.61 -328.83c-28.5,47.51 -72.39,83.84 -124.36,102.97 -39.56,8.67 -80.77,5.56 -118.58,-8.94l0 -68.96 2.27 2.26c22.82,-24.59 51.74,-42.69 83.85,-52.46 53.58,-10.15 109.06,-1.27 156.82,25.13z"
         class="fil5_1579085768100"
         vector-effect="non-scaling-stroke"
         id="path41" />
    </g>
  </g>
</svg>