<?xml version="1.0" encoding="UTF-8" standalone="no"?>
<svg
   xmlns:dc="http://purl.org/dc/elements/1.1/"
   xmlns:cc="http://creativecommons.org/ns#"
   xmlns:rdf="http://www.w3.org/1999/02/22-rdf-syntax-ns#"
   xmlns:svg="http://www.w3.org/2000/svg"
   xmlns="http://www.w3.org/2000/svg"
   xmlns:sodipodi="http://sodipodi.sourceforge.net/DTD/sodipodi-0.dtd"
   xmlns:inkscape="http://www.inkscape.org/namespaces/inkscape"
   version="1.2"
   preserveAspectRatio="none"
   viewBox="0 0 2362 2362"
   class="ng-element"
   data-id="095966246ae144ed9f4c18f99686765f"
   style="opacity: 1; mix-blend-mode: normal; overflow: visible; width: 120px; height: 120px"
   id="svg61"
   sodipodi:docname="6.svg"
   inkscape:version="0.92.3 (2405546, 2018-03-11)">
  <metadata
     id="metadata65">
    <rdf:RDF>
      <cc:Work
         rdf:about="">
        <dc:format>image/svg+xml</dc:format>
        <dc:type
           rdf:resource="http://purl.org/dc/dcmitype/StillImage" />
        <dc:title></dc:title>
      </cc:Work>
    </rdf:RDF>
  </metadata>
  <sodipodi:namedview
     pagecolor="#ffffff"
     bordercolor="#666666"
     borderopacity="1"
     objecttolerance="10"
     gridtolerance="10"
     guidetolerance="10"
     inkscape:pageopacity="0"
     inkscape:pageshadow="2"
     inkscape:window-width="828"
     inkscape:window-height="480"
     id="namedview63"
     showgrid="false"
     inkscape:zoom="0.099915326"
     inkscape:cx="1181"
     inkscape:cy="1181"
     inkscape:window-x="0"
     inkscape:window-y="27"
     inkscape:window-maximized="0"
     inkscape:current-layer="svg61" />
  <defs
     id="defs4">
    <style
       type="text/css"
       id="style2">

        .fil6_1579085768177 {fill:#FDCD6A;fill-rule:nonzero}
        .fil0_1579085768177 {fill:#EBE9E8;fill-rule:nonzero}
        .fil1_1579085768177 {fill:#B0BECA;fill-rule:nonzero}
        .fil2_1579085768177 {fill:#ACB7C6;fill-rule:nonzero}
        .fil3_1579085768177 {fill:#8696A6;fill-rule:nonzero}
        .fil8_1579085768177 {fill:#292525;fill-rule:nonzero}
        .fil4_1579085768177 {fill:#00AADC;fill-rule:nonzero}
        .fil5_1579085768177 {fill:#0083C8;fill-rule:nonzero}
        .fil7_1579085768177 {fill:#E1005C;fill-rule:nonzero}

    </style>
  </defs>
  <g
     id="Слой_x0020_1_1579085768177">
    <metadata
       id="CorelCorpID_0Corel-Layer_1579085768177"
       vector-effect="non-scaling-stroke" />
    <g
       id="_1579085768177">
      <polygon
         points="1439.16,1214.28 1698.22,1214.28 1698.22,1019.99 1439.16,1019.99"
         class="fil0_1579085768177"
         vector-effect="non-scaling-stroke"
         id="polygon7" />
      <polygon
         points="1439.16,1214.28 1601.07,1214.28 1601.07,1019.99 1439.16,1019.99"
         class="fil1_1579085768177"
         vector-effect="non-scaling-stroke"
         id="polygon9" />
      <path
         d="M1439.16 210.43l-1165.76 0c-35.78,0 -64.77,28.98 -64.77,64.76l0 841.94 1295.29 0 0 -841.94c0,-35.78 -28.98,-64.76 -64.76,-64.76z"
         class="fil2_1579085768177"
         vector-effect="non-scaling-stroke"
         id="path11" />
      <polygon
         points="208.63,1117.13 1503.92,1117.13 1503.92,1019.99 208.63,1019.99"
         class="fil3_1579085768177"
         vector-effect="non-scaling-stroke"
         id="polygon13" />
      <polygon
         points="338.16,1117.13 1374.4,1117.13 1374.4,339.96 338.16,339.96"
         class="fil4_1579085768177"
         vector-effect="non-scaling-stroke"
         id="polygon15" />
      <polygon
         points="1374.4,339.96 1018.19,339.96 888.66,1117.13 1374.4,1117.13"
         class="fil5_1579085768177"
         vector-effect="non-scaling-stroke"
         id="polygon17" />
      <path
         d="M338.2 1505.72l1036.16 0c71.57,0 129.56,-58 129.56,-129.56l0 -259.03 -1295.29 0 0 259.03c0,71.56 58,129.56 129.57,129.56z"
         class="fil0_1579085768177"
         vector-effect="non-scaling-stroke"
         id="path19" />
      <path
         d="M1244.87 1246.66c35.77,0 64.76,29 64.76,64.77 0,35.77 -28.99,64.76 -64.76,64.76 -35.77,0 -64.77,-28.99 -64.77,-64.76 0,-35.77 29,-64.77 64.77,-64.77z"
         class="fil6_1579085768177"
         vector-effect="non-scaling-stroke"
         id="path21" />
      <polygon
         points="1309.63,2120.98 1503.92,2120.98 1503.92,1991.45 1309.63,1991.45"
         class="fil2_1579085768177"
         vector-effect="non-scaling-stroke"
         id="polygon23" />
      <polygon
         points="661.99,1376.19 791.51,1376.19 791.51,1246.66 661.99,1246.66"
         class="fil7_1579085768177"
         vector-effect="non-scaling-stroke"
         id="polygon25" />
      <polygon
         points="402.93,1376.19 532.46,1376.19 532.46,1246.66 402.93,1246.66"
         class="fil6_1579085768177"
         vector-effect="non-scaling-stroke"
         id="polygon27" />
      <polygon
         points="532.46,2153.37 1374.4,2153.37 1374.4,1959.07 532.46,1959.07"
         class="fil0_1579085768177"
         vector-effect="non-scaling-stroke"
         id="polygon29" />
      <polygon
         points="532.46,2153.37 694.37,2153.37 694.37,1959.07 532.46,1959.07"
         class="fil1_1579085768177"
         vector-effect="non-scaling-stroke"
         id="polygon31" />
      <path
         d="M443.18 1666.66c-4.63,-18.46 -21.21,-31.41 -40.25,-31.41 -19.04,0 -35.62,12.95 -40.25,31.41l-56.9 227.65 194.29 0 -56.89 -227.65z"
         class="fil0_1579085768177"
         vector-effect="non-scaling-stroke"
         id="path33" />
      <path
         d="M564.84 2153.37l-323.82 0c-17.88,0 -32.39,-14.51 -32.39,-32.39l0 -226.67 388.59 0 0 226.67c0,17.88 -14.51,32.39 -32.38,32.39z"
         class="fil7_1579085768177"
         vector-effect="non-scaling-stroke"
         id="path35" />
      <polygon
         points="1601.07,1829.54 1924.89,1829.54 1924.89,1700.01 1601.07,1700.01"
         class="fil7_1579085768177"
         vector-effect="non-scaling-stroke"
         id="polygon37" />
      <polygon
         points="370.55,372.34 1342.01,372.34 1342.01,1019.99 1406.78,1019.99 1406.78,307.58 305.78,307.58 305.78,1019.99 370.55,1019.99"
         class="fil8_1579085768177"
         vector-effect="non-scaling-stroke"
         id="polygon39" />
      <path
         d="M1244.87 1343.81c-17.85,0 -32.39,-14.51 -32.39,-32.38 0,-17.88 14.54,-32.39 32.39,-32.39 17.84,0 32.38,14.51 32.38,32.39 0,17.87 -14.54,32.38 -32.38,32.38zm0 -129.53c-53.56,0 -97.15,43.59 -97.15,97.15 0,53.56 43.59,97.14 97.15,97.14 53.56,0 97.14,-43.58 97.14,-97.14 0,-53.56 -43.58,-97.15 -97.14,-97.15z"
         class="fil8_1579085768177"
         vector-effect="non-scaling-stroke"
         id="path41" />
      <path
         d="M694.37 1279.04l64.76 0 0 64.77 -64.76 0 0 -64.77zm-64.77 129.53l194.3 0 0 -194.29 -194.3 0 0 194.29z"
         class="fil8_1579085768177"
         vector-effect="non-scaling-stroke"
         id="path43" />
      <path
         d="M435.31 1279.04l64.76 0 0 64.77 -64.76 0 0 -64.77zm-64.76 129.53l194.29 0 0 -194.29 -194.29 0 0 194.29z"
         class="fil8_1579085768177"
         vector-effect="non-scaling-stroke"
         id="path45" />
      <polygon
         points="953.43,501.87 1277.25,501.87 1277.25,437.11 953.43,437.11"
         class="fil8_1579085768177"
         vector-effect="non-scaling-stroke"
         id="polygon47" />
      <polygon
         points="953.43,631.4 1277.25,631.4 1277.25,566.64 953.43,566.64"
         class="fil8_1579085768177"
         vector-effect="non-scaling-stroke"
         id="polygon49" />
      <path
         d="M1471.54 2088.6l-64.76 0 0 -64.76 64.76 0 0 64.76zm-129.53 32.38l-712.41 0 0 -129.53 712.41 0 0 129.53zm-1100.99 0l0 -64.76 323.85 0 0 64.76 -323.85 0zm323.82 -194.29l0 64.76 -323.82 0 0 -64.76 323.82 0zm-170.72 -252.16c2.01,-8.1 15.61,-8.06 17.65,-0.03l46.82 187.43 -111.33 0 46.86 -187.4zm1498.39 122.63l-259.06 0 0 -64.76 259.06 0 0 64.76zm-226.67 -615.26l-129.53 0 0 -129.53 129.53 0 0 129.53zm-291.44 291.44l-1036.24 0c-53.56,0 -97.14,-43.59 -97.14,-97.15l0 -226.67 1230.52 0 0 226.67c0,53.56 -43.58,97.15 -97.14,97.15zm-1101 -1230.53l1165.76 0c17.84,0 32.38,14.51 32.38,32.38l0 809.56 -1230.52 0 0 -809.56c0,-17.87 14.54,-32.38 32.38,-32.38zm1748.64 841.94l-291.44 0 0 -97.15 -194.29 0 0 -712.41c0,-53.56 -43.59,-97.14 -97.15,-97.14l-1165.76 0c-53.56,0 -97.15,43.58 -97.15,97.14l0 1101c0,89.28 72.64,161.91 161.91,161.91l1036.24 0c89.27,0 161.91,-72.63 161.91,-161.91l0 -129.53 194.29 0 0 -97.14 291.44 0c53.56,0 97.15,43.58 97.15,97.14l0 294.19c0,34.69 -9.46,68.75 -27.3,98.54 -29.27,48.77 -79.21,81.61 -134.61,90.41l0 -62.17 -388.59 0 0 64.77 -171.72 0 -80.25 53.49c-11.07,7.38 -23.93,11.27 -37.2,11.27 -36.95,0 -67.04,-30.08 -67.04,-67.03 0,-34.45 28.05,-62.5 62.5,-62.5l0 -64.76c-70.17,0 -127.26,57.09 -127.26,127.26 0,72.66 59.13,131.8 131.8,131.8 26.1,0 51.35,-7.65 73.11,-22.15l63.96 -42.62 152.1 0 0 64.77 388.59 0 0 -66.75c62.56,-7.38 120.23,-38.04 161.91,-84.9l0 216.41c0,53.56 -43.59,97.15 -97.15,97.15l-485.73 0 0 -64.77 -129.53 0 0 -32.38 -777.18 0 0 -64.76 -104.23 0 -50.78 -203.14c-8.26,-32.93 -37.73,-55.92 -71.66,-55.92 -33.94,0 -63.41,22.99 -71.66,55.95l-50.78 203.11 -104.24 0 0 259.05c0,35.72 29.05,64.77 64.77,64.77l1165.76 0 0 -32.38 129.53 0 0 -64.77 485.73 0c89.28,0 161.91,-72.63 161.91,-161.91l0 -680.03c0,-89.28 -72.63,-161.91 -161.91,-161.91z"
         class="fil8_1579085768177"
         vector-effect="non-scaling-stroke"
         id="path51" />
      <polygon
         points="888.66,1343.81 953.43,1343.81 953.43,1279.04 888.66,1279.04"
         class="fil8_1579085768177"
         vector-effect="non-scaling-stroke"
         id="polygon53" />
      <polygon
         points="1018.19,1343.81 1082.96,1343.81 1082.96,1279.04 1018.19,1279.04"
         class="fil8_1579085768177"
         vector-effect="non-scaling-stroke"
         id="polygon55" />
      <path
         d="M917.06 925.24c-30.96,-241.38 -238.07,-423.37 -481.75,-423.37l0 64.77c211.2,0 390.69,157.7 417.54,366.85 6.31,49.32 47.79,86.5 96.43,86.5l327.97 0 0 -64.77 -327.97 0c-16.42,0 -29.98,-12.63 -32.22,-29.98z"
         class="fil8_1579085768177"
         vector-effect="non-scaling-stroke"
         id="path57" />
    </g>
  </g>
</svg>