<?xml version="1.0" encoding="UTF-8" standalone="no"?>
<svg
   xmlns:dc="http://purl.org/dc/elements/1.1/"
   xmlns:cc="http://creativecommons.org/ns#"
   xmlns:rdf="http://www.w3.org/1999/02/22-rdf-syntax-ns#"
   xmlns:svg="http://www.w3.org/2000/svg"
   xmlns="http://www.w3.org/2000/svg"
   xmlns:sodipodi="http://sodipodi.sourceforge.net/DTD/sodipodi-0.dtd"
   xmlns:inkscape="http://www.inkscape.org/namespaces/inkscape"
   version="1.2"
   preserveAspectRatio="none"
   viewBox="0 0 2362 2362"
   class="ng-element"
   data-id="8ecd296184134afc93b62094c3910089"
   style="opacity: 1; mix-blend-mode: normal; overflow: visible; width: 120px; height: 120px"
   id="svg43"
   sodipodi:docname="7.svg"
   inkscape:version="0.92.3 (2405546, 2018-03-11)">
  <metadata
     id="metadata47">
    <rdf:RDF>
      <cc:Work
         rdf:about="">
        <dc:format>image/svg+xml</dc:format>
        <dc:type
           rdf:resource="http://purl.org/dc/dcmitype/StillImage" />
        <dc:title></dc:title>
      </cc:Work>
    </rdf:RDF>
  </metadata>
  <sodipodi:namedview
     pagecolor="#ffffff"
     bordercolor="#666666"
     borderopacity="1"
     objecttolerance="10"
     gridtolerance="10"
     guidetolerance="10"
     inkscape:pageopacity="0"
     inkscape:pageshadow="2"
     inkscape:window-width="828"
     inkscape:window-height="480"
     id="namedview45"
     showgrid="false"
     inkscape:zoom="0.099915326"
     inkscape:cx="1181"
     inkscape:cy="1181"
     inkscape:window-x="0"
     inkscape:window-y="27"
     inkscape:window-maximized="0"
     inkscape:current-layer="svg43" />
  <defs
     id="defs4">
    <style
       type="text/css"
       id="style2">

        .fil4_1579085768250 {fill:#FDCD6A;fill-rule:nonzero}
        .fil0_1579085768250 {fill:#EBE9E8;fill-rule:nonzero}
        .fil1_1579085768250 {fill:#B0BECA;fill-rule:nonzero}
        .fil5_1579085768250 {fill:#292525;fill-rule:nonzero}
        .fil3_1579085768250 {fill:#87173E;fill-rule:nonzero}
        .fil2_1579085768250 {fill:#E1005C;fill-rule:nonzero}

    </style>
  </defs>
  <g
     id="Слой_x0020_1_1579085768250">
    <metadata
       id="CorelCorpID_0Corel-Layer_1579085768250"
       vector-effect="non-scaling-stroke" />
    <g
       id="_1579085768250">
      <path
         d="M1491.2 728.55c-62.92,0 -123.48,20.69 -175.64,55.89l-270.91 0c-52.17,-35.2 -112.73,-55.89 -175.64,-55.89 -168,0 -304.17,136.16 -304.17,304.16 0,202.59 61.79,400.31 177.07,566.89l0 0c75.61,109.22 130.85,231.21 163.07,360.09l34.65 138.56c8.1,32.38 37.18,55.08 70.56,55.08 40.19,0.04 72.77,-32.54 72.77,-72.69l0 -413.01c0,-53.66 43.48,-97.14 97.14,-97.14 53.66,0 97.15,43.48 97.15,97.14l0 413.01c0,40.15 32.58,72.73 72.73,72.73 33.39,0 62.46,-22.71 70.56,-55.09l34.65 -138.56c32.22,-128.88 87.46,-250.87 163.08,-360.09l0 0c115.31,-166.61 177.09,-364.33 177.09,-566.92 0,-168 -136.16,-304.16 -304.16,-304.16z"
         class="fil0_1579085768250"
         vector-effect="non-scaling-stroke"
         id="path7" />
      <path
         d="M1180.1 1376.19c-254.98,0 -478.54,-79.21 -604.41,-198.21 22.24,150.8 78.72,295.2 166.25,421.62l0 0c75.61,109.22 130.85,231.21 163.07,360.09l34.65 138.56c8.1,32.38 37.18,55.08 70.57,55.08 40.15,0.04 72.73,-32.54 72.73,-72.69l0 -413.01c0,-53.66 43.48,-97.14 97.14,-97.14 53.66,0 97.15,43.48 97.15,97.14l0 413.01c0,40.15 32.58,72.73 72.73,72.73 33.39,0 62.46,-22.71 70.56,-55.09l34.65 -138.56c32.22,-128.88 87.46,-250.87 163.08,-360.09l0 0c87.49,-126.39 144,-270.81 166.25,-421.62 -125.87,118.97 -349.44,198.18 -604.42,198.18z"
         class="fil1_1579085768250"
         vector-effect="non-scaling-stroke"
         id="path9" />
      <polygon
         points="1180.1,955.22 791.51,404.72 888.66,210.43 1471.54,210.43 1568.69,404.72"
         class="fil2_1579085768250"
         vector-effect="non-scaling-stroke"
         id="polygon11" />
      <polygon
         points="1471.54,210.43 1309.63,404.72 1180.1,955.22 1050.57,404.72 888.66,210.43 791.51,404.72 1050.57,404.72 1180.1,210.43 1309.63,404.72 1568.69,404.72"
         class="fil3_1579085768250"
         vector-effect="non-scaling-stroke"
         id="polygon13" />
      <path
         d="M1665.84 501.87l0 0c143.06,0 259.05,-115.99 259.05,-259.06l0 0c0,143.07 116,259.06 259.06,259.06l0 0c-143.06,0 -259.06,115.99 -259.06,259.06l0 0c0,-143.07 -115.99,-259.06 -259.05,-259.06l0 0z"
         class="fil4_1579085768250"
         vector-effect="non-scaling-stroke"
         id="path15" />
      <path
         d="M176.25 1861.93l0 0c143.07,0 259.06,-116 259.06,-259.06l0 0c0,143.06 115.99,259.06 259.06,259.06l0 0c-143.07,0 -259.06,115.99 -259.06,259.05l0 0c0,-143.06 -115.99,-259.05 -259.06,-259.05l0 0z"
         class="fil4_1579085768250"
         vector-effect="non-scaling-stroke"
         id="path17" />
      <path
         d="M1591.65 1581.14c-78.11,112.82 -134.58,237.56 -167.87,370.71l-34.62 138.56c-4.53,18.01 -20.63,30.57 -39.18,30.57 -22.25,0 -40.35,-18.1 -40.35,-40.34l0 -413.01c0,-71.43 -58.09,-129.53 -129.53,-129.53 -71.43,0 -129.53,58.1 -129.53,129.53l0 413.01c0,22.24 -18.1,40.34 -40.34,40.34 -18.56,0 -34.65,-12.56 -39.19,-30.53l-34.61 -138.57c-33.26,-133.15 -89.74,-257.89 -167.87,-370.71 -112.11,-161.88 -171.34,-351.51 -171.34,-548.46 0,-149.86 121.92,-271.78 271.79,-271.78 53.65,0 107.57,17.03 155.98,49.28l33.42 28.79 54.3 76.94c-43.58,-8.77 -85.13,-25.84 -122.4,-51l-36.24 53.69c66.87,45.14 145.01,68.97 226.03,68.97 81.02,0 159.16,-23.83 226.03,-68.97l-36.24 -53.69c-37.27,25.16 -78.81,42.26 -122.43,51.03l54.3 -76.94 33.42 -28.78c48.45,-32.29 102.36,-49.32 156.02,-49.32 149.86,0 271.78,121.92 271.78,271.78 0,196.95 -59.22,386.58 -171.33,548.43zm-566.72 -1144.03l84.87 360.67 -2.95 -2.53 -252.84 -358.14 170.92 0zm-43.49 -64.77l-137.5 0 51.55 -103.14 85.95 103.14zm66.25 -21.66l-89.86 -107.87 161.78 0 -71.92 107.87zm264.82 0l-71.92 -107.87 161.78 0 -89.86 107.87zm66.26 21.66l85.94 -103.14 51.59 103.14 -137.53 0zm-128.37 425.47l84.88 -360.7 170.91 0 -252.87 358.24 -2.92 2.46zm-139.34 -425.47l69.04 -103.52 69.04 103.52 -138.08 0zm157.67 64.77l-88.63 376.7 -88.63 -376.7 177.26 0zm222.47 259.05c-33.55,0 -67.06,5.31 -99.61,15.61l214.73 -304.2 -114.77 -229.52 -622.9 0 -114.76 229.52 214.72 304.2c-32.57,-10.3 -66.06,-15.61 -99.6,-15.61 -185.59,0 -336.55,150.97 -336.55,336.55 0,210.2 63.21,412.58 182.83,585.31 73.63,106.38 126.9,223.99 158.31,349.54l34.62 138.56c11.72,46.89 53.69,79.63 102.01,79.63 57.96,0 105.11,-47.15 105.11,-105.11l0 -413.01c0,-35.72 29.05,-64.76 64.76,-64.76 35.72,0 64.77,29.04 64.77,64.76l0 413.01c0,57.96 47.15,105.11 105.11,105.11 48.31,0 90.28,-32.74 101.97,-79.63l34.62 -138.56c31.41,-125.55 84.65,-243.16 158.31,-349.54 119.66,-172.73 182.87,-375.11 182.87,-585.31 0,-185.58 -150.97,-336.55 -336.55,-336.55z"
         class="fil5_1579085768250"
         vector-effect="non-scaling-stroke"
         id="path19" />
      <polygon
         points="467.69,566.64 532.46,566.64 532.46,501.87 467.69,501.87"
         class="fil5_1579085768250"
         vector-effect="non-scaling-stroke"
         id="polygon21" />
      <polygon
         points="402.93,631.4 467.69,631.4 467.69,566.64 402.93,566.64"
         class="fil5_1579085768250"
         vector-effect="non-scaling-stroke"
         id="polygon23" />
      <polygon
         points="467.69,696.16 532.46,696.16 532.46,631.4 467.69,631.4"
         class="fil5_1579085768250"
         vector-effect="non-scaling-stroke"
         id="polygon25" />
      <polygon
         points="532.46,631.4 597.22,631.4 597.22,566.64 532.46,566.64"
         class="fil5_1579085768250"
         vector-effect="non-scaling-stroke"
         id="polygon27" />
      <path
         d="M435.31 1988.06c-27.85,-54.09 -72.05,-98.29 -126.13,-126.13 54.08,-27.85 98.28,-72.06 126.13,-126.13 27.85,54.07 72.05,98.28 126.13,126.13 -54.08,27.84 -98.28,72.04 -126.13,126.13zm32.38 -385.19l-64.76 0c0,124.96 -101.71,226.67 -226.68,226.67l0 64.77c124.97,0 226.68,101.71 226.68,226.67l64.76 0c0,-124.96 101.71,-226.67 226.68,-226.67l0 -64.77c-124.97,0 -226.68,-101.71 -226.68,-226.67z"
         class="fil5_1579085768250"
         vector-effect="non-scaling-stroke"
         id="path29" />
      <path
         d="M1924.89 628c-27.84,-54.08 -72.05,-98.28 -126.13,-126.13 54.08,-27.85 98.29,-72.05 126.13,-126.13 27.85,54.08 72.05,98.28 126.13,126.13 -54.08,27.85 -98.28,72.05 -126.13,126.13zm32.39 -385.19l-64.77 0c0,124.97 -101.71,226.68 -226.67,226.68l0 64.76c124.96,0 226.67,101.72 226.67,226.68l64.77 0c0,-124.96 101.71,-226.68 226.67,-226.68l0 -64.76c-124.96,0 -226.67,-101.71 -226.67,-226.68z"
         class="fil5_1579085768250"
         vector-effect="non-scaling-stroke"
         id="path31" />
      <polygon
         points="1795.36,1764.78 1860.13,1764.78 1860.13,1700.01 1795.36,1700.01"
         class="fil5_1579085768250"
         vector-effect="non-scaling-stroke"
         id="polygon33" />
      <polygon
         points="1730.6,1829.54 1795.36,1829.54 1795.36,1764.78 1730.6,1764.78"
         class="fil5_1579085768250"
         vector-effect="non-scaling-stroke"
         id="polygon35" />
      <polygon
         points="1795.36,1894.31 1860.13,1894.31 1860.13,1829.54 1795.36,1829.54"
         class="fil5_1579085768250"
         vector-effect="non-scaling-stroke"
         id="polygon37" />
      <polygon
         points="1860.13,1829.54 1924.89,1829.54 1924.89,1764.78 1860.13,1764.78"
         class="fil5_1579085768250"
         vector-effect="non-scaling-stroke"
         id="polygon39" />
    </g>
  </g>
</svg>