<?xml version="1.0" encoding="UTF-8" standalone="no"?>
<svg
   xmlns:dc="http://purl.org/dc/elements/1.1/"
   xmlns:cc="http://creativecommons.org/ns#"
   xmlns:rdf="http://www.w3.org/1999/02/22-rdf-syntax-ns#"
   xmlns:svg="http://www.w3.org/2000/svg"
   xmlns="http://www.w3.org/2000/svg"
   xmlns:sodipodi="http://sodipodi.sourceforge.net/DTD/sodipodi-0.dtd"
   xmlns:inkscape="http://www.inkscape.org/namespaces/inkscape"
   version="1.2"
   preserveAspectRatio="none"
   viewBox="0 0 2362 2362"
   class="ng-element"
   data-id="797f038409ea41e28ce683acadfe11ce"
   style="opacity: 1; mix-blend-mode: normal; overflow: visible; width: 120px; height: 120px"
   id="svg39"
   sodipodi:docname="8.svg"
   inkscape:version="0.92.3 (2405546, 2018-03-11)">
  <metadata
     id="metadata43">
    <rdf:RDF>
      <cc:Work
         rdf:about="">
        <dc:format>image/svg+xml</dc:format>
        <dc:type
           rdf:resource="http://purl.org/dc/dcmitype/StillImage" />
        <dc:title></dc:title>
      </cc:Work>
    </rdf:RDF>
  </metadata>
  <sodipodi:namedview
     pagecolor="#ffffff"
     bordercolor="#666666"
     borderopacity="1"
     objecttolerance="10"
     gridtolerance="10"
     guidetolerance="10"
     inkscape:pageopacity="0"
     inkscape:pageshadow="2"
     inkscape:window-width="828"
     inkscape:window-height="480"
     id="namedview41"
     showgrid="false"
     inkscape:zoom="0.099915326"
     inkscape:cx="1181"
     inkscape:cy="1181"
     inkscape:window-x="0"
     inkscape:window-y="27"
     inkscape:window-maximized="0"
     inkscape:current-layer="svg39" />
  <defs
     id="defs4">
    <style
       type="text/css"
       id="style2">

        .fil5_1579173223118 {fill:#E1005C}
        .fil6_1579173223118 {fill:#2B2A29;fill-rule:nonzero}
        .fil2_1579173223118 {fill:#B4CBD6;fill-rule:nonzero}
        .fil0_1579173223118 {fill:#FFD0B0;fill-rule:nonzero}
        .fil4_1579173223118 {fill:black;fill-rule:nonzero}
        .fil1_1579173223118 {fill:#F5F5F6;fill-rule:nonzero}
        .fil3_1579173223118 {fill:white;fill-rule:nonzero}

    </style>
  </defs>
  <g
     id="Слой_x0020_1_1579173223118">
    <metadata
       id="CorelCorpID_0Corel-Layer_1579173223118"
       vector-effect="non-scaling-stroke" />
    <g
       id="_1579173223118">
      <path
         d="M1811.53 1677.33l-15.46 24.59c-14.93,23.8 -35.09,43.8 -58.93,58.5l-512.47 313.98 -364.88 -539.25 153.47 -85.64c-41.31,20.95 -91.99,7.02 -116.07,-33.13 -25.42,-42.39 -11.64,-97.9 30.74,-124.02l274.18 -168.92c77.94,-48.03 174.22,-53.38 255.88,-14.24l5.79 2.78 347.75 565.35z"
         class="fil0_1579173223118"
         vector-effect="non-scaling-stroke"
         id="path7" />
      <path
         d="M1714.98 1856.41c-27.17,38.98 -80.59,46.54 -116.51,17.65l-6.03 -2.97c33.31,26.81 42,75.79 17.18,111.31 -27.21,38.93 -80.62,46.54 -116.55,17.64l-34.73 -27.94c35.91,28.9 40.19,82.87 8.27,118.06 -29.13,32.08 -78.63,34.23 -111.91,7.42l-32.58 -26.25c35.91,28.9 40.19,82.93 8.26,118.07 -29.12,32.08 -78.62,34.27 -111.92,7.45l-611.28 -491.94c-21.56,-17.37 -38.75,-39.61 -50.23,-64.93l-14.2 -31.38 326.18 -530.31c69.48,0.72 280.95,5.81 337.34,42.76 -1.37,0.83 -2.78,1.53 -4.16,2.39l-274.18 168.92c-42.38,26.12 -56.16,81.65 -30.74,124.02 25.41,42.36 80.39,55.53 122.79,29.42l165.2 -101.78 512.63 401.09c33.33,26.81 42,75.79 17.17,111.3z"
         class="fil0_1579173223118"
         vector-effect="non-scaling-stroke"
         id="path9" />
      <path
         d="M792.21 1825.85l-32.77 39.46c-22.28,26.84 -61.85,30.33 -88.4,7.83l-24.04 -20.38c-26.54,-22.51 -30,-62.5 -7.73,-89.33l32.78 -39.47c22.27,-26.81 61.84,-30.31 88.39,-7.81l24.04 20.38c26.53,22.52 30,62.51 7.73,89.32z"
         class="fil0_1579173223118"
         vector-effect="non-scaling-stroke"
         id="path11" />
      <path
         d="M887.15 1958.1l-32.77 39.46c-22.27,26.83 -61.85,30.34 -88.38,7.81l-24.04 -20.37c-26.55,-22.51 -30,-62.51 -7.73,-89.33l32.76 -39.46c22.27,-26.83 61.86,-30.33 88.4,-7.81l24.03 20.38c26.55,22.5 30,62.49 7.73,89.32z"
         class="fil0_1579173223118"
         vector-effect="non-scaling-stroke"
         id="path13" />
      <path
         d="M1007.31 2059.97l-32.79 39.48c-22.27,26.83 -61.83,30.33 -88.37,7.81l-24.03 -20.38c-26.55,-22.5 -30.01,-62.49 -7.74,-89.32l32.77 -39.47c22.28,-26.82 61.85,-30.32 88.39,-7.82l24.03 20.4c26.55,22.5 30.01,62.49 7.74,89.3z"
         class="fil0_1579173223118"
         vector-effect="non-scaling-stroke"
         id="path15" />
      <path
         d="M1152.68 2131.51l-32.78 39.48c-22.28,26.82 -61.84,30.32 -88.39,7.81l-24.04 -20.38c-26.53,-22.51 -30,-62.5 -7.73,-89.32l32.77 -39.48c22.27,-26.81 61.85,-30.31 88.4,-7.81l24.03 20.39c26.54,22.5 30.01,62.5 7.74,89.31z"
         class="fil0_1579173223118"
         vector-effect="non-scaling-stroke"
         id="path17" />
      <polygon
         points="915.11,1003.21 524.79,1637.81 391.19,1555.63 781.51,921.03"
         class="fil1_1579173223118"
         vector-effect="non-scaling-stroke"
         id="polygon19" />
      <polygon
         points="347.1,1628.19 215.46,1542.28 215.46,560.59 781.5,920.99"
         class="fil2_1579173223118"
         vector-effect="non-scaling-stroke"
         id="polygon21" />
      <polygon
         points="1969.04,1634.05 1835.44,1716.24 1445.12,1081.63 1578.72,999.44"
         class="fil2_1579173223118"
         vector-effect="non-scaling-stroke"
         id="polygon23" />
      <polygon
         points="2013.11,1706.62 2144.74,1620.7 2144.74,639.01 1578.72,999.42"
         class="fil3_1579173223118"
         vector-effect="non-scaling-stroke"
         id="polygon25" />
      <path
         d="M2163.62 604.65c-12.56,-6.89 -27.86,-6.4 -39.94,1.3l-699.11 442.24c-2.39,1.46 -4.57,3.19 -6.56,5.1 -70.93,-18.02 -146.25,-9.99 -212.89,23.57 -62.62,-24.94 -181.32,-33.55 -266.88,-36.47l10.27 -16.69c5.43,-8.86 7.15,-19.51 4.73,-29.62 -2.41,-10.13 -8.75,-18.85 -17.61,-24.31l-699.11 -442.26c-12.06,-7.69 -27.36,-8.16 -39.93,-1.29 -12.54,6.9 -20.34,20.06 -20.34,34.37l0 981.69c0,13.26 6.69,25.59 17.79,32.84l131.62 85.91c17.91,11.7 43.33,6.44 54.85,-12.31l23.93 -38.93 99.79 61.37c8.26,5.08 18,6.83 27.52,5.11 13.24,22.59 30.52,42.79 50.86,59.15l18.16 14.62c-26.31,42.57 -18.26,99.44 20.86,132.63l24.04 20.36c10.65,9.03 22.76,15.55 35.69,19.57 -4.5,33.68 7.62,68.9 35.23,92.31l24.04 20.39c17.66,14.98 39.36,23.23 62.11,24 4.48,21.73 15.9,42.16 34.01,57.51l24.03 20.38c18.56,15.73 41.53,24.14 65.52,24.14 2.98,0 5.99,-0.12 8.99,-0.38 7.49,-0.66 14.78,-2.15 21.78,-4.34 5.99,11.83 14.35,22.66 25.03,31.72l24.04 20.4c18.55,15.73 41.53,24.12 65.52,24.12 2.99,0 5.98,-0.11 9,-0.38 27.23,-2.38 51.88,-15.34 69.4,-36.44l1.96 -2.35 41.85 33.69c22.71,18.28 50,27.24 77.06,27.24 32.77,0 65.12,-13.16 88.46,-38.85 15.78,-17.39 26.12,-38.94 29.99,-61.7 38.52,5.63 78.7,-7.23 106.26,-37.59 15.63,-17.22 25.93,-38.52 29.87,-61.05 11.24,1.67 22.76,1.73 34.2,0.1 32.92,-4.69 62.83,-23.17 82.05,-50.67 15.76,-22.59 22.6,-49.02 21.16,-75 0.72,-0.1 1.46,-0.19 2.18,-0.3 32.92,-4.69 62.83,-23.17 82.05,-50.67 18.98,-27.2 25,-59.97 19.24,-90.8 16.78,-11.46 31.95,-25.34 45.03,-40.95 -1.39,1.71 15.29,6.03 16.62,6.31 10.12,2.3 18.73,1.81 27.93,-3.84l99.81 -61.39c0,0 23.9,38.92 23.91,38.96 11.37,18.49 36.68,24.17 54.86,12.3l131.63 -85.92c11.08,-7.23 17.77,-19.59 17.77,-32.84l0 -981.7c0.02,-14.3 -7.79,-27.47 -20.33,-34.36zm-1828.84 968.69l-80.1 -52.29 0 -889 148.9 94.8 -48.29 85.39c-10.65,18.86 -4,42.79 14.83,53.43 6.12,3.45 12.74,5.09 19.28,5.09 13.67,0 26.95,-7.17 34.18,-19.92l46.26 -81.8 125.72 80.06 -61.19 99.45c-11.31,18.41 -5.56,42.59 12.85,53.92 6.18,3.81 13.27,5.83 20.49,5.83 13.76,0 26.28,-6.96 33.45,-18.69l60.54 -98.41 66.17 42.15 -393.09 639.99zm177.14 10.48l-66.44 -40.87 348.89 -568 66.78 41.07 -349.23 567.8zm157.52 204.66c0,0 32.63,-39.29 32.77,-39.46 7.86,-9.45 23.02,-11.29 32.86,-2.96l24.04 20.38c10.17,8.64 11.48,24.05 2.91,34.36 0,0 -42.45,47.32 -48.65,47.87 -6.18,0.56 -12.2,-1.38 -16.97,-5.43l-24.04 -20.38c-10.17,-8.64 -11.49,-24.05 -2.92,-34.38zm97.88 166.63c-10.18,-8.64 -11.5,-24.07 -2.94,-34.38 0,0 32.79,-39.46 32.82,-39.5 7.81,-9.41 23.05,-11.19 32.82,-2.91l24.03 20.37c10.17,8.63 11.49,24.04 2.91,34.38l-32.75 39.46c-4.05,4.86 -9.69,7.85 -15.9,8.41 -6.17,0.5 -12.18,-1.4 -16.96,-5.47l-24.03 -20.36zm161.11 127.37c-5.95,0.55 -12.14,-1.06 -16.92,-5.11l-24.04 -20.38c-10.17,-8.63 -11.49,-24.06 -2.92,-34.38 0,0 32.77,-39.45 32.79,-39.46 7.89,-10.93 17.69,-15.8 32.84,-2.95 0.01,0.01 24.02,20.37 24.02,20.37 10.19,8.64 11.5,24.06 2.93,34.38 0,0 -32.66,39.32 -32.76,39.47 -3.92,4.69 -9.81,7.5 -15.94,8.06zm194.07 24c0,0 -32.63,39.29 -32.76,39.46 -8.05,9.67 -23.3,11.07 -32.88,2.96l-24.02 -20.38c-10.17,-8.63 -11.49,-24.04 -2.96,-34.35 0,0 32.77,-39.46 32.8,-39.49 7.93,-9.58 22.9,-11.4 32.86,-2.94l24.03 20.36c10.19,8.64 11.48,24.05 2.93,34.38zm560.34 -272.53c-8.73,12.52 -23.94,19.31 -39.09,17.82 -13.4,-1.32 -22.45,-10.21 -33.98,-15.88 -17.92,-8.84 -39.64,-2.79 -50.4,14.07 -10.76,16.87 -7.1,39.11 8.47,51.65 17.77,14.3 22.09,40.45 9.61,58.32 -6.92,9.91 -17.16,16.28 -28.84,17.95 -11.22,1.61 -22.21,-1.4 -30.95,-8.42l-34.6 -27.84c-0.04,-0.04 -0.09,-0.08 -0.14,-0.11 -16.88,-13.6 -41.56,-10.93 -55.14,5.96 -13.58,16.86 -10.91,41.56 6,55.16 8.78,7.07 14.1,17.27 15,28.74 0.93,11.89 -3.06,23.4 -11.21,32.38 -14.5,15.98 -40.65,17.44 -58.29,3.25l-32.6 -26.24c-16.88,-13.58 -41.56,-10.91 -55.14,5.96 -13.57,16.88 -10.91,41.56 5.97,55.14 8.79,7.08 14.15,17.3 15.03,28.76 0.93,11.91 -3.04,23.42 -11.19,32.4 -14.51,15.97 -40.67,17.43 -58.31,3.25l-44.44 -35.77c16.76,-40.29 6.55,-88.65 -28.3,-118.21l-24.02 -20.38c-20.89,-17.69 -47.35,-26.12 -74.53,-23.76 -7.49,0.66 -14.77,2.15 -21.76,4.35 -5.99,-11.84 -14.36,-22.67 -25.05,-31.74l-24.03 -20.38c-17.68,-15 -39.39,-23.32 -62.13,-24.07 -4.48,-21.7 -15.92,-42.1 -34,-57.43l-24.03 -20.4c-10.63,-9.02 -22.74,-15.62 -35.65,-19.61 4.45,-33.64 -7.66,-68.85 -35.27,-92.25l-24.03 -20.37c-20.86,-17.71 -47.32,-26.15 -74.52,-23.76 -22.91,2.01 -44,11.53 -60.56,27.09l-18.94 -15.24c-16.7,-13.44 -30.2,-30.94 -39.1,-50.57l-5.61 -12.41 303.64 -493.67c72.89,1.21 158.77,6.24 220.3,15.77l-203.62 125.47c-60.5,37.3 -80.16,116.96 -43.8,177.59 17.65,29.43 45.72,50.11 79.01,58.22 33.55,8.18 68.34,2.64 97.95,-15.59l141.95 -87.46 490.92 384.08c17.62,14.34 21.87,40.38 9.42,58.18zm45 -114.75c-1.76,-1.59 -262.9,-206.1 -262.9,-206.1l33.78 -21.2c18.34,-11.51 23.89,-35.71 12.37,-54.05 -11.5,-18.35 -35.7,-23.88 -54.06,-12.39l-57.77 36.26 -189.93 -148.61c-12.93,-10.12 -30.78,-11.12 -44.74,-2.5l-165.19 101.78c-11.62,7.15 -25.2,9.35 -38.22,6.17 -12.76,-3.1 -23.55,-11.05 -30.34,-22.38 -14.38,-23.98 -6.44,-55.6 17.7,-70.47 0,0 292.2,-180.58 293.23,-179.51 61.44,-30.4 132.49,-31.91 194.8,-3.65l328.78 534.52c0,0 -23.73,31.66 -37.51,42.13zm120.45 -56.95l-349.22 -567.82 66.76 -41.05 348.91 567.99 -66.45 40.88zm257.24 -62.78l-80.09 52.28 -20.44 -33.23c-0.74,-1.73 -1.56,-3.44 -2.55,-5.05l-370.1 -601.71 66.17 -42.15 60.53 98.42c7.17,11.72 19.68,18.7 33.4,18.7 7.26,0 14.37,-2.03 20.52,-5.85 8.95,-5.47 15.18,-14.1 17.59,-24.31 2.44,-10.19 0.75,-20.69 -4.72,-29.6l-61.18 -99.45 125.72 -80.06 46.26 81.79c7.22,12.77 20.49,19.93 34.18,19.93 6.54,0 13.16,-1.63 19.26,-5.09 18.85,-10.65 25.5,-34.58 14.83,-53.44l-48.28 -85.38 148.9 -94.8 0 889z"
         class="fil4_1579173223118"
         vector-effect="non-scaling-stroke"
         id="path27" />
      <path
         d="M506.15 1069.3c-6.19,-3.81 -13.29,-5.82 -20.51,-5.82 -13.76,0 -26.23,6.94 -33.44,18.68 -5.49,8.9 -7.18,19.44 -4.76,29.6 2.45,10.19 8.67,18.82 17.61,24.31 6.2,3.81 13.3,5.83 20.52,5.83 13.72,0 26.22,-6.98 33.44,-18.69 5.49,-8.9 7.16,-19.41 4.76,-29.62 -2.44,-10.17 -8.72,-18.82 -17.62,-24.29z"
         class="fil4_1579173223118"
         vector-effect="non-scaling-stroke"
         id="path29" />
      <path
         d="M1874.58 1141.87c-7.22,0 -14.32,2.05 -20.52,5.85 -18.39,11.33 -24.19,35.52 -12.86,53.95 7.21,11.68 19.69,18.66 33.45,18.66 7.22,0 14.31,-2.02 20.51,-5.85 8.9,-5.48 15.16,-14.1 17.6,-24.31 2.44,-10.16 0.75,-20.68 -4.74,-29.59 -7.21,-11.74 -19.69,-18.71 -33.44,-18.71z"
         class="fil4_1579173223118"
         vector-effect="non-scaling-stroke"
         id="path31" />
    </g>
    <polygon
       points="1214.35,109.18 1335.78,323.18 1576.82,372.53 1410.82,554.15 1438.37,798.64 1214.35,696.89 990.33,798.64 1017.88,554.15 851.88,372.53 1092.92,323.18"
       class="fil5_1579173223118"
       vector-effect="non-scaling-stroke"
       id="polygon34" />
    <path
       d="M1248.67 89.7l112.6 198.43 291.51 59.69 -200.7 219.59 33.34 296 -271.07 -123.12 -271.07 123.12 33.35 -296 -200.71 -219.59 291.52 -59.69 146.91 -258.91 34.32 60.48zm52.78 252.96l-87.1 -153.51 -95.93 169.08 -190.58 39.02 131.29 143.64 -21.74 192.98 176.96 -80.37 176.96 80.37 -21.74 -192.98 131.29 -143.64 -190.57 -39.02 -8.84 -15.57z"
       class="fil6_1579173223118"
       vector-effect="non-scaling-stroke"
       id="path36" />
  </g>
</svg>