<?xml version="1.0" encoding="UTF-8" standalone="no"?>
<svg
   xmlns:dc="http://purl.org/dc/elements/1.1/"
   xmlns:cc="http://creativecommons.org/ns#"
   xmlns:rdf="http://www.w3.org/1999/02/22-rdf-syntax-ns#"
   xmlns:svg="http://www.w3.org/2000/svg"
   xmlns="http://www.w3.org/2000/svg"
   xmlns:sodipodi="http://sodipodi.sourceforge.net/DTD/sodipodi-0.dtd"
   xmlns:inkscape="http://www.inkscape.org/namespaces/inkscape"
   version="1.2"
   preserveAspectRatio="none"
   viewBox="0 0 1772 1772"
   class="ng-element"
   data-id="c28555cb04904d0791cf6a608e5bf556"
   style="opacity: 1; mix-blend-mode: normal; overflow: visible; width: 220px; height: 220px"
   id="svg79"
   sodipodi:docname="ask-question.svg"
   inkscape:version="0.92.3 (2405546, 2018-03-11)">
  <metadata
     id="metadata83">
    <rdf:RDF>
      <cc:Work
         rdf:about="">
        <dc:format>image/svg+xml</dc:format>
        <dc:type
           rdf:resource="http://purl.org/dc/dcmitype/StillImage" />
        <dc:title></dc:title>
      </cc:Work>
    </rdf:RDF>
  </metadata>
  <sodipodi:namedview
     pagecolor="#ffffff"
     bordercolor="#666666"
     borderopacity="1"
     objecttolerance="10"
     gridtolerance="10"
     guidetolerance="10"
     inkscape:pageopacity="0"
     inkscape:pageshadow="2"
     inkscape:window-width="828"
     inkscape:window-height="480"
     id="namedview81"
     showgrid="false"
     inkscape:zoom="0.13318284"
     inkscape:cx="886"
     inkscape:cy="886"
     inkscape:window-x="0"
     inkscape:window-y="27"
     inkscape:window-maximized="0"
     inkscape:current-layer="svg79" />
  <defs
     id="defs4">
    <style
       type="text/css"
       id="style2">

        @font-face { font-family:&quot;Montserrat ExtraBold&quot;;font-variant:normal;font-style:normal;font-weight:800;src:url(&quot;#FontID0_1578655899249&quot;) format(svg)}
        .fil13_1579599141385 {fill:#E1005D}
        .fil12_1579599141385 {fill:white}
        .fil7_1579599141385 {fill:#394154;fill-rule:nonzero}
        .fil2_1579599141385 {fill:#70504F;fill-rule:nonzero}
        .fil1_1579599141385 {fill:#835E5B;fill-rule:nonzero}
        .fil11_1579599141385 {fill:#ACABAC;fill-rule:nonzero}
        .fil9_1579599141385 {fill:#B31E52;fill-rule:nonzero}
        .fil8_1579599141385 {fill:#E1005C;fill-rule:nonzero}
        .fil6_1579599141385 {fill:#E8E6E5;fill-rule:nonzero}
        .fil4_1579599141385 {fill:#F4D8A8;fill-rule:nonzero}
        .fil5_1579599141385 {fill:#FEFEFE;fill-rule:nonzero}
        .fil0_1579599141385 {fill:#FFB2D2;fill-rule:nonzero}
        .fil3_1579599141385 {fill:#FFE2AF;fill-rule:nonzero}
        .fil10_1579599141385 {fill:white;fill-rule:nonzero}
        .fnt0_1579599141385 {font-weight:800;font-size:387.4px;font-family:'Montserrat ExtraBold'}

    </style>
  </defs>
  <g
     id="Слой_x0020_1_1579599141385">
    <metadata
       id="CorelCorpID_0Corel-Layer_1579599141385"
       vector-effect="non-scaling-stroke" />
    <g
       id="_1579599141385">
      <g
         id="g63">
        <path
           d="M1720.54 902.77c0,461.09 -373.79,834.88 -834.88,834.88 -461.1,0 -834.89,-373.79 -834.89,-834.88 0,-461.1 373.79,-834.89 834.89,-834.89 461.09,0 834.88,373.79 834.88,834.89z"
           class="fil0_1579599141385"
           vector-effect="non-scaling-stroke"
           id="path7" />
        <path
           d="M1217.76 537.42c0,-254.57 -207.86,-328.54 -332.1,-328.54 -125.31,0 -330.61,64.41 -330.61,328.54 0,258.56 -105.81,245.08 -97.42,391.74 13.26,231.66 212.66,285.59 428.78,285.59 216.11,0 415.51,-53.93 428.77,-285.59 8.39,-146.66 -97.42,-133.18 -97.42,-391.74z"
           class="fil1_1579599141385"
           vector-effect="non-scaling-stroke"
           id="path9" />
        <path
           d="M1217.76 537.42c0,-120.71 -46.75,-200.8 -109.15,-251.66 40.41,49.83 67.45,118.15 67.45,209.96 0,258.56 78.2,260.38 69.8,407.05 -13.26,231.66 -185.04,270.28 -401.15,270.28 -128.22,0 -250.55,-18.98 -331.62,-82.8 76.24,97.55 220.6,124.5 373.32,124.5 216.11,0 415.51,-53.93 428.77,-285.59 8.39,-146.66 -97.42,-133.18 -97.42,-391.74z"
           class="fil2_1579599141385"
           vector-effect="non-scaling-stroke"
           id="path11" />
        <path
           d="M1160.92 578.19c0,165.72 -123.24,300.06 -275.26,300.06 -152.03,0 -275.27,-134.34 -275.27,-300.06 0,-165.72 123.24,-300.06 275.27,-300.06 152.02,0 275.26,134.34 275.26,300.06z"
           class="fil3_1579599141385"
           vector-effect="non-scaling-stroke"
           id="path13" />
        <polygon
           points="946.41,998.62 886.69,1054.2 824.9,998.62 824.9,848.92 946.41,848.92"
           class="fil4_1579599141385"
           vector-effect="non-scaling-stroke"
           id="polygon15" />
        <path
           d="M1049.69 337.23l-224.22 124.43c33.79,157.03 261.61,206.51 261.61,206.51 -47.23,100.88 -147.37,168.38 -243.12,168.38 -61.48,0 -118.23,-21.98 -164.05,-59.1 50.42,61.82 123.89,100.8 205.75,100.8 152.02,0 275.26,-134.34 275.26,-300.06 0,-98.71 -43.74,-186.27 -111.23,-240.96z"
           class="fil4_1579599141385"
           vector-effect="non-scaling-stroke"
           id="path17" />
        <path
           d="M1522.78 1611.24c0,16.04 -13.13,29.17 -29.17,29.17l-1215.91 0c-16.05,0 -29.17,-13.13 -29.17,-29.17l0 -4.66c0,-16.04 13.12,-29.17 29.17,-29.17l1215.91 0c16.04,0 29.17,13.13 29.17,29.17l0 4.66z"
           class="fil1_1579599141385"
           vector-effect="non-scaling-stroke"
           id="path19" />
        <path
           d="M1085.95 351.97c-73.59,-80.52 -174.99,-85.82 -247.53,-73.84 -74.4,12.29 -209.76,75.23 -229.04,254.46 0,0 129.19,3.62 216.09,-70.93 49.45,87.96 146.33,179.95 335.45,179.95 0,0 38.34,-165.66 -74.97,-289.64z"
           class="fil1_1579599141385"
           vector-effect="non-scaling-stroke"
           id="path21" />
        <path
           d="M1182.07 1018.1c-71.36,-17.04 -241.76,-73.66 -241.76,-73.66l-55.46 104.19 -51.29 -104.19c0,0 -194.55,57.61 -263.24,83.35 -62.21,23.3 -100.29,311.79 -122.86,453.4 -6.34,39.75 78.4,97.11 78.4,97.11l358.99 0 346.7 0c0,0 95.86,-69.86 89.57,-104.48 -25.8,-142.18 -46.67,-433.67 -139.05,-455.72z"
           class="fil5_1579599141385"
           vector-effect="non-scaling-stroke"
           id="path23" />
        <path
           d="M824.9 923.59l-64.55 45.85c0,0 49.25,23.97 125.05,79.19l-60.5 -125.04z"
           class="fil6_1579599141385"
           vector-effect="non-scaling-stroke"
           id="path25" />
        <path
           d="M947.38 923.59l62.52 45.85c0,0 -52.36,23.97 -125.05,79.19l62.53 -125.04z"
           class="fil6_1579599141385"
           vector-effect="non-scaling-stroke"
           id="path27" />
        <path
           d="M569.64 564c-0.17,-5.79 -3.13,-142.78 87.19,-235.8 52.71,-54.29 126.27,-81.81 218.64,-81.81 168.44,0 248.25,86.45 285.54,158.98 40.23,78.24 40.69,155.2 40.69,158.44l-12.5 0c0,-0.76 -0.52,-77.55 -39.51,-153.12 -51.97,-100.73 -144.23,-151.8 -274.22,-151.8 -88.86,0 -159.4,26.25 -209.67,78.02 -86.68,89.26 -83.71,225.35 -83.67,226.72l-12.49 0.37z"
           class="fil7_1579599141385"
           vector-effect="non-scaling-stroke"
           id="path29" />
        <path
           d="M1279.64 1501.92c0,16.25 -13.3,29.55 -29.55,29.55l-728.87 0c-16.25,0 -29.55,-13.3 -29.55,-29.55l0 -398.9c0,-16.26 13.3,-29.56 29.55,-29.56l728.87 0c16.25,0 29.55,13.3 29.55,29.56l0 398.9z"
           class="fil8_1579599141385"
           vector-effect="non-scaling-stroke"
           id="path31" />
        <path
           d="M1250.09 1073.46l-28.14 0c0,0 -65.71,428.46 -730.28,428.46 0,16.25 13.3,29.55 29.55,29.55l728.87 0c16.25,0 29.55,-13.3 29.55,-29.55l0 -398.9c0,-16.26 -13.3,-29.56 -29.55,-29.56z"
           class="fil9_1579599141385"
           vector-effect="non-scaling-stroke"
           id="path33" />
        <path
           d="M973.98 1302.46c0,48.79 -39.55,88.33 -88.32,88.33 -48.78,0 -88.33,-39.54 -88.33,-88.33 0,-48.77 39.55,-88.32 88.33,-88.32 48.77,0 88.32,39.55 88.32,88.32z"
           class="fil10_1579599141385"
           vector-effect="non-scaling-stroke"
           id="path35" />
        <path
           d="M704.74 1542.93c0,26.38 -6.15,7.53 -13.72,7.53l-113.96 0c-7.58,0 -13.73,14.88 -13.73,-7.53l0 -14.62c0,-7.58 6.15,-13.72 13.73,-13.72l113.96 0c7.57,0 13.72,6.14 13.72,13.72l0 14.62z"
           class="fil10_1579599141385"
           vector-effect="non-scaling-stroke"
           id="path37" />
        <path
           d="M1207.97 1550.99c0,7.58 -6.13,6 -13.72,6l-113.95 0c-7.58,0 -13.72,2.11 -13.72,-5.47l0 -23.21c0,-7.58 6.14,-13.72 13.72,-13.72l113.95 0c7.59,0 13.72,6.14 13.72,13.72l0 22.68z"
           class="fil10_1579599141385"
           vector-effect="non-scaling-stroke"
           id="path39" />
        <path
           d="M1279.64 1560.17c0,9.52 -7.72,17.24 -17.24,17.24l-753.49 0c-9.52,0 -17.24,-7.72 -17.24,-17.24 0,-9.52 7.72,-17.24 17.24,-17.24l753.49 0c9.52,0 17.24,7.72 17.24,17.24z"
           class="fil8_1579599141385"
           vector-effect="non-scaling-stroke"
           id="path41" />
        <path
           d="M805.26 839.8c-92.25,0 -159.08,-23.61 -198.61,-70.18 -48.19,-56.76 -37.44,-126.1 -36.96,-129.02l12.34 2.02c-0.11,0.66 -10.21,66.78 34.26,119.04 37.07,43.56 100.65,65.64 188.97,65.64l0 12.5z"
           class="fil7_1579599141385"
           vector-effect="non-scaling-stroke"
           id="path43" />
        <path
           d="M607.99 665.39c-45.59,0 -82.55,-36.96 -82.55,-82.55l0 -9.29c0,-45.6 36.96,-82.56 82.55,-82.56l0 174.4z"
           class="fil11_1579599141385"
           vector-effect="non-scaling-stroke"
           id="path45" />
        <path
           d="M623.91 668.11c0,9.89 -8.02,17.91 -17.91,17.91 -9.89,0 -17.92,-8.02 -17.92,-17.91l0 -179.84c0,-9.88 8.03,-17.91 17.92,-17.91 9.89,0 17.91,8.03 17.91,17.91l0 179.84z"
           class="fil7_1579599141385"
           vector-effect="non-scaling-stroke"
           id="path47" />
        <path
           d="M1163.31 490.99c45.59,0 82.55,36.96 82.55,82.56l0 9.29c0,45.59 -36.96,82.55 -82.55,82.55l0 -174.4z"
           class="fil11_1579599141385"
           vector-effect="non-scaling-stroke"
           id="path49" />
        <path
           d="M1202.5 500.88c11.45,14.17 18.33,32.18 18.33,51.82l0 9.29c0,36.86 -24.17,68.06 -57.52,78.66l0 24.74c45.59,0 82.55,-36.96 82.55,-82.55l0 -9.29c0,-31.41 -17.54,-58.72 -43.36,-72.67z"
           class="fil11_1579599141385"
           vector-effect="non-scaling-stroke"
           id="path51" />
        <path
           d="M1147.39 488.27c0,-9.88 8.03,-17.91 17.92,-17.91 9.89,0 17.91,8.03 17.91,17.91l0 179.84c0,9.89 -8.02,17.91 -17.91,17.91 -9.89,0 -17.92,-8.02 -17.92,-17.91l0 -179.84z"
           class="fil7_1579599141385"
           vector-effect="non-scaling-stroke"
           id="path53" />
        <path
           d="M854.59 833.55c0,18.28 -14.82,33.09 -33.09,33.09 -18.27,0 -33.09,-14.81 -33.09,-33.09 0,-18.27 14.82,-33.08 33.09,-33.08 18.27,0 33.09,14.81 33.09,33.08z"
           class="fil7_1579599141385"
           vector-effect="non-scaling-stroke"
           id="path55" />
        <path
           d="M1415.25 36.15c-155.85,0 -282.2,126.34 -282.2,282.19 0,42.91 9.62,83.56 26.76,119.97l-88.68 169.43 169.46 -67.84c48.05,37.93 108.69,60.63 174.66,60.63 155.84,0 282.19,-126.34 282.19,-282.19 0,-155.85 -126.35,-282.19 -282.19,-282.19z"
           class="fil8_1579599141385"
           vector-effect="non-scaling-stroke"
           id="path57" />
        <path
           d="M1660.56 178.91c7.68,25.68 11.87,52.87 11.87,81.05 0,155.85 -126.35,282.2 -282.19,282.2 -65.98,0 -126.61,-22.7 -174.66,-60.63l-144.45 126.21 169.46 -67.84c48.05,37.93 108.69,60.63 174.66,60.63 155.84,0 282.19,-126.34 282.19,-282.19 0,-50.73 -13.45,-98.29 -36.88,-139.43z"
           class="fil9_1579599141385"
           vector-effect="non-scaling-stroke"
           id="path59" />
        <text
           class="fil12_1579599141385 fnt0_1579599141385"
           y="451.39"
           x="1303.33"
           vector-effect="non-scaling-stroke"
           id="text61">?</text>
      </g>
      <g
         id="g75">
        <path
           d="M838.39 1294.97c0.91,-9.08 6.81,-12.49 17.71,-13.62 10.89,-1.14 11.12,-13.85 14.3,-19.98 5.67,-11.35 13.39,-9.53 13.39,-9.53 0,0 -6.58,-8.63 -12.03,-10.67 -5.67,-2.05 -13.62,-2.95 -16.34,11.35 -2.73,14.3 -2.73,28.6 -19.3,35.41 -16.57,6.81 -11.8,21.79 -7.04,25.43 19.07,14.98 19.75,19.75 19.75,19.75 0,0 2.05,-7.72 0,-13.17 -2.04,-5.45 -11.35,-15.67 -10.44,-24.97z"
           class="fil13_1579599141385"
           vector-effect="non-scaling-stroke"
           id="path65" />
        <path
           d="M865.18 1349.45c-8.17,1.14 -12.49,-3.4 -12.49,-3.4 1.14,12.25 2.95,15.66 14.53,16.57 11.58,0.9 15.44,-5.91 22.02,-9.76 6.58,-3.86 13.62,-6.36 13.62,-6.36 0,0 -5.45,-2.04 -14.75,-2.5 -9.31,-0.23 -14.76,4.09 -22.93,5.45z"
           class="fil13_1579599141385"
           vector-effect="non-scaling-stroke"
           id="path67" />
        <path
           d="M936.23 1297.92c-0.91,-9.54 6.36,-13.39 4.54,-26.56 -1.81,-13.17 -15.66,-12.03 -30.87,-11.35 -8.17,0.45 -17.25,-1.14 -17.25,-1.14 0,0 1.36,4.32 3.86,7.72 2.49,3.41 8.85,10.67 21.11,11.58 12.26,0.91 17.02,8.63 17.48,14.75 0.68,6.13 -3.41,10.22 -7.27,18.17 -3.86,7.94 -0.45,15.2 -0.22,21.33 0.68,9.54 -7.5,11.81 -7.5,11.81 15.44,2.5 22.25,0.68 24.29,-9.31 2.05,-9.31 -7.26,-27.47 -8.17,-37z"
           class="fil13_1579599141385"
           vector-effect="non-scaling-stroke"
           id="path69" />
        <path
           d="M918.75 1314.94c-1.36,-3.4 -1.81,-7.71 2.04,-16.79 3.64,-9.08 0.23,-12.72 -3.63,-14.99 -3.86,-2.27 -16.11,-1.81 -22.92,-4.08 -6.82,-2.5 -11.36,-13.85 -16.35,-13.85 -4.99,0.23 -7.04,11.58 -8.4,19.3 -1.59,7.71 -11.58,7.94 -15.21,9.3 -6.58,2.27 -7.49,8.63 -3.18,16.12 4.32,7.49 12.72,3.63 11.35,17.48 -0.9,9.08 1.82,13.62 9.77,13.85 7.94,0.22 12.25,-9.08 22.24,-9.76 12.71,-0.68 20.89,5.22 24.29,2.04 3.41,-3.18 1.36,-15.21 0,-18.62zm-9.99 -20.43c-0.68,4.32 -3.4,7.72 -2.27,11.81 1.14,4.08 2.95,9.99 1.82,13.16 -1.82,5.23 -10.22,-0.68 -16.8,0.69 -8.17,1.58 -7.49,7.03 -14.3,6.35 -6.81,-0.45 -3.63,-4.08 -5.22,-9.08 -1.59,-4.76 -7.95,-8.4 -8.85,-12.71 -0.91,-4.31 2.72,-7.26 8.62,-9.31 5.9,-2.04 3.63,-7.26 3.86,-10.89 0.23,-2.96 4.54,-8.86 8.85,-3.86 4.32,4.76 4.54,9.08 13.17,8.62 8.85,-0.22 11.8,0.91 11.12,5.22z"
           class="fil13_1579599141385"
           vector-effect="non-scaling-stroke"
           id="path71" />
        <path
           d="M903.09 1298.37c-0.68,-4.08 -5.9,-3.63 -9.99,-4.54 -4.09,-0.91 -5.45,-6.35 -8.17,-7.03 -2.5,-0.91 -3.86,2.95 -4.77,5.9 -0.91,2.95 -2.27,4.99 -6.36,5.9 -4.08,0.68 -4.31,3.86 -2.95,7.04 1.37,3.18 4.77,4.31 4.77,8.17 0,3.86 -0.23,5.9 3.41,6.58 3.63,0.68 5.44,-2.49 10.67,-3.4 4.31,-0.68 9.53,2.04 11.57,0.45 2.27,-1.59 0.68,-6.81 0,-10.44 -0.91,-3.41 2.73,-4.77 1.82,-8.63zm-8.85 7.04c0.22,1.59 1.36,4.99 -0.46,6.13 -1.59,1.14 -2.72,-1.14 -5.45,-0.91 -2.04,0.23 -4.76,2.27 -6.58,1.36 -2.04,-0.9 -0.45,-2.04 -1.14,-4.54 -0.68,-2.49 -3.17,-3.4 -2.49,-5.44 0.68,-2.05 2.95,-1.14 4.31,-3.18 1.14,-2.05 1.82,-5 3.18,-4.77 1.36,0.23 1.81,3.86 4.77,4.31 2.95,0.46 5.44,1.36 5.22,2.95 0,1.82 -1.36,2.73 -1.36,4.09z"
           class="fil13_1579599141385"
           vector-effect="non-scaling-stroke"
           id="path73" />
      </g>
    </g>
  </g>
</svg>