<?xml version="1.0" encoding="UTF-8" standalone="no"?>
<svg
   xmlns:dc="http://purl.org/dc/elements/1.1/"
   xmlns:cc="http://creativecommons.org/ns#"
   xmlns:rdf="http://www.w3.org/1999/02/22-rdf-syntax-ns#"
   xmlns:svg="http://www.w3.org/2000/svg"
   xmlns="http://www.w3.org/2000/svg"
   xmlns:sodipodi="http://sodipodi.sourceforge.net/DTD/sodipodi-0.dtd"
   xmlns:inkscape="http://www.inkscape.org/namespaces/inkscape"
   version="1.2"
   preserveAspectRatio="none"
   viewBox="0 0 1600 1100"
   class="ng-element"
   data-id="4c33518d05154c09b1e7915c1a0918d8"
   style="opacity: 1; mix-blend-mode: normal; overflow: visible; width: 321px; height: 221px"
   id="svg225"
   sodipodi:docname="recommendation.svg"
   inkscape:version="0.92.3 (2405546, 2018-03-11)">
  <metadata
     id="metadata229">
    <rdf:RDF>
      <cc:Work
         rdf:about="">
        <dc:format>image/svg+xml</dc:format>
        <dc:type
           rdf:resource="http://purl.org/dc/dcmitype/StillImage" />
        <dc:title></dc:title>
      </cc:Work>
    </rdf:RDF>
  </metadata>
  <sodipodi:namedview
     pagecolor="#ffffff"
     bordercolor="#666666"
     borderopacity="1"
     objecttolerance="10"
     gridtolerance="10"
     guidetolerance="10"
     inkscape:pageopacity="0"
     inkscape:pageshadow="2"
     inkscape:window-width="828"
     inkscape:window-height="480"
     id="namedview227"
     showgrid="false"
     inkscape:zoom="0.21454545"
     inkscape:cx="800"
     inkscape:cy="550"
     inkscape:window-x="0"
     inkscape:window-y="27"
     inkscape:window-maximized="0"
     inkscape:current-layer="svg225" />
  <defs
     id="defs4">
    <style
       type="text/css"
       id="style2">

        .fil0_1577179273357 {fill:#FFB2D2}
        .fil1_1577179273357 {fill:#FEFEFE;fill-rule:nonzero}
        .fil3_1577179273357 {fill:#F5AD91;fill-rule:nonzero}
        .fil4_1577179273357 {fill:#E57C76;fill-rule:nonzero}
        .fil2_1577179273357 {fill:#E8E6E5;fill-rule:nonzero}
        .fil8_1577179273357 {fill:#D0CECD;fill-rule:nonzero}
        .fil10_1577179273357 {fill:#ACABAC;fill-rule:nonzero}
        .fil9_1577179273357 {fill:#323139;fill-rule:nonzero}
        .fil5_1577179273357 {fill:#394154;fill-rule:nonzero}
        .fil7_1577179273357 {fill:#B81A4F;fill-rule:nonzero}
        .fil6_1577179273357 {fill:#E1005C;fill-rule:nonzero}

    </style>
  </defs>
  <g
     id="Слой_x0020_1_1577179273357">
    <metadata
       id="CorelCorpID_0Corel-Layer_1577179273357"
       vector-effect="non-scaling-stroke" />
    <g
       id="_1577179273357">
      <ellipse
         ry="424.2"
         rx="750"
         cy="531.82"
         cx="800"
         class="fil0_1577179273357"
         vector-effect="non-scaling-stroke"
         id="ellipse7" />
      <g
         id="g221">
        <path
           d="M411.83 406.32c-11.64,2.53 -16.31,7.2 -18.84,18.84 -0.62,2.87 -4.72,2.87 -5.34,0 -2.53,-11.64 -7.2,-16.31 -18.84,-18.84 -2.87,-0.63 -2.87,-4.72 0,-5.34 11.64,-2.54 16.31,-7.2 18.84,-18.84 0.62,-2.88 4.72,-2.88 5.34,0 2.53,11.64 7.2,16.3 18.84,18.84 2.87,0.62 2.87,4.71 0,5.34z"
           class="fil1_1577179273357"
           vector-effect="non-scaling-stroke"
           id="path9" />
        <path
           d="M1114.87 213.31c-11.65,2.53 -16.31,7.2 -18.84,18.84 -0.62,2.87 -4.72,2.87 -5.35,0 -2.53,-11.64 -7.19,-16.31 -18.83,-18.84 -2.88,-0.62 -2.88,-4.72 0,-5.34 11.64,-2.53 16.3,-7.2 18.83,-18.84 0.63,-2.87 4.73,-2.87 5.35,0 2.53,11.64 7.19,16.31 18.84,18.84 2.87,0.62 2.87,4.72 0,5.34z"
           class="fil1_1577179273357"
           vector-effect="non-scaling-stroke"
           id="path11" />
        <path
           d="M1159.55 272.61c-6.07,1.32 -8.5,3.75 -9.83,9.83 -0.32,1.5 -2.46,1.5 -2.78,0 -1.32,-6.08 -3.76,-8.51 -9.83,-9.83 -1.5,-0.32 -1.5,-2.46 0,-2.79 6.07,-1.32 8.51,-3.75 9.83,-9.83 0.32,-1.49 2.46,-1.49 2.78,0 1.33,6.08 3.76,8.51 9.83,9.83 1.5,0.33 1.5,2.47 0,2.79z"
           class="fil1_1577179273357"
           vector-effect="non-scaling-stroke"
           id="path13" />
        <path
           d="M374.23 471.48c-6.07,1.32 -8.51,3.75 -9.83,9.83 -0.32,1.49 -2.46,1.49 -2.78,0 -1.32,-6.08 -3.76,-8.51 -9.83,-9.83 -1.5,-0.33 -1.5,-2.47 0,-2.79 6.07,-1.32 8.51,-3.76 9.83,-9.83 0.32,-1.5 2.46,-1.5 2.78,0 1.32,6.07 3.76,8.51 9.83,9.83 1.5,0.32 1.5,2.46 0,2.79z"
           class="fil1_1577179273357"
           vector-effect="non-scaling-stroke"
           id="path15" />
        <path
           d="M1033.07 665.19c21.65,176.82 -10.95,337.8 -58.97,341.53 -48.02,3.73 -81.49,-101.46 -80.4,-184.26 0.03,-2.59 -0.02,-5.15 -0.16,-7.68 -2.85,-53.05 -42.68,-80.9 -84,-83.1 -7.43,-0.4 -14.92,0.04 -22.24,1.31 -36.01,6.23 -68.17,32.61 -71.92,79.45 -0.21,2.53 -0.33,5.08 -0.36,7.67 -1.09,82.81 -37.31,187.08 -85.21,182.09 -26.99,-2.81 -47.79,-55.41 -56.1,-132.32 -6.43,-59.57 -5.37,-133.73 6.11,-210.64 0,0 -140.84,-228.52 -48.01,-327.55 92.84,-99.04 278.93,3.66 278.93,3.66l0.01 -0.01c1.93,-0.99 189.16,-97.25 278.91,3.67 90.21,101.44 -56.59,326.18 -56.59,326.18z"
           class="fil1_1577179273357"
           vector-effect="non-scaling-stroke"
           id="path17" />
        <path
           d="M654.29 309.67c0,0 -76.15,-4.93 -116.13,44.27 -39.99,49.19 -5.64,161.29 -5.64,161.29 0,0 -12.36,-175.55 121.77,-205.56z"
           class="fil2_1577179273357"
           vector-effect="non-scaling-stroke"
           id="path19" />
        <path
           d="M1033.07 665.19c21.65,176.82 -10.95,337.8 -58.97,341.53 -48.02,3.73 -81.49,-101.46 -80.4,-184.26 0.03,-2.59 -0.02,-5.15 -0.16,-7.68 -2.85,-53.05 -42.68,-80.9 -84,-83.1l0.02 0c98.74,-14.74 109,59.82 117.82,132.33 8.82,72.51 44.09,117.59 66.63,24.49 22.54,-93.08 -10.78,-230.27 -10.78,-230.27 73.5,-68.59 100.56,-259.45 39.15,-322.46 -52.03,-53.38 -209.96,-0.96 -211.63,-0.43 1.93,-0.99 189.16,-97.25 278.91,3.67 90.21,101.44 -56.59,326.18 -56.59,326.18z"
           class="fil2_1577179273357"
           vector-effect="non-scaling-stroke"
           id="path21" />
        <path
           d="M787.3 732.99l0 0c-36.01,6.23 -68.17,32.61 -71.92,79.45 -0.21,2.53 -0.33,5.08 -0.36,7.67 -1.09,82.81 -37.31,187.08 -85.21,182.09 -26.99,-2.81 -47.79,-55.41 -56.1,-132.32l0.01 0c0,0 15.74,109.59 65.17,87.84 49,-21.56 54.66,-158.97 77.75,-192.51 23.08,-33.54 70.66,-32.22 70.66,-32.22z"
           class="fil2_1577179273357"
           vector-effect="non-scaling-stroke"
           id="path23" />
        <path
           d="M733.08 134.37c0,0 11.74,57.83 15.08,66.94 3.34,9.12 11.47,-1.61 11.21,-17.32l13.76 -7.1c0,0 4.5,24.42 -5.83,38.78 -8.82,12.26 -17.32,12.76 -24.61,7.9 -7.29,-4.86 -13.19,-25.03 -13.19,-25.03 0,0 -0.25,-40.04 3.58,-64.17z"
           class="fil1_1577179273357"
           vector-effect="non-scaling-stroke"
           id="path25" />
        <path
           d="M727.84 228.21l0.01 39.88c-29.54,15.71 -49.14,11.16 -74.27,-0.15l0.73 -40.99 -3.24 -92.58c13.32,-6.3 26.53,-9.64 39.6,-9.94 0.63,-0.02 1.25,-0.03 1.87,-0.03 13.65,-0.02 27.16,3.27 40.54,9.97l-5.24 93.84z"
           class="fil1_1577179273357"
           vector-effect="non-scaling-stroke"
           id="path27" />
        <path
           d="M692.54 124.4l0 152.05c0,0.52 -0.42,0.93 -0.93,0.93 -0.52,0 -0.94,-0.41 -0.94,-0.93l0 -152.02c0.63,-0.02 1.25,-0.03 1.87,-0.03z"
           class="fil2_1577179273357"
           vector-effect="non-scaling-stroke"
           id="path29" />
        <path
           d="M701.7 128.28l0 -18.09 -20.03 0 0 18.09c6.64,3 13.32,2.97 20.03,0z"
           class="fil3_1577179273357"
           vector-effect="non-scaling-stroke"
           id="path31" />
        <path
           d="M701.7 110.19l0 14.21c-7.83,-0.55 -15.3,-4.55 -20.03,-7.67l0 -6.54 20.03 0z"
           class="fil4_1577179273357"
           vector-effect="non-scaling-stroke"
           id="path33" />
        <path
           d="M669.2 80.64c0,0 -2.2,-5.19 -6.61,-6.23 -4.41,-1.03 -4.28,9.99 -1.55,18.02 2.72,8.04 9.59,4.93 9.59,4.93l-1.43 -16.72z"
           class="fil4_1577179273357"
           vector-effect="non-scaling-stroke"
           id="path35" />
        <path
           d="M714.09 80.64c0,0 2.2,-5.19 6.61,-6.23 4.41,-1.03 4.28,9.99 1.56,18.02 -2.73,8.04 -9.6,4.93 -9.6,4.93l1.43 -16.72z"
           class="fil4_1577179273357"
           vector-effect="non-scaling-stroke"
           id="path37" />
        <path
           d="M691.61 118.27l0 0c-13.38,0 -24.22,-14.37 -24.22,-27.02l0 -28.61 48.43 0 0 28.61c0,12.65 -10.84,27.02 -24.21,27.02z"
           class="fil3_1577179273357"
           vector-effect="non-scaling-stroke"
           id="path39" />
        <path
           d="M667.39 83.45c0,0 -8.28,-12.44 -2.52,-20.81 0,0 -3.53,-7.14 0,-13.95 3.54,-6.8 18.47,-14.64 39.28,-10.55 20.81,4.08 16.88,19.45 14.27,23.73 0,0 5.18,9.52 -2.6,21.58 0,0 -4.56,-6.22 -3.16,-19.45 0,0 -23.16,6.62 -42.03,-1.36 0,0 2.59,15.37 -3.24,20.81z"
           class="fil5_1577179273357"
           vector-effect="non-scaling-stroke"
           id="path41" />
        <path
           d="M673.61 90.67c0,0 -1.81,14.42 2.62,21.16 0,0 4.15,6.44 15.38,6.44 11.22,0 15.82,-7.1 15.82,-7.1 0,0 4.44,-9.01 1.81,-20.5 0,0 -18.4,7.44 -35.63,0z"
           class="fil6_1577179273357"
           vector-effect="non-scaling-stroke"
           id="path43" />
        <path
           d="M674.59 93.5l-0.32 -0.09c-0.35,-0.2 -8.5,-5.05 -11.86,-20.13 -0.08,-0.35 0.14,-0.7 0.5,-0.78 0.35,-0.08 0.7,0.14 0.78,0.5 3.24,14.51 11.15,19.22 11.23,19.27 0.31,0.18 0.42,0.58 0.24,0.9 -0.12,0.21 -0.34,0.33 -0.57,0.33z"
           class="fil1_1577179273357"
           vector-effect="non-scaling-stroke"
           id="path45" />
        <path
           d="M675.66 109.04l-0.14 -0.02c-0.12,-0.03 -2.94,-0.71 -6.32,-5.78 -0.2,-0.3 -0.12,-0.7 0.18,-0.91 0.31,-0.2 0.71,-0.12 0.92,0.19 3.04,4.56 5.49,5.21 5.51,5.22 0.35,0.09 0.57,0.44 0.49,0.79 -0.08,0.3 -0.34,0.51 -0.64,0.51z"
           class="fil1_1577179273357"
           vector-effect="non-scaling-stroke"
           id="path47" />
        <path
           d="M708.78 93.5c-0.23,0 -0.45,-0.12 -0.57,-0.33 -0.18,-0.32 -0.07,-0.72 0.24,-0.9 0.08,-0.05 8.01,-4.81 11.23,-19.27 0.08,-0.36 0.43,-0.58 0.78,-0.5 0.36,0.08 0.58,0.43 0.5,0.78 -3.35,15.08 -11.51,19.93 -11.85,20.13l-0.33 0.09z"
           class="fil1_1577179273357"
           vector-effect="non-scaling-stroke"
           id="path49" />
        <path
           d="M707.71 109.04c-0.3,0 -0.57,-0.21 -0.64,-0.51 -0.08,-0.36 0.14,-0.71 0.49,-0.79 0.05,-0.01 2.49,-0.69 5.52,-5.22 0.2,-0.31 0.6,-0.39 0.91,-0.19 0.3,0.21 0.38,0.61 0.18,0.91 -3.38,5.07 -6.2,5.75 -6.31,5.78l-0.15 0.02z"
           class="fil1_1577179273357"
           vector-effect="non-scaling-stroke"
           id="path51" />
        <path
           d="M727.87 246.36c0,0 -0.76,29.18 -7.17,37.93 -6.4,8.74 -43.22,8.36 -56.32,2.52 -13.1,-5.83 -10.3,-40.45 -10.3,-40.45 24.54,11.08 49.14,11.02 73.79,0z"
           class="fil7_1577179273357"
           vector-effect="non-scaling-stroke"
           id="path53" />
        <path
           d="M672.87 330.23c0.33,-3.29 2.43,-35.24 2.43,-51.65 0,-21.89 -8.36,-40.84 -26.95,-33.07 -20.18,8.43 -12.54,49.4 -12.54,49.4l9.78 121.92 19.01 0c0,0 1.84,-23.53 8.27,-86.6z"
           class="fil6_1577179273357"
           vector-effect="non-scaling-stroke"
           id="path55" />
        <path
           d="M645.59 416.83c0,0 -4.51,13.37 -9.79,24.91 -5.28,11.55 -1.41,22.18 7.49,19.93 12.28,-3.11 22.49,-36.03 22.49,-36.03l-1.18 -8.81c0,0 -6.99,0.3 -19.01,0z"
           class="fil5_1577179273357"
           vector-effect="non-scaling-stroke"
           id="path57" />
        <path
           d="M702.44 292.85c-0.34,-3.29 -0.84,-17.25 -0.24,-20.5 2.11,-11.57 10.09,-34.61 28.68,-26.84 20.18,8.43 12.54,49.4 12.54,49.4l-9.79 121.92 -19 0c0,0 -5.77,-60.91 -12.19,-123.98z"
           class="fil6_1577179273357"
           vector-effect="non-scaling-stroke"
           id="path59" />
        <path
           d="M733.5 416.83c0,0 4.52,13.37 9.8,24.91 5.27,11.55 1.4,22.18 -7.5,19.93 -12.27,-3.11 -22.49,-36.03 -22.49,-36.03l1.18 -8.81c0,0 6.99,0.3 19.01,0z"
           class="fil5_1577179273357"
           vector-effect="non-scaling-stroke"
           id="path61" />
        <path
           d="M559.33 267.1l-5.79 -11.04c-4.77,-9.1 -1.26,-20.34 7.83,-25.11l200.82 -105.32c3.32,-1.74 7.43,-0.46 9.17,2.87l16.76 31.94c1.74,3.33 0.46,7.43 -2.87,9.18l-200.81 105.31c-9.1,4.78 -20.34,1.27 -25.11,-7.83z"
           class="fil5_1577179273357"
           vector-effect="non-scaling-stroke"
           id="path63" />
        <path
           d="M782.05 148.87l142.4 -74.68c1.81,-0.95 2.51,-3.19 1.56,-5l-1.18 -2.25c-0.95,-1.81 -3.19,-2.5 -5,-1.56l-142.4 74.69 4.62 8.8z"
           class="fil8_1577179273357"
           vector-effect="non-scaling-stroke"
           id="path65" />
        <path
           d="M928.18 96.84l-24.87 -47.4c-0.9,-1.74 -0.23,-3.88 1.5,-4.79l0.79 -0.42c1.74,-0.91 3.88,-0.24 4.79,1.5l24.87 47.4c0.91,1.74 0.23,3.88 -1.5,4.79l-0.79 0.42c-1.74,0.91 -3.88,0.24 -4.79,-1.5z"
           class="fil2_1577179273357"
           vector-effect="non-scaling-stroke"
           id="path67" />
        <path
           d="M914.21 104.17l-24.86 -47.4c-0.91,-1.74 -0.24,-3.88 1.49,-4.8l0.79 -0.41c1.74,-0.91 3.89,-0.24 4.8,1.49l24.86 47.41c0.91,1.73 0.24,3.88 -1.5,4.79l-0.79 0.42c-1.74,0.9 -3.88,0.24 -4.79,-1.5z"
           class="fil2_1577179273357"
           vector-effect="non-scaling-stroke"
           id="path69" />
        <path
           d="M900.24 111.49l-24.86 -47.4c-0.91,-1.74 -0.24,-3.88 1.49,-4.79l0.79 -0.41c1.74,-0.91 3.89,-0.25 4.8,1.49l24.86 47.41c0.91,1.73 0.24,3.88 -1.5,4.78l-0.79 0.42c-1.73,0.91 -3.88,0.24 -4.79,-1.5z"
           class="fil2_1577179273357"
           vector-effect="non-scaling-stroke"
           id="path71" />
        <path
           d="M886.27 118.82l-24.86 -47.4c-0.91,-1.74 -0.24,-3.88 1.5,-4.8l0.79 -0.41c1.73,-0.91 3.88,-0.24 4.79,1.49l24.86 47.41c0.91,1.74 0.24,3.88 -1.5,4.79l-0.79 0.42c-1.73,0.9 -3.88,0.24 -4.79,-1.5z"
           class="fil2_1577179273357"
           vector-effect="non-scaling-stroke"
           id="path73" />
        <path
           d="M872.3 126.15l-24.86 -47.41c-0.91,-1.73 -0.24,-3.88 1.5,-4.79l0.79 -0.42c1.73,-0.91 3.88,-0.23 4.79,1.5l24.86 47.41c0.91,1.73 0.24,3.88 -1.49,4.78l-0.8 0.42c-1.73,0.91 -3.88,0.24 -4.79,-1.49z"
           class="fil2_1577179273357"
           vector-effect="non-scaling-stroke"
           id="path75" />
        <path
           d="M858.34 133.47l-24.87 -47.4c-0.91,-1.74 -0.24,-3.88 1.5,-4.79l0.79 -0.42c1.73,-0.91 3.88,-0.24 4.79,1.5l24.86 47.4c0.91,1.74 0.24,3.88 -1.49,4.79l-0.79 0.42c-1.74,0.91 -3.88,0.24 -4.79,-1.5z"
           class="fil2_1577179273357"
           vector-effect="non-scaling-stroke"
           id="path77" />
        <path
           d="M762.18 162.55c-3.84,2.01 -8.59,0.53 -10.6,-3.31 -2.02,-3.84 -0.54,-8.59 3.31,-10.6 3.84,-2.02 8.58,-0.54 10.6,3.31 2.01,3.84 0.53,8.58 -3.31,10.6z"
           class="fil9_1577179273357"
           vector-effect="non-scaling-stroke"
           id="path79" />
        <path
           d="M709.36 190.25c-3.84,2.01 -8.59,0.53 -10.6,-3.31 -2.02,-3.84 -0.54,-8.59 3.3,-10.6 3.85,-2.01 8.59,-0.53 10.61,3.3 2.01,3.85 0.53,8.59 -3.31,10.61z"
           class="fil9_1577179273357"
           vector-effect="non-scaling-stroke"
           id="path81" />
        <path
           d="M735.77 176.4c-3.84,2.01 -8.59,0.53 -10.6,-3.31 -2.02,-3.84 -0.54,-8.59 3.3,-10.6 3.85,-2.02 8.59,-0.54 10.61,3.3 2.01,3.85 0.53,8.59 -3.31,10.61z"
           class="fil9_1577179273357"
           vector-effect="non-scaling-stroke"
           id="path83" />
        <path
           d="M651.07 134.37c0,0 -25.75,22.79 -28.5,59.02 -2.75,36.23 9.76,56.26 9.76,56.26l15.57 -8.03c0,0 -9.94,-23.19 -7.5,-46.45 2.42,-23.25 14.07,-27.71 14.07,-27.71 0,0 3.63,-15.95 -3.4,-33.09z"
           class="fil1_1577179273357"
           vector-effect="non-scaling-stroke"
           id="path85" />
        <path
           d="M644.2 243.53l11.21 -5.78c0,0 2.43,6.41 0,10.98 -1.92,3.61 -7.06,7.53 -14.2,7.53 -7.14,0 -8.88,-6.61 -8.88,-6.61l11.87 -6.12z"
           class="fil3_1577179273357"
           vector-effect="non-scaling-stroke"
           id="path87" />
        <path
           d="M778.24 169.19c-0.2,4.15 -5.11,7.7 -5.11,7.7l-13.76 7.1c0,0 -7.04,-13.08 -3.7,-21.19 3.32,-8.1 13.5,-7.22 15.84,-0.92 1.1,2.97 1.56,6.12 1.72,8.76 1.42,-1.4 5.17,-4.83 5.01,-1.45z"
           class="fil3_1577179273357"
           vector-effect="non-scaling-stroke"
           id="path89" />
        <path
           d="M1128.59 643.44c0,0 -24.19,23.68 -35.35,31.57 0,0 -10,-2.3 -31.13,-8.5 -19.37,-5.69 -27.24,-9.05 -27.24,-9.05 2.9,6.01 4.92,12.57 6.34,19.5 0,0 39.35,20.45 55.18,20.95 0,0 21.63,-13.01 37.87,-30.12l-5.67 -24.35z"
           class="fil2_1577179273357"
           vector-effect="non-scaling-stroke"
           id="path91" />
        <path
           d="M1132.55 1027.74l-16.57 0 -10.54 -127.37 11.85 -116.82 44.76 -4.19 -26.84 133.16c7.58,30.78 1.24,70.16 -2.66,115.22z"
           class="fil6_1577179273357"
           vector-effect="non-scaling-stroke"
           id="path93" />
        <path
           d="M1133.03 1026.74c0,0 1,1.4 1,4.28 0,2.87 -0.28,12.81 -0.28,12.81l-48.49 0c0,0 -0.18,-7.56 5.96,-11.59 6.14,-4.03 15.58,-0.08 24.61,-6.41 0,0 2.41,2.2 17.2,0.91z"
           class="fil5_1577179273357"
           vector-effect="non-scaling-stroke"
           id="path95" />
        <path
           d="M1223.27 1026.78c-3.2,-34.52 -18.25,-104 -27.85,-118.98l-0.09 -130.26 -43.75 10.37 13.07 120.17 41.85 117.75c4.99,2.79 10.78,2.26 16.77,0.95z"
           class="fil6_1577179273357"
           vector-effect="non-scaling-stroke"
           id="path97" />
        <path
           d="M1223.27 1026.78c0,0 1.11,1.47 1.11,4.35 0,2.88 0,12.7 0,12.7l-48.44 0c0,0 -0.18,-7.56 5.96,-11.59 6.14,-4.03 15.58,-0.08 24.6,-6.41 0,0 1.98,2.24 16.77,0.95z"
           class="fil5_1577179273357"
           vector-effect="non-scaling-stroke"
           id="path99" />
        <path
           d="M1208.84 862.22c-12.86,7.43 -35.72,11.14 -57.61,11.4 -0.63,0.02 -1.26,0.02 -1.88,0.02 -18.63,0.07 -36.32,-2.36 -46.26,-7.08l25.49 -223.11 17.03 -2.28 1.37 -0.18 3.87 -0.52 7.49 -1.01 1.95 -0.25 14.37 -1.93 4 1.37 5.06 1.73 1.2 0.42 22.52 7.7 -16.77 98.06 18.17 115.66z"
           class="fil1_1577179273357"
           vector-effect="non-scaling-stroke"
           id="path101" />
        <path
           d="M1151.23 873.62c-0.63,0.02 -1.26,0.02 -1.88,0.02 -7.92,-61.7 -4.67,-124.15 -0.39,-166.56 2.97,-29.42 6.81,-53.34 9.38,-67.62l1.95 -0.25c-2.56,14.16 -6.47,38.28 -9.48,68.08 -4.27,42.36 -7.51,104.75 0.42,166.33z"
           class="fil2_1577179273357"
           vector-effect="non-scaling-stroke"
           id="path103" />
        <path
           d="M1032.75 602.04l142.14 192.16c2.45,3.31 1.76,8 -1.56,10.45l-24.62 18.21c-1.02,0.75 -2.16,1.21 -3.34,1.38 -1.51,0.23 -3.07,-0.01 -4.43,-0.71 -1.03,-0.5 -1.95,-1.25 -2.68,-2.23l-142.14 -192.17c-2.45,-3.31 -1.75,-7.99 1.57,-10.44l24.62 -18.22c0.66,-0.49 1.39,-0.86 2.14,-1.1 1.48,-0.48 3.07,-0.48 4.53,-0.02 1.46,0.45 2.8,1.37 3.77,2.69z"
           class="fil5_1577179273357"
           vector-effect="non-scaling-stroke"
           id="path105" />
        <path
           d="M1031.75 610.52l134.15 181.35c1.96,2.66 1.39,6.4 -1.25,8.36l-17.62 13.03 -0.02 0.01c-1.4,1.03 -3.11,1.36 -4.69,1.05 -1.41,-0.28 -2.73,-1.06 -3.65,-2.31l-134.15 -181.35c-1.96,-2.65 -1.39,-6.4 1.26,-8.36l17.61 -13.03c1.28,-0.95 2.82,-1.31 4.28,-1.12 1.57,0.18 3.07,1 4.08,2.37z"
           class="fil9_1577179273357"
           vector-effect="non-scaling-stroke"
           id="path107" />
        <polygon
           points="1015.03,615.46 1011.37,639.91 1007.6,634.82 1009.93,619.22"
           class="fil5_1577179273357"
           vector-effect="non-scaling-stroke"
           id="polygon109" />
        <path
           d="M1027.67 608.15l-6.7 44.74 -3.77 -5.1 5.71 -38.17 0.48 -0.35c1.28,-0.95 2.82,-1.31 4.28,-1.12z"
           class="fil5_1577179273357"
           vector-effect="non-scaling-stroke"
           id="path111" />
        <polygon
           points="1033.89,613.41 1037.66,618.5 1030.57,665.87 1026.81,660.78"
           class="fil5_1577179273357"
           vector-effect="non-scaling-stroke"
           id="polygon113" />
        <polygon
           points="1043.49,626.39 1047.26,631.48 1040.17,678.85 1036.4,673.76"
           class="fil5_1577179273357"
           vector-effect="non-scaling-stroke"
           id="polygon115" />
        <polygon
           points="1053.09,639.36 1056.86,644.46 1049.77,691.83 1046,686.73"
           class="fil5_1577179273357"
           vector-effect="non-scaling-stroke"
           id="polygon117" />
        <polygon
           points="1062.68,652.33 1066.46,657.44 1059.37,704.81 1055.6,699.7"
           class="fil5_1577179273357"
           vector-effect="non-scaling-stroke"
           id="polygon119" />
        <polygon
           points="1072.29,665.32 1076.06,670.41 1068.97,717.78 1065.2,712.69"
           class="fil5_1577179273357"
           vector-effect="non-scaling-stroke"
           id="polygon121" />
        <polygon
           points="1081.89,678.29 1085.65,683.39 1078.57,730.75 1074.8,725.66"
           class="fil5_1577179273357"
           vector-effect="non-scaling-stroke"
           id="polygon123" />
        <polygon
           points="1091.49,691.27 1095.25,696.37 1088.17,743.73 1084.4,738.64"
           class="fil5_1577179273357"
           vector-effect="non-scaling-stroke"
           id="polygon125" />
        <polygon
           points="1101.08,704.25 1104.85,709.34 1097.76,756.71 1094,751.62"
           class="fil5_1577179273357"
           vector-effect="non-scaling-stroke"
           id="polygon127" />
        <polygon
           points="1110.68,717.23 1114.45,722.33 1107.37,769.69 1103.59,764.59"
           class="fil5_1577179273357"
           vector-effect="non-scaling-stroke"
           id="polygon129" />
        <polygon
           points="1120.29,730.21 1124.05,735.3 1116.97,782.67 1113.2,777.58"
           class="fil5_1577179273357"
           vector-effect="non-scaling-stroke"
           id="polygon131" />
        <polygon
           points="1129.89,743.19 1133.65,748.28 1126.56,795.65 1122.8,790.55"
           class="fil5_1577179273357"
           vector-effect="non-scaling-stroke"
           id="polygon133" />
        <polygon
           points="1139.48,756.16 1143.25,761.26 1136.17,808.62 1132.39,803.52"
           class="fil5_1577179273357"
           vector-effect="non-scaling-stroke"
           id="polygon135" />
        <path
           d="M1149.08 769.13l3.77 5.11 -5.84 39.03c-1.4,1.03 -3.11,1.36 -4.69,1.05l6.76 -45.19z"
           class="fil5_1577179273357"
           vector-effect="non-scaling-stroke"
           id="path137" />
        <polygon
           points="1158.68,782.12 1162.45,787.21 1159.98,803.68 1154.89,807.44"
           class="fil5_1577179273357"
           vector-effect="non-scaling-stroke"
           id="polygon139" />
        <polygon
           points="922.85,479.24 1015.98,605.15 1004.9,613.35 911.77,487.44"
           class="fil8_1577179273357"
           vector-effect="non-scaling-stroke"
           id="polygon141" />
        <polygon
           points="917.31,483.34 1010.44,609.25 1004.9,613.35 911.77,487.44"
           class="fil10_1577179273357"
           vector-effect="non-scaling-stroke"
           id="polygon143" />
        <path
           d="M950.65 433c15.39,20.81 11,50.15 -9.81,65.54 -20.81,15.39 -50.15,11 -65.54,-9.81 -15.39,-20.8 -10.99,-50.14 9.81,-65.53 20.8,-15.39 50.15,-11 65.54,9.8z"
           class="fil8_1577179273357"
           vector-effect="non-scaling-stroke"
           id="path145" />
        <path
           d="M933.29 488.33c-15.14,11.2 -36.58,8 -47.78,-7.15 -11.2,-15.14 -7.99,-36.58 7.15,-47.77 15.15,-11.2 36.58,-8 47.78,7.14 11.2,15.15 7.99,36.58 -7.15,47.78z"
           class="fil1_1577179273357"
           vector-effect="non-scaling-stroke"
           id="path147" />
        <path
           d="M1133.34 565.69c0,0 -6.41,3.15 -5.63,14 0.77,10.87 4.72,12.52 4.72,12.52 0,0 9.18,-22.67 0.91,-26.52z"
           class="fil5_1577179273357"
           vector-effect="non-scaling-stroke"
           id="path149" />
        <path
           d="M1154.2 618.76l-1.02 13.73 -0.49 8.24c6.96,6.76 20.58,-1.63 20.58,-1.63l3.98 -20.05c-3.25,-2.89 -12.73,-1.99 -18.47,-1.11 -2.7,0.41 -4.58,0.82 -4.58,0.82z"
           class="fil3_1577179273357"
           vector-effect="non-scaling-stroke"
           id="path151" />
        <path
           d="M1154.25 618.63l-0.95 13.48c9.32,-0.94 18.5,-12.53 18.5,-12.53l-12.99 -1.73c-2.69,0.39 -4.56,0.78 -4.56,0.78z"
           class="fil4_1577179273357"
           vector-effect="non-scaling-stroke"
           id="path153" />
        <path
           d="M1133.84 571.23c0,0 -13.59,-8.55 -7.85,-19.88 5.75,-11.32 22.01,-0.66 38.48,2.31 24.85,4.49 30.42,14.73 28.06,28.2 -2.36,13.47 -4.52,31.67 -11.52,37.66 -7.01,6.01 -9.99,-4.11 -12.09,-12.99 -2.1,-8.88 -18.42,-37.33 -35.08,-35.3z"
           class="fil5_1577179273357"
           vector-effect="non-scaling-stroke"
           id="path155" />
        <path
           d="M1131.08 582.6c-0.05,0.46 -0.11,0.93 -0.15,1.4 -0.81,8.45 -0.66,18.86 -0.29,27.36 0.39,9.02 8.17,15.94 17.17,15.28 10.85,-0.79 24.3,-2.38 30.74,-5.53 1.96,-0.96 3.27,-2.06 3.66,-3.33 0.92,-2.97 1.74,-7.07 2.45,-11.55 2.15,-13.6 3.31,-30.76 3.31,-30.76 -10.7,-17.4 -46.9,-15.73 -53.76,-4.87 -1.57,2.49 -2.55,6.81 -3.13,12z"
           class="fil3_1577179273357"
           vector-effect="non-scaling-stroke"
           id="path157" />
        <path
           d="M1186.31 593.73c0,0 -5.2,-4.41 -10.79,1.56l-3.71 -0.47c0,0 1.18,-7.58 -0.1,-11.94 -1.27,-4.36 -8.39,-5.16 -8.83,-10.16 0,0 -17.59,4.54 -29.04,-1.49 -11.44,-6.02 27.12,-21.46 43.25,-9.52 16.13,11.95 13.56,19.4 9.22,32.02z"
           class="fil5_1577179273357"
           vector-effect="non-scaling-stroke"
           id="path159" />
        <path
           d="M1178.55 621.11c1.96,-0.96 3.27,-2.06 3.66,-3.33 0.92,-2.97 1.74,-7.07 2.45,-11.55l-10.17 5.23c0,0 -0.97,6.64 4.06,9.65z"
           class="fil5_1577179273357"
           vector-effect="non-scaling-stroke"
           id="path161" />
        <path
           d="M1175.52 595.29c0,0 6.54,-6.15 10.79,-1.56 4.67,5.05 -1.23,19.43 -11.82,17.74l1.03 -16.18z"
           class="fil3_1577179273357"
           vector-effect="non-scaling-stroke"
           id="path163" />
        <path
           d="M1130.76 619.21c0.9,2.13 1.04,2.85 2.41,4.13l0.13 0.13c12.74,6.2 30,0.62 30.42,0.49l0.01 -0.01c-0.95,-9.47 2.92,-25.07 2.92,-25.07 -10.77,5.57 -22.34,3.38 -29.9,0.71 -3.03,-1.07 -5.42,-2.21 -6.86,-2.97l-0.75 3.65c-1.21,6.14 -0.86,13.13 1.62,18.94z"
           class="fil6_1577179273357"
           vector-effect="non-scaling-stroke"
           id="path165" />
        <path
           d="M1164.62 605.25c-0.5,0 -0.91,-0.4 -0.93,-0.9 -0.02,-0.52 0.39,-0.95 0.9,-0.97 0.18,-0.01 17.55,-0.71 25.8,-9.8 0.35,-0.38 0.94,-0.41 1.32,-0.06 0.38,0.34 0.41,0.94 0.06,1.32 -8.78,9.68 -26.37,10.38 -27.12,10.41l-0.03 0z"
           class="fil1_1577179273357"
           vector-effect="non-scaling-stroke"
           id="path167" />
        <path
           d="M1162.77 621.52c-0.52,0 -0.93,-0.42 -0.93,-0.93 0,-0.52 0.41,-0.94 0.93,-0.94 0.13,0 12.87,-0.11 23.38,-8.28 0.4,-0.32 0.99,-0.25 1.31,0.16 0.32,0.41 0.24,0.99 -0.17,1.31 -11.02,8.58 -23.97,8.68 -24.52,8.68z"
           class="fil1_1577179273357"
           vector-effect="non-scaling-stroke"
           id="path169" />
        <path
           d="M1207.43 648.5c0,0 11.65,14.87 4.36,30.65 -7.28,15.78 -45.31,37.24 -45.31,37.24l-64.79 8.09 -1.91 -13.04c0,0 18.24,-4.16 25.26,-5.58 7.03,-1.41 24.84,-7.89 34.76,-6.68 0,0 31.95,-39.65 47.63,-50.68z"
           class="fil2_1577179273357"
           vector-effect="non-scaling-stroke"
           id="path171" />
        <path
           d="M1099.78 711.44c0,0 -2.97,-0.32 -4.69,-0.82 -4.62,-1.36 -14.26,-2.02 -13.86,-0.1 0.3,1.45 2.86,1.12 4.25,2.42 1.61,1.52 -5.34,2.58 -8.75,3.85 -5.94,2.21 -1.28,10.44 5.26,12.54 6.53,2.11 16.01,0.92 19.7,-4.85l-1.91 -13.04z"
           class="fil3_1577179273357"
           vector-effect="non-scaling-stroke"
           id="path173" />
        <path
           d="M469.08 657.52c0,0 37.02,2.04 52.28,-2.86 15.26,-4.9 47.03,-20.67 47.03,-20.67l-4.36 21.03c0,0 -30.03,18.83 -48.58,20.38 -18.56,1.55 -47.02,1.65 -47.02,1.65 0,0 -1.18,-11.13 0.65,-19.53z"
           class="fil2_1577179273357"
           vector-effect="non-scaling-stroke"
           id="path175" />
        <path
           d="M452.01 1046.9l16.56 0 10.55 -127.37 -11.85 -116.82 -44.77 -4.19 26.85 133.17c-7.59,30.77 -1.25,70.15 2.66,115.21z"
           class="fil6_1577179273357"
           vector-effect="non-scaling-stroke"
           id="path177" />
        <path
           d="M451.53 1045.91c0,0 -1,1.39 -1,4.27 0,2.88 0.28,12.81 0.28,12.81l48.49 0c0,0 0.17,-7.55 -5.97,-11.58 -6.14,-4.04 -15.58,-0.09 -24.6,-6.42 0,0 -2.41,2.21 -17.2,0.92z"
           class="fil5_1577179273357"
           vector-effect="non-scaling-stroke"
           id="path179" />
        <path
           d="M371.44 1045.94c3.21,-34.52 18.26,-104 27.85,-118.98l0.1 -130.26 43.75 10.37 -13.08 120.17 -41.85 117.75c-4.98,2.79 -10.78,2.26 -16.77,0.95z"
           class="fil6_1577179273357"
           vector-effect="non-scaling-stroke"
           id="path181" />
        <path
           d="M371.44 1045.94c0,0 -1.1,1.47 -1.1,4.35 0,2.88 0,12.7 0,12.7l48.44 0c0,0 0.18,-7.55 -5.96,-11.58 -6.15,-4.04 -15.59,-0.09 -24.61,-6.42 0,0 -1.98,2.24 -16.77,0.95z"
           class="fil5_1577179273357"
           vector-effect="non-scaling-stroke"
           id="path183" />
        <path
           d="M463 592.89c-0.67,-4.39 -4.05,-12.68 -6.33,-16.38 -5.4,-8.75 -16.85,-17.31 -36.92,-12.86 -23.68,5.23 -30.95,31.06 -23.83,56.07 9.8,34.44 8.16,55.52 8.16,55.52l60.57 -2.22c0,0 5.92,-30.6 -1.65,-80.13z"
           class="fil5_1577179273357"
           vector-effect="non-scaling-stroke"
           id="path185" />
        <path
           d="M482.63 860.03c-11.67,4.18 -23.95,5.99 -35.66,6.42 -0.63,0.02 -1.27,0.04 -1.89,0.05 -31.29,0.74 -58.12,-8.21 -58.12,-8.21l22.83 -126.41 -16.68 -62.53 11.29 -5.68 2.28 -1.16 0.01 0 4.96 -2.49 15.66 -7.9 31.49 4.08 4.38 0.57 2.58 0.33 3.32 0.42c-1.52,10.27 -0.44,22.77 0.84,35.43 2.35,5.06 4.28,10.7 4.39,15.71 0.1,4.47 -1.37,7.92 -3.36,10.53l0 0.01 -0.39 0.49 0.04 1.6 12.03 138.74z"
           class="fil1_1577179273357"
           vector-effect="non-scaling-stroke"
           id="path187" />
        <path
           d="M446.97 866.45c-0.63,0.02 -1.27,0.04 -1.89,0.05 10.07,-63.52 6.75,-116.88 2.09,-150.84 -5.22,-37.92 -13.18,-60.46 -13.26,-60.69 -0.17,-0.48 0.08,-1.02 0.57,-1.19 0.48,-0.18 1.02,0.08 1.19,0.56 0.09,0.23 8.11,22.96 13.35,61.07 4.68,34.03 8,87.43 -2.05,151.04z"
           class="fil2_1577179273357"
           vector-effect="non-scaling-stroke"
           id="path189" />
        <path
           d="M439.87 635.95l0.4 6.08 0.44 6.86 0.39 5.93c-2.87,2.72 -6.88,3.18 -10.52,2.8 -4.91,-0.5 -9.17,-2.49 -9.17,-2.49l-0.07 -0.47 -2.74 -17.01 -0.51 -3.1c1.59,-1.37 4.61,-1.41 7.92,-1 3.24,0.4 6.77,1.23 9.49,1.63 2.58,0.4 4.37,0.77 4.37,0.77z"
           class="fil3_1577179273357"
           vector-effect="non-scaling-stroke"
           id="path191" />
        <path
           d="M439.87 635.96l0.85 12.94c-8.94,-0.96 -17.68,-12.12 -17.68,-12.12l12.46 -1.59c2.58,0.39 4.37,0.77 4.37,0.77z"
           class="fil4_1577179273357"
           vector-effect="non-scaling-stroke"
           id="path193" />
        <path
           d="M454.47 638.04c-4.46,2.7 -9.37,3.82 -14.2,3.99 -4.61,0.16 -9.15,-0.54 -13.2,-1.58 -3.21,-0.81 -6.1,-1.84 -8.47,-2.8 -1.92,-0.77 -3.52,-1.52 -4.64,-2.07 -1.22,-0.61 -1.9,-1.01 -1.9,-1.01 0,0 -0.97,-3.07 -2.02,-7.62 -1.11,-4.83 -2.34,-11.32 -2.61,-17.55 -0.33,-7.44 0.7,-14.49 4.9,-17.84l7.75 -1.83 36.7 -8.66c0,0 0.18,0.54 0.48,1.51 0.66,2.13 1.87,6.34 3.01,11.55 0.09,0.39 0.18,0.79 0.26,1.19 3.07,14.52 5.27,35.85 -6.06,42.72z"
           class="fil3_1577179273357"
           vector-effect="non-scaling-stroke"
           id="path195" />
        <path
           d="M418.06 641.02c-1.22,-0.61 -6,-6.45 -6,-6.45 0,0 -0.97,-3.07 -2.02,-7.62l3.75 1.03c0,0 7.16,9.55 4.27,13.04z"
           class="fil5_1577179273357"
           vector-effect="non-scaling-stroke"
           id="path197" />
        <path
           d="M414.66 612.38c0,0 -6.32,-6.33 -10.43,-0.98 -4.54,5.89 1.89,21.13 13.12,18.28l-2.69 -17.3z"
           class="fil3_1577179273357"
           vector-effect="non-scaling-stroke"
           id="path199" />
        <path
           d="M457.26 582.59c1.05,4.75 -6.07,11.52 -36.26,19.23 0,0 3.41,13.95 -2.86,14.14 -1.49,0.04 -4.85,-7.59 -10.71,-6.56 -0.33,-7.44 0.7,-14.49 4.9,-17.84l44.45 -10.49c0,0 0.18,0.54 0.48,1.52z"
           class="fil5_1577179273357"
           vector-effect="non-scaling-stroke"
           id="path201" />
        <path
           d="M421.46 591.09c0,0 1.56,21.74 4.55,42.46 0.33,2.32 0.68,4.64 1.06,6.9 1.03,6.3 -0.94,11.77 -5.73,14.21l-2.74 -17.01c-1.93,-0.77 -3.51,-1.52 -4.64,-2.07 -1.22,-0.61 -1.9,-1.01 -1.9,-1.01 0,0 -0.96,-3.07 -2.02,-7.62 -1.12,-4.83 -2.34,-11.32 -2.61,-17.55 -0.33,-7.44 0.71,-14.49 4.9,-17.84l7.75 -1.83c1.03,0.56 1.38,1.36 1.38,1.36z"
           class="fil5_1577179273357"
           vector-effect="non-scaling-stroke"
           id="path203" />
        <path
           d="M462.07 633.99c-0.87,2.13 -1,2.86 -2.34,4.16l-0.14 0.13c-12.63,6.41 -29.99,1.11 -30.4,0.98l-0.01 0c0.79,-9.49 -3.33,-25.02 -3.33,-25.02 10.86,5.4 22.39,3.01 29.91,0.22 3.01,-1.11 5.38,-2.3 6.8,-3.07l0.82 3.63c1.3,6.12 1.07,13.12 -1.31,18.97z"
           class="fil6_1577179273357"
           vector-effect="non-scaling-stroke"
           id="path205" />
        <path
           d="M425.8 620.66c-4.95,0 -17.53,-1.01 -32.96,-9.75 -0.44,-0.25 -0.6,-0.82 -0.35,-1.27 0.26,-0.45 0.83,-0.61 1.27,-0.36 19.08,10.82 33.96,9.45 34.11,9.43 0.51,-0.05 0.97,0.32 1.02,0.84 0.06,0.51 -0.32,0.97 -0.83,1.02 -0.14,0.01 -0.92,0.09 -2.26,0.09z"
           class="fil1_1577179273357"
           vector-effect="non-scaling-stroke"
           id="path207" />
        <path
           d="M429.37 636.82c-3.06,0 -15.2,-0.38 -31.06,-5.91 -0.49,-0.17 -0.74,-0.7 -0.57,-1.19 0.17,-0.49 0.7,-0.75 1.19,-0.57 17.67,6.16 30.99,5.8 31.12,5.8l0.03 0c0.5,0 0.92,0.39 0.93,0.9 0.02,0.52 -0.38,0.95 -0.9,0.96 -0.07,0.01 -0.32,0.01 -0.74,0.01z"
           class="fil1_1577179273357"
           vector-effect="non-scaling-stroke"
           id="path209" />
        <path
           d="M582.29 595.85l-126 166.05c-4.54,5.98 -3.37,14.51 2.62,19.05 5.98,4.54 14.51,3.37 19.05,-2.61l126 -166.05 -21.67 -16.44z"
           class="fil5_1577179273357"
           vector-effect="non-scaling-stroke"
           id="path211" />
        <polygon
           points="721.75,516.8 675.34,502.04 596.17,606.38 590.08,601.76 675.82,488.76"
           class="fil8_1577179273357"
           vector-effect="non-scaling-stroke"
           id="polygon213" />
        <polygon
           points="604.78,595.04 596.17,606.38 590.08,601.76 598.69,590.42"
           class="fil10_1577179273357"
           vector-effect="non-scaling-stroke"
           id="polygon215" />
        <path
           d="M404.05 668.68c13.79,7.4 37.51,23.92 45.86,31.28 0,0 17.43,-3.54 29.7,-4.6 11.25,-0.98 45.47,-11.87 45.47,-11.87l4.95 12.3c0,0 -57.27,25.41 -81.14,22.32 -24.59,-3.19 -59.83,-32.79 -59.83,-32.79 0,0 -0.13,-0.18 -0.33,-0.51 -6.17,-9.98 4.99,-21.68 15.32,-16.13z"
           class="fil2_1577179273357"
           vector-effect="non-scaling-stroke"
           id="path217" />
        <path
           d="M525.08 683.49c0,0 2.1,-1.62 3.31,-2.96 3.21,-3.58 11.08,-9.19 11.74,-7.35 0.5,1.39 -1.84,2.46 -2.34,4.29 -0.58,2.14 5.89,-0.6 9.47,-1.32 6.21,-1.23 6.56,8.23 2.1,13.45 -4.46,5.21 -13.16,9.17 -19.33,6.19l-4.95 -12.3z"
           class="fil3_1577179273357"
           vector-effect="non-scaling-stroke"
           id="path219" />
      </g>
    </g>
  </g>
</svg>