<?xml version="1.0" encoding="UTF-8" standalone="no"?>
<svg
   xmlns:dc="http://purl.org/dc/elements/1.1/"
   xmlns:cc="http://creativecommons.org/ns#"
   xmlns:rdf="http://www.w3.org/1999/02/22-rdf-syntax-ns#"
   xmlns:svg="http://www.w3.org/2000/svg"
   xmlns="http://www.w3.org/2000/svg"
   xmlns:sodipodi="http://sodipodi.sourceforge.net/DTD/sodipodi-0.dtd"
   xmlns:inkscape="http://www.inkscape.org/namespaces/inkscape"
   version="1.2"
   preserveAspectRatio="none"
   style="overflow: visible; width: 120px; height: 120px; opacity: 1; mix-blend-mode: normal"
   class="ng-element"
   data-id="d95ccdbbf56e463f80536364d7a4d030"
   viewBox="0 0 120 120"
   id="svg9"
   sodipodi:docname="video.svg"
   inkscape:version="0.92.3 (2405546, 2018-03-11)">
  <metadata
     id="metadata13">
    <rdf:RDF>
      <cc:Work
         rdf:about="">
        <dc:format>image/svg+xml</dc:format>
        <dc:type
           rdf:resource="http://purl.org/dc/dcmitype/StillImage" />
        <dc:title></dc:title>
      </cc:Work>
    </rdf:RDF>
  </metadata>
  <sodipodi:namedview
     pagecolor="#ffffff"
     bordercolor="#666666"
     borderopacity="1"
     objecttolerance="10"
     gridtolerance="10"
     guidetolerance="10"
     inkscape:pageopacity="0"
     inkscape:pageshadow="2"
     inkscape:window-width="828"
     inkscape:window-height="480"
     id="namedview11"
     showgrid="false"
     inkscape:zoom="1.9666667"
     inkscape:cx="60"
     inkscape:cy="60"
     inkscape:window-x="0"
     inkscape:window-y="27"
     inkscape:window-maximized="0"
     inkscape:current-layer="svg9" />
  <defs
     id="defs3">
    <path
       id="path-15813500674458354"
       d="M0 20.000000000000004 C0 8.954305004000002 8.954305004000002 0 20.000000000000004 0 C20.000000000000004 0 99.99999999999991 0 99.99999999999991 0 C111.04569499599991 0 119.99999999999991 8.954305004000002 119.99999999999991 20.000000000000004 C119.99999999999991 20.000000000000004 119.99999999999991 99.99999999999991 119.99999999999991 99.99999999999991 C119.99999999999991 111.04569499599991 111.04569499599991 119.99999999999991 99.99999999999991 119.99999999999991 C99.99999999999991 119.99999999999991 20.000000000000004 119.99999999999991 20.000000000000004 119.99999999999991 C8.954305004000002 119.99999999999991 0 111.04569499599991 0 99.99999999999991 C0 99.99999999999991 0 20.000000000000004 0 20.000000000000004 Z" />
  </defs>
  <g
     transform="translate(0, 0)"
     id="g7">
    <path
       style="stroke: rgb(140, 140, 140); stroke-width: 0; stroke-linecap: butt; stroke-linejoin: miter; fill: rgb(225, 0, 92);"
       d="M0 20.000000000000004 C0 8.954305004000002 8.954305004000002 0 20.000000000000004 0 C20.000000000000004 0 99.99999999999991 0 99.99999999999991 0 C111.04569499599991 0 119.99999999999991 8.954305004000002 119.99999999999991 20.000000000000004 C119.99999999999991 20.000000000000004 119.99999999999991 99.99999999999991 119.99999999999991 99.99999999999991 C119.99999999999991 111.04569499599991 111.04569499599991 119.99999999999991 99.99999999999991 119.99999999999991 C99.99999999999991 119.99999999999991 20.000000000000004 119.99999999999991 20.000000000000004 119.99999999999991 C8.954305004000002 119.99999999999991 0 111.04569499599991 0 99.99999999999991 C0 99.99999999999991 0 20.000000000000004 0 20.000000000000004 Z"
       id="path5" />
  </g>
</svg>