<?xml version="1.0" encoding="utf-8"?>
<!-- Generator: Adobe Illustrator 19.1.0, SVG Export Plug-In . SVG Version: 6.00 Build 0)  -->
<svg version="1.1" id="Layer_1" xmlns="http://www.w3.org/2000/svg" xmlns:xlink="http://www.w3.org/1999/xlink" x="0px" y="0px"
	 viewBox="0 0 18 18" style="enable-background:new 0 0 18 18;" xml:space="preserve">
<style type="text/css">
	.st0{fill:#dcdedf;}
</style>
<path class="st0" d="M9,0C4,0,0,4,0,9c0,5,4,9,9,9c5,0,9-4,9-9C18,4,14,0,9,0z M10,13.8c-0.1,0.2-0.2,0.3-0.3,0.4
	c-0.1,0.1-0.3,0.2-0.5,0.3c-0.2,0.1-0.4,0.1-0.6,0.1c-0.2,0-0.4,0-0.6-0.1c-0.2-0.1-0.3-0.2-0.5-0.3c-0.1-0.1-0.2-0.3-0.3-0.4
	c-0.1-0.2-0.1-0.3-0.1-0.5s0-0.4,0.1-0.5c0.1-0.2,0.2-0.3,0.3-0.4c0.1-0.1,0.3-0.2,0.5-0.3C8.2,12.1,8.4,12,8.6,12
	c0.2,0,0.4,0,0.6,0.1c0.2,0.1,0.3,0.2,0.5,0.3c0.1,0.1,0.2,0.3,0.3,0.4c0.1,0.2,0.1,0.3,0.1,0.5S10,13.7,10,13.8z M12.2,7.1
	c-0.1,0.3-0.3,0.5-0.4,0.7c-0.2,0.2-0.4,0.4-0.6,0.5c-0.2,0.2-0.4,0.3-0.6,0.4c-0.2,0.1-0.4,0.3-0.5,0.4C9.9,9.2,9.8,9.4,9.8,9.5
	l-0.2,1.1H7.8L7.6,9.4c0-0.2,0-0.5,0.1-0.6c0.1-0.2,0.2-0.4,0.4-0.5c0.2-0.1,0.4-0.3,0.6-0.4c0.2-0.1,0.4-0.3,0.6-0.4
	c0.2-0.2,0.3-0.3,0.5-0.5C9.9,6.7,10,6.5,10,6.2c0-0.3-0.1-0.5-0.3-0.7C9.4,5.3,9.1,5.2,8.8,5.2c-0.3,0-0.5,0-0.7,0.1
	C7.8,5.3,7.7,5.4,7.5,5.5C7.4,5.5,7.2,5.6,7.1,5.7C7,5.7,6.9,5.7,6.8,5.7c-0.2,0-0.4-0.1-0.5-0.3l-0.7-1C5.8,4.4,6,4.2,6.3,4.1
	c0.2-0.1,0.5-0.3,0.8-0.4C7.3,3.6,7.6,3.5,8,3.5c0.3-0.1,0.7-0.1,1-0.1c0.5,0,1,0.1,1.4,0.2c0.4,0.1,0.8,0.3,1.1,0.5
	C11.8,4.3,12,4.6,12.1,5c0.2,0.3,0.2,0.7,0.2,1.1C12.4,6.4,12.3,6.8,12.2,7.1z"/>
</svg>
