<?xml version="1.0" encoding="utf-8"?>
<!-- Generator: Adobe Illustrator 19.1.0, SVG Export Plug-In . SVG Version: 6.00 Build 0)  -->
<svg version="1.1" id="Layer_1" xmlns="http://www.w3.org/2000/svg" xmlns:xlink="http://www.w3.org/1999/xlink" x="0px" y="0px"
	 viewBox="-325.5 218 36.5 46" style="enable-background:new -325.5 218 36.5 46;" xml:space="preserve">
<style type="text/css">
	.st0{fill-rule:evenodd;clip-rule:evenodd;fill:#E0005C;}
</style>
<g>
	<g>
		<path class="st0" d="M-306.5,231h-9v2h9V231z M-315.5,239h20v-2h-20V239z M-315.5,245h20v-2h-20V245z M-315.5,251h20v-2h-20V251z
			 M-315.5,257h20v-2h-20V257z M-293.5,229v-11h-32v42h4v4h32v-31L-293.5,229z M-321.5,258h-2v-38h28v7l-5-5h-21V258z M-291.5,262
			h-28v-38h17v11h11V262z M-300.5,233v-9l9,9H-300.5z"/>
	</g>
</g>
</svg>
