<?xml version="1.0" encoding="utf-8"?>
<!-- Generator: Adobe Illustrator 19.1.0, SVG Export Plug-In . SVG Version: 6.00 Build 0)  -->
<svg version="1.1" id="Layer_1" xmlns="http://www.w3.org/2000/svg" xmlns:xlink="http://www.w3.org/1999/xlink" x="0px" y="0px"
	 viewBox="-299.5 236 11 11" style="enable-background:new -299.5 236 11 11;" xml:space="preserve">
<style type="text/css">
	.st0{fill:#A9AAAE;}
</style>
<g>
	<g>
		<path class="st0" d="M-294,236c-3,0-5.5,2.5-5.5,5.5c0,3,2.5,5.5,5.5,5.5c3,0,5.5-2.5,5.5-5.5C-288.5,238.5-290.9,236-294,236z
			 M-291.5,241.5l-2.3,1.5c-0.3,0.2-0.7,0-0.8-0.2l-2.1-2.7c-0.2-0.3,0-0.6,0.3-0.8c0.3-0.2,0.7,0,0.8,0.2l1.9,2.2l1.8-1.2
			c0.3-0.2,0.7,0,0.8,0.2C-291.1,241-291.2,241.3-291.5,241.5z"/>
	</g>
</g>
</svg>
