<?xml version="1.0" encoding="utf-8"?>
<!-- Generator: Adobe Illustrator 19.1.0, SVG Export Plug-In . SVG Version: 6.00 Build 0)  -->
<svg version="1.1" id="Layer_1" xmlns="http://www.w3.org/2000/svg" xmlns:xlink="http://www.w3.org/1999/xlink" x="0px" y="0px"
	 viewBox="-313.5 235 11 11" style="enable-background:new -313.5 235 11 11;" xml:space="preserve">
<style type="text/css">
	.st0{fill:#A9AAAE;}
</style>
<g>
	<g>
		<path class="st0" d="M-308,235c-3,0-5.5,2.5-5.5,5.5c0,3,2.5,5.5,5.5,5.5c3,0,5.5-2.5,5.5-5.5C-302.5,237.5-305,235-308,235z
			 M-305.6,240.5l-2.3,1.5c-0.3,0.2-0.7,0-0.8-0.2l-2.1-2.7c-0.2-0.3,0-0.6,0.3-0.8c0.3-0.2,0.7,0,0.8,0.2l1.9,2.2l1.8-1.2
			c0.3-0.2,0.7,0,0.8,0.2C-305.1,240-305.3,240.3-305.6,240.5z"/>
	</g>
</g>
</svg>
