<?xml version="1.0" encoding="utf-8"?>
<!-- Generator: Adobe Illustrator 19.1.0, SVG Export Plug-In . SVG Version: 6.00 Build 0)  -->
<svg version="1.1" id="Layer_1" xmlns="http://www.w3.org/2000/svg" xmlns:xlink="http://www.w3.org/1999/xlink" x="0px" y="0px"
	 viewBox="-307 229 24 24" style="enable-background:new -307 229 24 24;" xml:space="preserve">
<style type="text/css">
	.st0{fill:#A9AAAE;}
</style>
<path class="st0" d="M-295,229c-6.6,0-12,5.4-12,12c0,6.6,5.4,12,12,12c6.6,0,12-5.4,12-12C-283,234.4-288.4,229-295,229L-295,229z
	 M-290.4,235.1l-1.7,0c-1.3,0-1.6,0.6-1.6,1.5v2h3.1l0,3.1h-3.1v8h-3.2v-8h-2.7v-3.1h2.7v-2.3c0-2.7,1.6-4.1,4-4.1l2.4,0
	L-290.4,235.1L-290.4,235.1z M-290.4,235.1"/>
</svg>
