<?xml version="1.0" encoding="utf-8"?>
<!-- Generator: Adobe Illustrator 19.1.0, SVG Export Plug-In . SVG Version: 6.00 Build 0)  -->
<svg version="1.1" id="Layer_1" xmlns="http://www.w3.org/2000/svg" xmlns:xlink="http://www.w3.org/1999/xlink" x="0px" y="0px"
	 viewBox="-307 229 24 24" style="enable-background:new -307 229 24 24;" xml:space="preserve">
<style type="text/css">
	.st0{fill:#A9AAAE;}
</style>
<g>
	<g>
		<path class="st0" d="M-295,243.4c1.3,0,2.4-1.1,2.4-2.4c0-0.5-0.2-1-0.5-1.4c-0.4-0.6-1.1-1-1.9-1c-0.8,0-1.5,0.4-1.9,1
			c-0.3,0.4-0.5,0.9-0.5,1.4C-297.4,242.3-296.3,243.4-295,243.4z M-289.8,238.1v-2.3h-0.3l-2,0l0,2.3L-289.8,238.1z M-295,229
			c-6.6,0-12,5.4-12,12c0,6.6,5.4,12,12,12c6.6,0,12-5.4,12-12C-283,234.4-288.4,229-295,229z M-288.2,245.2c0,1.5-1.2,2.6-2.6,2.6
			h-8.4c-1.5,0-2.6-1.2-2.6-2.6v-8.4c0-1.5,1.2-2.6,2.6-2.6h8.4c1.5,0,2.6,1.2,2.6,2.6V245.2z M-291.3,241c0,2.1-1.7,3.7-3.7,3.7
			c-2.1,0-3.7-1.7-3.7-3.7c0-0.5,0.1-1,0.3-1.4h-2v5.6c0,0.7,0.6,1.3,1.3,1.3h8.4c0.7,0,1.3-0.6,1.3-1.3v-5.6h-2
			C-291.4,240-291.3,240.5-291.3,241z"/>
	</g>
</g>
</svg>
