<?xml version="1.0" encoding="utf-8"?>
<!-- Generator: Adobe Illustrator 19.1.0, SVG Export Plug-In . SVG Version: 6.00 Build 0)  -->
<svg version="1.1" id="Layer_1" xmlns="http://www.w3.org/2000/svg" xmlns:xlink="http://www.w3.org/1999/xlink" x="0px" y="0px"
	 viewBox="-217.5 225 45.8 30" style="enable-background:new -217.5 225 45.8 30;" xml:space="preserve">
<style type="text/css">
	.st0{fill:#A9AAAE;}
</style>
<path class="st0" d="M-195.4,243c0.5,0,0.9-0.1,1.4-0.2l0.2-1.2c-0.5,0.2-0.9,0.3-1.4,0.3c-0.8,0-1.2-0.3-1.2-0.8c0,0,0-0.1,0-0.1
	h2.8c0.1-0.5,0.2-0.8,0.2-1.2c0-1-0.7-1.7-1.9-1.7c-1.4,0-2.4,1.2-2.4,2.8C-197.8,242.2-197,243-195.4,243L-195.4,243z
	 M-195.4,239.2c0.4,0,0.6,0.2,0.6,0.6v0.2h-1.5C-196.2,239.5-195.9,239.2-195.4,239.2L-195.4,239.2z M-188.2,241.3
	c0,0.1,0,0.1,0,0.2c0,0.2,0.2,0.3,0.5,0.3c0.2,0,0.3,0,0.4,0l-0.2,1c-0.4,0.1-0.7,0.2-1,0.2c-0.7,0-1.1-0.4-1.1-1c0-0.1,0-0.3,0-0.4
	l0.1-0.5l0.1-0.4l0.7-3.6h1.4l-0.2,1.1h0.7l-0.2,1.1h-0.7L-188.2,241.3z M-191,238.1c0.3,0,0.9,0,1.2,0.1l-0.2,1.1
	c-0.4,0-0.7-0.1-1-0.1c-0.5,0-0.7,0.1-0.7,0.4c0,0.2,0.1,0.3,0.6,0.5c0.7,0.3,1,0.7,1,1.3c0,1.1-0.7,1.6-2.2,1.6c-0.2,0-0.4,0-0.8,0
	c-0.2,0-0.3,0-0.4,0l-0.2,0l-0.1,0l0.2-1.1c0.4,0.1,0.8,0.2,1.3,0.2c0.5,0,0.8-0.1,0.8-0.4c0-0.2-0.1-0.3-0.7-0.5
	c-0.7-0.3-1.1-0.7-1.1-1.3C-193.1,238.8-192.5,238.1-191,238.1L-191,238.1z M-197.4,245h5.6c-0.2,0.4-0.4,0.9-0.7,1.3h-4.2
	C-196.9,245.9-197.1,245.5-197.4,245L-197.4,245z M-199.9,238.1c-0.5,0-1,0.1-1.7,0.2l-0.2,1l0.1,0l0.2,0c0.3-0.1,0.7-0.1,1.1-0.1
	c0.6,0,0.9,0.1,0.9,0.4c0,0.1,0,0.1-0.1,0.3c-0.2,0-0.4,0-0.6,0c-1.5,0-2.4,0.7-2.4,1.8c0,0.8,0.5,1.3,1.3,1.3
	c0.6,0,1.1-0.2,1.5-0.6l0,0.5h1.2l0-0.1l0-0.2l0-0.2l0-0.3l0.3-1.7c0.1-0.5,0.1-0.7,0.1-0.9C-198.1,238.6-198.7,238.1-199.9,238.1
	L-199.9,238.1z M-200.6,242c-0.3,0-0.5-0.2-0.5-0.5c0-0.5,0.4-0.7,1.2-0.7c0.1,0,0.2,0,0.3,0C-199.6,241.5-200,242-200.6,242
	L-200.6,242z M-194.5,248.8C-194.6,248.8-194.6,248.8-194.5,248.8c-0.5-0.4-0.9-0.8-1.2-1.3h2.4C-193.7,248-194.1,248.4-194.5,248.8
	L-194.5,248.8z M-192.5,233.7h-4c0.3-0.4,0.5-0.9,0.8-1.3h2.2C-193.1,232.8-192.8,233.3-192.5,233.7L-192.5,233.7z M-191.3,236.2
	h-6.5c0.1-0.1,0.3-0.6,0.6-1.3h5.4C-191.6,235.4-191.5,235.8-191.3,236.2L-191.3,236.2z M-202,237.1l-1.1,5.7h-1.4l0.8-4.4l-1.9,4.4
	h-1.3l-0.2-4.4l-0.8,4.4h-1.3l1.1-5.7h2.2l0.1,3.5l1.5-3.5H-202z M-178.9,242.4C-178.9,242.3-179,242.3-178.9,242.4l-0.2,0v0.3h0.1
	v-0.1h0l0.1,0.1h0.1l-0.1-0.1C-178.9,242.5-178.9,242.5-178.9,242.4C-178.9,242.4-178.9,242.4-178.9,242.4L-178.9,242.4z
	 M-179,242.5C-179,242.5-179,242.5-179,242.5L-179,242.5L-179,242.5L-179,242.5C-179,242.4-179,242.4-179,242.5
	C-179,242.4-179,242.4-179,242.5C-179,242.4-179,242.5-179,242.5L-179,242.5z M-176,246.4C-176,246.4-176.1,246.4-176,246.4l-0.2,0
	v0.3h0.1v-0.1h0.1l0,0.1h0.1l0-0.1C-176,246.6-176,246.6-176,246.4C-176,246.5-176,246.5-176,246.4L-176,246.4z M-176.1,246.6
	C-176.1,246.6-176.1,246.6-176.1,246.6L-176.1,246.6L-176.1,246.6L-176.1,246.6C-176.1,246.5-176.1,246.5-176.1,246.6
	C-176,246.5-176,246.5-176.1,246.6C-176,246.5-176,246.6-176.1,246.6L-176.1,246.6z M-172.8,225h-43.5c-0.7,0-1.2,0.5-1.2,1.2v27.6
	c0,0.7,0.5,1.2,1.2,1.2h43.5c0.7,0,1.2-0.5,1.2-1.2v-27.6C-171.6,225.6-172.2,225-172.8,225L-172.8,225z M-175.8,246.8
	c0,0.1-0.1,0.1-0.1,0.1c-0.1,0-0.1,0.1-0.2,0.1c-0.1,0-0.1,0-0.2-0.1c-0.1,0-0.1-0.1-0.1-0.1c0-0.1-0.1-0.1-0.1-0.2
	c0-0.1,0-0.1,0.1-0.2c0-0.1,0.1-0.1,0.1-0.1c0.1,0,0.1-0.1,0.2-0.1c0.1,0,0.1,0,0.2,0.1c0.1,0,0.1,0.1,0.1,0.1
	c0,0.1,0.1,0.1,0.1,0.2C-175.7,246.7-175.7,246.7-175.8,246.8L-175.8,246.8z M-174.9,240c0,6.6-5.3,11.9-11.8,11.9
	c-3,0-5.8-1.2-7.9-3.1c-2.1,1.9-4.9,3.1-7.9,3.1c-6.5,0-11.8-5.3-11.8-11.9c0-6.5,5.2-11.8,11.7-11.9h0.1c3,0,5.8,1.2,7.9,3.1
	c2.1-1.9,4.9-3.1,7.9-3.1C-180.2,228.1-174.9,233.5-174.9,240L-174.9,240L-174.9,240z M-179,242.1c-0.2,0-0.4,0.2-0.4,0.4
	c0,0.2,0.2,0.4,0.4,0.4c0.2,0,0.4-0.2,0.4-0.4C-178.6,242.3-178.8,242.1-179,242.1L-179,242.1z M-179,242.8c-0.1,0-0.3-0.1-0.3-0.3
	s0.1-0.3,0.3-0.3c0.2,0,0.3,0.1,0.3,0.3S-178.9,242.8-179,242.8L-179,242.8z M-179.1,240.2c0-1.2-0.8-2.1-2.2-2.1
	c-1.7,0-2.7,1.1-2.7,2.8c0,1.2,0.6,2.1,2.2,2.1c1.4,0,2.5-0.7,2.7-2.2C-179.1,240.5-179.1,240.5-179.1,240.2L-179.1,240.2z
	 M-180.7,240.7c-0.1,0.7-0.8,1.1-1.1,1.1c-0.5,0-0.8-0.4-0.8-1c0-0.7,0.4-1.6,1.1-1.6c0.6,0,0.8,0.5,0.8,0.9
	C-180.6,240.4-180.6,240.5-180.7,240.7L-180.7,240.7z M-184,239.6l-0.2,0c-0.1,0-0.1,0-0.2,0c-0.7,0-0.9,0.5-1.4,3.3h-1.4l0.8-4.7
	h1.3l-0.1,0.7c0.4-0.5,0.8-0.8,1.2-0.8c0.1,0,0.1,0,0.2,0c0,0,0.1,0,0.1,0c0,0,0,0,0.2,0.1L-184,239.6z M-184,239.6"/>
</svg>
