<?xml version="1.0" encoding="utf-8"?>
<!-- Generator: Adobe Illustrator 19.1.0, SVG Export Plug-In . SVG Version: 6.00 Build 0)  -->
<svg version="1.1" id="Layer_1" xmlns="http://www.w3.org/2000/svg" xmlns:xlink="http://www.w3.org/1999/xlink" x="0px" y="0px"
	 viewBox="-217.5 225 45.8 30" style="enable-background:new -217.5 225 45.8 30;" xml:space="preserve">
<style type="text/css">
	.st0{fill:#A9AAAE;}
</style>
<path class="st0" d="M-205.3,238c-0.9,0-1.5,0.3-1.5,0.3l-0.2,1.1c0,0,0.5-0.2,1.4-0.2c0.5,0,0.8,0.1,0.8,0.4c0,0.2,0,0.3,0,0.3
	s-0.4,0-0.5,0c-1.1,0-2.2,0.5-2.2,1.9c0,1.1,0.7,1.4,1.2,1.4c0.9,0,1.3-0.6,1.3-0.6l0,0.5h1.1l0.5-3.5
	C-203.6,238.1-204.8,238-205.3,238L-205.3,238z M-205.9,242.1c-0.4,0-0.5-0.3-0.5-0.5c0-0.3,0.2-0.8,1.1-0.8c0.2,0,0.2,0,0.3,0
	C-205,241.1-205.1,242.1-205.9,242.1L-205.9,242.1z M-202,239.6c0,0.6,1.5,0.3,1.5,1.9c0,1.7-1.6,1.6-1.9,1.6
	c-1.1,0-1.4-0.1-1.4-0.2l0.2-1.1c0,0,0.5,0.2,1.1,0.2c0.3,0,0.8,0,0.8-0.4c0-0.6-1.6-0.5-1.6-1.9c0-1.3,0.9-1.7,1.9-1.7
	c0.7,0,1.2,0.1,1.2,0.1l-0.2,1.1c0,0-0.7-0.1-0.9-0.1C-201.7,239.2-202,239.3-202,239.6L-202,239.6z M-199,241.5
	c0,0.2,0,0.4,0.5,0.4c0.1,0,0.2,0,0.3,0l-0.2,1.1c-0.1,0-0.5,0.2-0.9,0.2c-0.6,0-1-0.3-1-1.1c0-0.5,0.7-4.6,0.7-4.7h1.3l-0.1,0.7
	h0.6l-0.2,1.2h-0.7L-199,241.5z M-194.2,241c0,0,0.2-0.8,0.2-1.2c0-0.8-0.4-1.8-1.8-1.8c-1.3,0-2.2,1.4-2.2,2.9
	c0,1.8,1.2,2.2,2.2,2.2c0.9,0,1.3-0.2,1.3-0.2l0.2-1.2c0,0-0.7,0.3-1.3,0.3c-1.3,0-1.1-1-1.1-1H-194.2z M-195.8,239.1
	c0.7,0,0.6,0.8,0.6,0.9h-1.4C-196.6,239.9-196.5,239.1-195.8,239.1L-195.8,239.1z M-207.2,237l-1,6h-1.3l0.7-4.5l-1.6,4.5h-0.9
	l-0.1-4.5l-0.8,4.5h-1.2l1-6h1.8l0.1,3.7l1.2-3.7H-207.2z M-191.3,236.2h-6.5c0.1-0.1,0.3-0.6,0.6-1.3h5.4
	C-191.6,235.4-191.5,235.8-191.3,236.2L-191.3,236.2z M-192.5,233.7h-4c0.3-0.4,0.5-0.9,0.8-1.3h2.2
	C-193.1,232.8-192.8,233.3-192.5,233.7L-192.5,233.7z M-194.6,248.8c-0.4-0.4-0.8-0.8-1.2-1.3h2.4
	C-193.7,248-194.1,248.4-194.6,248.8L-194.6,248.8C-194.5,248.8-194.5,248.8-194.6,248.8C-194.6,248.8-194.6,248.8-194.6,248.8
	L-194.6,248.8z M-192.5,246.3h-4.2c-0.3-0.4-0.5-0.8-0.7-1.3h5.6C-192,245.5-192.2,245.9-192.5,246.3L-192.5,246.3z M-191,238.1
	c-0.2,0.3-0.3,0.7-0.5,1.5c-0.9-0.3-0.9,1.4-1.3,3.5h-1.3l0.8-4.9h1.2l-0.1,0.7c0,0,0.4-0.8,1-0.8C-191.1,238.1-191,238.1-191,238.1
	L-191,238.1z M-188.7,241.9c0.4,0,1-0.3,1-0.3l-0.2,1.4c0,0-0.7,0.2-1.1,0.2c-1.5,0-2.3-1-2.3-2.6c0-2.4,1.4-3.6,2.9-3.6
	c0.7,0,1.4,0.3,1.4,0.3l-0.2,1.3c0,0-0.5-0.4-1.2-0.4c-0.8,0-1.6,0.8-1.6,2.3C-189.9,241.2-189.6,241.9-188.7,241.9L-188.7,241.9z
	 M-176.5,242.3c-0.1,0-0.1,0.1-0.1,0.1c0,0.1-0.1,0.1-0.1,0.2c0,0.1,0,0.1,0.1,0.2c0,0.1,0.1,0.1,0.1,0.1c0.1,0,0.1,0.1,0.2,0.1
	c0.1,0,0.1,0,0.2-0.1c0.1,0,0.1-0.1,0.1-0.1c0-0.1,0.1-0.1,0.1-0.2c0-0.1,0-0.1-0.1-0.2c0-0.1-0.1-0.1-0.1-0.1c-0.1,0-0.1,0-0.2,0
	C-176.3,242.3-176.4,242.3-176.5,242.3L-176.5,242.3z M-176,242.5c0,0,0,0.1,0,0.2c0,0.1,0,0.1,0,0.2c0,0.1-0.1,0.1-0.1,0.1
	c-0.1,0-0.1,0-0.2,0c-0.1,0-0.1,0-0.2,0c-0.1,0-0.1-0.1-0.1-0.1c0-0.1,0-0.1,0-0.2c0-0.1,0-0.1,0-0.2c0-0.1,0.1-0.1,0.1-0.1
	c0.1,0,0.1,0,0.2,0c0.1,0,0.1,0,0.2,0C-176.1,242.4-176,242.5-176,242.5L-176,242.5z M-181.1,241.1c0,1,0.5,2,1.6,2
	c0.7,0,1.2-0.5,1.2-0.5l-0.1,0.4h1.2l1-6l-1.3,0l-0.3,1.7c0,0-0.5-0.7-1.2-0.7C-180.1,238.1-181.1,239.5-181.1,241.1L-181.1,241.1z
	 M-178.1,240.3c0,0.7-0.3,1.6-1,1.6c-0.4,0-0.7-0.4-0.7-1c0-1,0.4-1.6,1-1.6C-178.3,239.3-178.1,239.6-178.1,240.3L-178.1,240.3z
	 M-176,246.7C-176,246.6-176.1,246.6-176,246.7C-176,246.6-176,246.6-176,246.7c0.1-0.1,0.1-0.1,0.1-0.1c0,0,0,0,0-0.1
	c0,0,0,0-0.1,0c0,0-0.1,0-0.1,0h-0.1v0.4h0.1v-0.2h0C-176.1,246.6-176.1,246.7-176,246.7C-176.1,246.7-176.1,246.7-176,246.7l0,0.2
	h0.1L-176,246.7C-176,246.7-176,246.7-176,246.7L-176,246.7z M-176.1,246.6L-176.1,246.6l-0.1-0.1h0.1c0,0,0.1,0,0.1,0
	C-176.1,246.5-176,246.5-176.1,246.6C-176,246.5-176,246.5-176.1,246.6C-176,246.5-176,246.6-176.1,246.6
	C-176.1,246.6-176.1,246.6-176.1,246.6L-176.1,246.6z M-172.8,225h-43.5c-0.7,0-1.2,0.5-1.2,1.2v27.6c0,0.7,0.5,1.2,1.2,1.2h43.5
	c0.7,0,1.2-0.5,1.2-1.2v-27.6C-171.7,225.6-172.2,225-172.8,225L-172.8,225z M-175.8,246.8c0,0.1-0.1,0.1-0.1,0.1
	c-0.1,0-0.1,0.1-0.2,0.1c-0.1,0-0.1,0-0.2-0.1c-0.1,0-0.1-0.1-0.1-0.1c0-0.1-0.1-0.1-0.1-0.2c0-0.1,0-0.1,0.1-0.2
	c0-0.1,0.1-0.1,0.1-0.1c0.1,0,0.1-0.1,0.2-0.1c0.1,0,0.1,0,0.2,0.1c0.1,0,0.1,0.1,0.1,0.1c0,0.1,0.1,0.1,0.1,0.2
	C-175.7,246.7-175.7,246.7-175.8,246.8L-175.8,246.8z M-174.9,240c0,6.6-5.3,11.9-11.8,11.9c-3,0-5.8-1.2-7.9-3.1
	c-2.1,1.9-4.9,3.1-7.9,3.1c-6.5,0-11.8-5.3-11.8-11.9c0-6.5,5.2-11.8,11.7-11.9h0.1c3,0,5.8,1.2,7.9,3.1c2.1-1.9,4.9-3.1,7.9-3.1
	C-180.2,228.1-174.9,233.5-174.9,240L-174.9,240L-174.9,240z M-176.4,242.5v0.4h0.1v-0.2h0c0,0,0,0,0.1,0c0,0,0,0,0.1,0.1l0,0.1h0.1
	l-0.1-0.1c0,0,0-0.1-0.1-0.1c0,0,0,0,0,0c0,0,0.1,0,0.1,0c0,0,0,0,0-0.1c0,0,0,0,0-0.1c0,0,0,0-0.1,0c0,0-0.1,0-0.1,0H-176.4z
	 M-176.2,242.6C-176.2,242.6-176.2,242.6-176.2,242.6C-176.2,242.6-176.2,242.6-176.2,242.6C-176.2,242.7-176.2,242.7-176.2,242.6
	l-0.2,0.1v-0.1L-176.2,242.6C-176.3,242.5-176.2,242.5-176.2,242.6C-176.2,242.5-176.2,242.6-176.2,242.6L-176.2,242.6z M-185,238
	c-0.9,0-1.5,0.3-1.5,0.3l-0.2,1.1c0,0,0.5-0.2,1.4-0.2c0.5,0,0.8,0.1,0.8,0.4c0,0.2,0,0.3,0,0.3s-0.4,0-0.5,0
	c-1.1,0-2.2,0.5-2.2,1.9c0,1.1,0.7,1.4,1.2,1.4c0.9,0,1.3-0.6,1.3-0.6l0,0.5h1.1l0.5-3.5C-183.3,238.1-184.5,238-185,238L-185,238z
	 M-185.6,242.1c-0.4,0-0.5-0.3-0.5-0.5c0-0.3,0.2-0.8,1.1-0.8c0.2,0,0.2,0,0.3,0C-184.7,241.1-184.8,242.1-185.6,242.1L-185.6,242.1
	z M-180.9,239.6c-0.9-0.3-0.9,1.4-1.3,3.5h-1.3l0.8-4.9h1.2l-0.1,0.7c0,0,0.4-0.8,1-0.8c0.2,0,0.2,0,0.2,0
	C-180.6,238.4-180.8,238.8-180.9,239.6L-180.9,239.6z M-180.9,239.6"/>
</svg>
