<?xml version="1.0" encoding="utf-8"?>
<!-- Generator: Adobe Illustrator 19.1.0, SVG Export Plug-In . SVG Version: 6.00 Build 0)  -->
<svg version="1.1" id="Layer_1" xmlns="http://www.w3.org/2000/svg" xmlns:xlink="http://www.w3.org/1999/xlink" x="0px" y="0px"
	 viewBox="-318.5 231 19.8 20" style="enable-background:new -318.5 231 19.8 20;" xml:space="preserve">
<style type="text/css">
	.st0{fill:#A9AAAE;}
	.st1{fill-rule:evenodd;clip-rule:evenodd;fill:#A9AAAE;}
</style>
<g>
	<g>
		<path class="st0" d="M-936,708c-3,0-5.5,2.5-5.5,5.5s2.5,5.5,5.5,5.5s5.5-2.5,5.5-5.5S-933,708-936,708z M-933.6,713.5l-2.3,1.5
			c-0.3,0.2-0.7,0-0.8-0.2l-2.1-2.7c-0.2-0.3,0-0.6,0.3-0.8c0.3-0.2,0.7,0,0.8,0.2l1.9,2.2l1.8-1.2c0.3-0.2,0.7,0,0.8,0.2
			C-933.1,713-933.3,713.3-933.6,713.5z"/>
	</g>
</g>
<g>
	<g>
		<path class="st1" d="M-308.5,231c-5.5,0-10,4.5-10,10c0,5.5,4.5,10,10,10c5.5,0,10-4.5,10-10C-298.5,235.5-303,231-308.5,231z
			 M-308.5,249.2c-4.5,0-8.2-3.7-8.2-8.2c0-4.5,3.7-8.2,8.2-8.2c4.5,0,8.2,3.7,8.2,8.2C-300.3,245.5-304,249.2-308.5,249.2z
			 M-308.7,236.7c-0.4-0.4-1-0.4-1.4,0c-0.4,0.4-0.4,1,0,1.4l2.9,2.9l-2.9,2.9c-0.4,0.4-0.4,1,0,1.4c0.4,0.4,1,0.4,1.4,0l3.5-3.5
			c0.2-0.2,0.3-0.5,0.3-0.8c0-0.3-0.1-0.6-0.3-0.8L-308.7,236.7z"/>
	</g>
</g>
</svg>
