<?xml version="1.0" encoding="utf-8"?>
<!-- Generator: Adobe Illustrator 19.1.0, SVG Export Plug-In . SVG Version: 6.00 Build 0)  -->
<svg version="1.1" id="Layer_1" xmlns="http://www.w3.org/2000/svg" xmlns:xlink="http://www.w3.org/1999/xlink" x="0px" y="0px"
	 viewBox="0 0 124 124" style="enable-background:new 0 0 124 124;" xml:space="preserve">
<style type="text/css">
	.st0{fill:#B1CA00;}
</style>
<g>
	<path class="st0" d="M62,0C27.8,0,0,27.8,0,62s27.8,62,62,62s62-27.8,62-62S96.2,0,62,0z M62,122C28.9,122,2,95.1,2,62S28.9,2,62,2
		s60,26.9,60,60S95.1,122,62,122z"/>
	<path class="st0" d="M55.1,24.8h6.6c0.6,0,1-0.4,1-1s-0.4-1-1-1h-6.6c-0.6,0-1,0.4-1,1S54.6,24.8,55.1,24.8z"/>
	<path class="st0" d="M66.1,25h1.5c0.6,0,1-0.4,1-1s-0.4-1-1-1h-1.5c-0.6,0-1,0.4-1,1S65.6,25,66.1,25z"/>
	<path class="st0" d="M61.2,70.1c4.2,0,8.2-1.4,11.4-3.7c0.3,0,0.6-0.2,0.8-0.5c0,0,0,0,0-0.1c4.3-3.5,7.1-8.9,7.1-15
		c0-10.6-8.6-19.3-19.3-19.3c-10.6,0-19.3,8.6-19.3,19.3C41.9,61.4,50.5,70.1,61.2,70.1z M52.2,65.6l4.9-2.7c1-0.5,1.5-1.5,1.5-2.6
		v-2c0-0.2-0.1-0.5-0.2-0.6c-0.4-0.5-1.4-2-1.8-3.7c0,0,0-0.1,0-0.1c-0.1-0.2-0.2-0.4-0.4-0.6l-0.3-0.2l0.1-2.8l0.2-0.1
		c0.2-0.2,0.3-0.5,0.3-0.7v-3.1c0,0,0-0.1,0-0.2c0-0.2-0.1-1.4,0.8-2.4c0.8-0.9,2.3-1.4,4.2-1.4c2,0,3.4,0.5,4.2,1.4
		c0.7,0.8,0.8,1.9,0.8,2.4l0,3.2c0,0,0,0.1,0,0.2c0,0.3,0.1,0.5,0.3,0.7l0.2,0.2v2.4c0,0.3-0.2,0.5-0.5,0.6
		c-0.3,0.1-0.6,0.3-0.7,0.6c-0.4,1.1-0.9,2.1-1.5,3c-0.1,0.2-0.3,0.4-0.4,0.5c-0.2,0.2-0.2,0.4-0.2,0.7v2c0,1.1,0.6,2.1,1.6,2.6
		l4.9,2.4c-2.7,1.7-5.8,2.6-9.1,2.6C57.9,68.1,54.9,67.1,52.2,65.6z M61.2,33.5c9.5,0,17.3,7.7,17.3,17.3c0,5.4-2.5,10.2-6.3,13.3
		l-5.8-2.9c-0.3-0.2-0.5-0.5-0.5-0.8v-1.7c0.1-0.1,0.2-0.3,0.3-0.4c0.7-0.9,1.2-2,1.6-3.1c0.8-0.5,1.4-1.3,1.4-2.3V50
		c0-0.3-0.1-0.6-0.3-0.7l-0.2-0.2l0-2.8c0.1-1.1-0.2-2.6-1.3-3.8c-1.2-1.3-3.1-2-5.7-2c-2.6,0-4.6,0.7-5.7,2.1
		c-1.3,1.5-1.3,3.3-1.3,3.8c0,0,0,0,0,0.1V49l-0.2,0.1c-0.2,0.2-0.3,0.4-0.3,0.7l-0.1,3.8c0,0.3,0.2,0.7,0.5,0.9l0.4,0.3
		c0.4,1.7,1.3,3.1,1.9,3.9v1.6c0,0.3-0.2,0.7-0.5,0.8l-5.8,3.1c-4-3.2-6.5-8-6.5-13.5C43.9,41.3,51.6,33.5,61.2,33.5z"/>
	<path class="st0" d="M81.2,73.5H42c-0.6,0-1,0.4-1,1v9.7c0,0.6,0.4,1,1,1h39.2c0.6,0,1-0.4,1-1v-9.7C82.2,73.9,81.7,73.5,81.2,73.5
		z M43,75.5h7.2v7.7H43V75.5z M80.2,83.2h-28v-7.7h28V83.2z"/>
	<path class="st0" d="M86.8,87.7V25.2c0-3.8-3.1-6.9-6.9-6.9H43.5c-3.8,0-6.9,3.1-6.9,6.9v75.3c0,3.8,3.1,6.9,6.9,6.9h36.3
		c3.8,0,6.9-3.1,6.9-6.9V88.5c0.1-0.1,0.1-0.3,0.1-0.4S86.8,87.8,86.8,87.7z M38.6,29.2h46.2v57.9H38.6V29.2z M43.5,20.2h36.3
		c2.7,0,4.9,2.2,4.9,4.9v2H38.6v-2C38.6,22.4,40.8,20.2,43.5,20.2z M79.8,105.3H43.5c-2.7,0-4.9-2.2-4.9-4.9V89.1h46.2v11.4
		C84.8,103.1,82.6,105.3,79.8,105.3z"/>
	<path class="st0" d="M61.8,91.7c-3.1,0-5.7,2.5-5.7,5.7s2.5,5.7,5.7,5.7s5.7-2.5,5.7-5.7S64.9,91.7,61.8,91.7z M61.8,101
		c-2,0-3.7-1.6-3.7-3.7c0-2,1.6-3.7,3.7-3.7s3.7,1.6,3.7,3.7C65.5,99.3,63.8,101,61.8,101z"/>
</g>
</svg>
