<?xml version="1.0" encoding="utf-8"?>
<!-- Generator: Adobe Illustrator 19.1.0, SVG Export Plug-In . SVG Version: 6.00 Build 0)  -->
<svg version="1.1" id="Layer_1" xmlns="http://www.w3.org/2000/svg" xmlns:xlink="http://www.w3.org/1999/xlink" x="0px" y="0px"
	 viewBox="-300.5 235 12 12" style="enable-background:new -300.5 235 12 12;" xml:space="preserve">
<style type="text/css">
	.st0{fill:#ffffff;}
</style>
<path class="st0" d="M-291,235.3l-1.9,1.9c-0.4,0.4-0.4,1,0,1.4l0.9,0.9c0,0.1-0.1,0.1-0.1,0.2c-0.3,0.6-0.8,1.4-1.6,2.2
	c-0.9,0.9-1.7,1.3-2.3,1.6c-0.1,0-0.1,0.1-0.2,0.1l-0.6-0.6l-0.3-0.3c-0.4-0.4-1-0.4-1.4,0l-1.9,1.9c-0.4,0.4-0.4,1,0,1.4l0.5,0.5
	l0,0c0.2,0.2,0.5,0.3,0.8,0.4c0.3,0.1,0.5,0.2,0.8,0.2c2,0.2,3.9-0.7,6.4-3.2c3.5-3.5,3.2-6.3,3.2-6.4c0-0.3-0.1-0.5-0.2-0.8
	c-0.1-0.3-0.3-0.5-0.4-0.8l0,0l-0.5-0.5C-290,234.9-290.6,234.9-291,235.3L-291,235.3z M-291,235.3"/>
</svg>
