<?xml version="1.0" encoding="utf-8"?>
<!-- Generator: Adobe Illustrator 19.1.0, SVG Export Plug-In . SVG Version: 6.00 Build 0)  -->
<svg version="1.1" id="Layer_1" xmlns="http://www.w3.org/2000/svg" xmlns:xlink="http://www.w3.org/1999/xlink" x="0px" y="0px"
	 viewBox="-299.5 236 10 13" style="enable-background:new -299.5 236 10 13;" xml:space="preserve">
<style type="text/css">
	.st0{fill:#A9AAAE;}
</style>
<path class="st0" d="M-290.9,237.3c-0.9-0.9-2.2-1.3-3.5-1.3c-1.3,0-2.6,0.5-3.5,1.3c-1.7,1.6-2,4.6-0.5,6.4l4,5.3l4-5.3
	C-289,241.9-289.2,238.9-290.9,237.3L-290.9,237.3z M-294.4,242.2c-1,0-1.8-0.7-1.8-1.7c0-0.9,0.8-1.7,1.8-1.7c1,0,1.8,0.7,1.8,1.7
	C-292.6,241.4-293.4,242.2-294.4,242.2L-294.4,242.2z M-294.4,242.2"/>
</svg>
