<?xml version="1.0" encoding="utf-8"?>
<!-- Generator: Adobe Illustrator 19.1.0, SVG Export Plug-In . SVG Version: 6.00 Build 0)  -->
<svg version="1.1" id="Layer_1" xmlns="http://www.w3.org/2000/svg" xmlns:xlink="http://www.w3.org/1999/xlink" x="0px" y="0px"
	 viewBox="-325.5 230 22 22" style="enable-background:new -325.5 230 22 22;" xml:space="preserve">
<style type="text/css">
	.st0{fill:#A9AAAE;}
	.st1{fill-rule:evenodd;clip-rule:evenodd;fill:#A9AAAE;}
</style>
<g>
	<g>
		<path class="st0" d="M-1253,945c-3,0-5.5,2.5-5.5,5.5s2.5,5.5,5.5,5.5s5.5-2.5,5.5-5.5S-1250,945-1253,945z M-1250.6,950.5
			l-2.3,1.5c-0.3,0.2-0.7,0-0.8-0.2l-2.1-2.7c-0.2-0.3,0-0.6,0.3-0.8c0.3-0.2,0.7,0,0.8,0.2l1.9,2.2l1.8-1.2c0.3-0.2,0.7,0,0.8,0.2
			C-1250.1,950-1250.3,950.3-1250.6,950.5z"/>
	</g>
</g>
<g>
	<g>
		<path class="st0" d="M-621.3,479.3l-3.2-3.1c-0.4-0.3-0.9-0.3-1.3,0c-0.4,0.3-0.4,0.9,0,1.2l2.6,2.5l-2.6,2.5
			c-0.4,0.3-0.4,0.9,0,1.2c0.4,0.3,0.9,0.3,1.3,0l3.2-3.1c0.2-0.2,0.3-0.4,0.2-0.7C-621,479.7-621.1,479.5-621.3,479.3z"/>
	</g>
</g>
<g>
	<g>
		<path class="st1" d="M-310.6,240l-2.9,0l0-2.9c0-0.6-0.4-1.1-1-1.1c-0.5,0-1,0.5-1,1.1l0,2.9l-2.9,0c-0.6,0-1.1,0.4-1.1,1
			c0,0.5,0.5,1,1.1,1l2.9,0l0,2.9c0,0.6,0.4,1.1,1,1.1c0.5,0,1-0.5,1-1.1l0-2.9l2.9,0c0.6,0,1.1-0.4,1.1-1
			C-309.5,240.4-310,240-310.6,240z M-314.5,230c-6.1,0-11,4.9-11,11c0,6.1,4.9,11,11,11c6.1,0,11-4.9,11-11
			C-303.5,234.9-308.4,230-314.5,230z M-314.5,250c-5,0-9-4-9-9c0-5,4-9,9-9c5,0,9,4,9,9C-305.5,246-309.5,250-314.5,250z"/>
	</g>
</g>
</svg>
