<?xml version="1.0" encoding="UTF-8" standalone="no"?>
<!-- Generator: Adobe Illustrator 19.1.0, SVG Export Plug-In . SVG Version: 6.00 Build 0)  -->

<svg
   xmlns:dc="http://purl.org/dc/elements/1.1/"
   xmlns:cc="http://creativecommons.org/ns#"
   xmlns:rdf="http://www.w3.org/1999/02/22-rdf-syntax-ns#"
   xmlns:svg="http://www.w3.org/2000/svg"
   xmlns="http://www.w3.org/2000/svg"
   xmlns:sodipodi="http://sodipodi.sourceforge.net/DTD/sodipodi-0.dtd"
   xmlns:inkscape="http://www.inkscape.org/namespaces/inkscape"
   version="1.1"
   id="Layer_1"
   x="0px"
   y="0px"
   viewBox="-318.5 231 19.8 20"
   style="enable-background:new -318.5 231 19.8 20;"
   xml:space="preserve"
   inkscape:version="0.91 r13725"
   sodipodi:docname="Prev.svg"><metadata
     id="metadata21"><rdf:RDF><cc:Work
         rdf:about=""><dc:format>image/svg+xml</dc:format><dc:type
           rdf:resource="http://purl.org/dc/dcmitype/StillImage" /><dc:title></dc:title></cc:Work></rdf:RDF></metadata><defs
     id="defs19" /><sodipodi:namedview
     pagecolor="#ffffff"
     bordercolor="#666666"
     borderopacity="1"
     objecttolerance="10"
     gridtolerance="10"
     guidetolerance="10"
     inkscape:pageopacity="0"
     inkscape:pageshadow="2"
     inkscape:window-width="1855"
     inkscape:window-height="1056"
     id="namedview17"
     showgrid="false"
     inkscape:zoom="11.8"
     inkscape:cx="9.8999996"
     inkscape:cy="10"
     inkscape:window-x="65"
     inkscape:window-y="24"
     inkscape:window-maximized="1"
     inkscape:current-layer="g11" /><style
     type="text/css"
     id="style3">
	.st0{fill:#A9AAAE;}
	.st1{fill-rule:evenodd;clip-rule:evenodd;fill:#A9AAAE;}
</style><g
     id="g5"><g
       id="g7"><path
         class="st0"
         d="M-936,708c-3,0-5.5,2.5-5.5,5.5s2.5,5.5,5.5,5.5s5.5-2.5,5.5-5.5S-933,708-936,708z M-933.6,713.5l-2.3,1.5    c-0.3,0.2-0.7,0-0.8-0.2l-2.1-2.7c-0.2-0.3,0-0.6,0.3-0.8c0.3-0.2,0.7,0,0.8,0.2l1.9,2.2l1.8-1.2c0.3-0.2,0.7,0,0.8,0.2    C-933.1,713-933.3,713.3-933.6,713.5z"
         id="path9" /></g></g><g
     id="g11"><g
       id="g13"
       transform="matrix(-1,0,0,-1,-617,482)"><path
         class="st1"
         d="m -308.5,231 c -5.5,0 -10,4.5 -10,10 0,5.5 4.5,10 10,10 5.5,0 10,-4.5 10,-10 0,-5.5 -4.5,-10 -10,-10 z m 0,18.2 c -4.5,0 -8.2,-3.7 -8.2,-8.2 0,-4.5 3.7,-8.2 8.2,-8.2 4.5,0 8.2,3.7 8.2,8.2 0,4.5 -3.7,8.2 -8.2,8.2 z m -0.2,-12.5 c -0.4,-0.4 -1,-0.4 -1.4,0 -0.4,0.4 -0.4,1 0,1.4 l 2.9,2.9 -2.9,2.9 c -0.4,0.4 -0.4,1 0,1.4 0.4,0.4 1,0.4 1.4,0 l 3.5,-3.5 c 0.2,-0.2 0.3,-0.5 0.3,-0.8 0,-0.3 -0.1,-0.6 -0.3,-0.8 l -3.5,-3.5 z"
         id="path15"
         inkscape:connector-curvature="0"
         style="clip-rule:evenodd;fill:#a9aaae;fill-rule:evenodd" /></g></g></svg>