<?xml version="1.0" encoding="utf-8"?>
<!-- Generator: Adobe Illustrator 19.1.0, SVG Export Plug-In . SVG Version: 6.00 Build 0)  -->
<svg version="1.1" id="Layer_1" xmlns="http://www.w3.org/2000/svg" xmlns:xlink="http://www.w3.org/1999/xlink" x="0px" y="0px"
	 viewBox="-309 239 5 8" style="enable-background:new -309 239 5 8;" xml:space="preserve">
<style type="text/css">
	.st0{fill:#A9AAAE;}
	.st1{fill-rule:evenodd;clip-rule:evenodd;fill:#A9AAAE;}
</style>
<g>
	<g>
		<path class="st0" d="M-936,708c-3,0-5.5,2.5-5.5,5.5s2.5,5.5,5.5,5.5s5.5-2.5,5.5-5.5S-933,708-936,708z M-933.6,713.5l-2.3,1.5
			c-0.3,0.2-0.7,0-0.8-0.2l-2.1-2.7c-0.2-0.3,0-0.6,0.3-0.8s0.7,0,0.8,0.2l1.9,2.2l1.8-1.2c0.3-0.2,0.7,0,0.8,0.2
			C-933.1,713-933.3,713.3-933.6,713.5z"/>
	</g>
</g>
<g>
	<g>
		<path class="st1" d="M-304.3,242.3l-3.2-3.1c-0.4-0.3-0.9-0.3-1.3,0c-0.4,0.3-0.4,0.9,0,1.2l2.6,2.5l-2.6,2.5
			c-0.4,0.3-0.4,0.9,0,1.2c0.4,0.3,0.9,0.3,1.3,0l3.2-3.1c0.2-0.2,0.3-0.4,0.2-0.7C-304,242.7-304.1,242.5-304.3,242.3z"/>
	</g>
</g>
</svg>
