<?xml version="1.0" encoding="utf-8"?>
<!-- Generator: Adobe Illustrator 19.1.0, SVG Export Plug-In . SVG Version: 6.00 Build 0)  -->
<svg version="1.1" id="Layer_1" xmlns="http://www.w3.org/2000/svg" xmlns:xlink="http://www.w3.org/1999/xlink" x="0px" y="0px"
	 viewBox="-313.5 237 10 6" style="enable-background:new -313.5 237 10 6;" xml:space="preserve">
<style type="text/css">
	.st0{fill:#A9AAAE;}
	.st1{fill-rule:evenodd;clip-rule:evenodd;fill:#A9AAAE;}
</style>
<g>
	<g>
		<path class="st0" d="M-622,470c-3,0-5.5,2.5-5.5,5.5s2.5,5.5,5.5,5.5s5.5-2.5,5.5-5.5S-619,470-622,470z M-619.6,475.5l-2.3,1.5
			c-0.3,0.2-0.7,0-0.8-0.2l-2.1-2.7c-0.2-0.3,0-0.6,0.3-0.8c0.3-0.2,0.7,0,0.8,0.2l1.9,2.2l1.8-1.2c0.3-0.2,0.7,0,0.8,0.2
			C-619.1,475-619.3,475.3-619.6,475.5z"/>
	</g>
</g>
<g>
	<g>
		<path class="st1" d="M-303.8,237.3c-0.4-0.4-1.1-0.4-1.5,0l-3.2,3.2l-3.2-3.2c-0.4-0.4-1.1-0.4-1.5,0c-0.4,0.4-0.4,1.1,0,1.5
			l3.8,3.8c0.2,0.2,0.6,0.3,0.9,0.3c0.3,0,0.6-0.1,0.9-0.3l3.8-3.8C-303.4,238.4-303.4,237.7-303.8,237.3z"/>
	</g>
</g>
</svg>
