<?xml version="1.0" encoding="utf-8"?>
<!-- Generator: Adobe Illustrator 19.1.0, SVG Export Plug-In . SVG Version: 6.00 Build 0)  -->
<svg version="1.1" id="Layer_1" xmlns="http://www.w3.org/2000/svg" xmlns:xlink="http://www.w3.org/1999/xlink" x="0px" y="0px"
	 viewBox="0 0 125 125" style="enable-background:new 0 0 125 125;" xml:space="preserve">
<style type="text/css">
	.st0{fill:#CAD965;}
</style>
<path class="st0" d="M62.5,0C28,0,0,28,0,62.5S28,125,62.5,125S125,97,125,62.5S97,0,62.5,0z M8.5,89.6l41.2-1.5
	c0.2,0,0.5-0.1,0.6-0.3l43.1-39.5c2.3-2.1,5.8-1.9,7.9,0.3c2.1,2.3,1.9,5.8-0.3,7.9L56.7,97.1l-33.5,11.3
	C17.1,103.2,12.1,96.8,8.5,89.6z M84.5,53.3l-6.9,6.3L60.8,38c-1.5-1.9-1.2-4.7,0.5-6.3c0.9-0.8,2-1.2,3.1-1.2c0.1,0,0.3,0,0.4,0
	c1.3,0.1,2.5,0.7,3.3,1.8L84.5,53.3z M69.8,23.9c1-0.9,2.2-1.3,3.5-1.2c1.3,0.1,2.5,0.7,3.3,1.8L93,45.6l-6.9,6.3L69.3,30.2
	C67.8,28.3,68,25.5,69.8,23.9z M76,61.2l-6.9,6.3L52.3,45.8c-1.5-1.9-1.2-4.7,0.5-6.3c1-0.9,2.2-1.3,3.5-1.2
	c1.3,0.1,2.5,0.7,3.3,1.8L76,61.2z M67.5,69l-6.9,6.3L43.8,53.6c-1.5-1.9-1.2-4.7,0.5-6.3c0.9-0.8,2-1.2,3.1-1.2c0.1,0,0.3,0,0.4,0
	c1.3,0.1,2.5,0.7,3.3,1.8L67.5,69z M59,76.7L52.1,83L35.3,61.3c-1.5-1.9-1.2-4.7,0.5-6.3c0.9-0.8,2-1.2,3.1-1.2c0.1,0,0.3,0,0.4,0
	c1.3,0.1,2.5,0.7,3.3,1.8L59,76.7z M62.5,123c-14.1,0-27.2-4.9-37.5-13.1l32.5-11c0.1,0,0.3-0.1,0.4-0.2L102.3,58
	c3.1-2.8,3.3-7.6,0.5-10.7c-2-2.2-4.9-2.9-7.6-2.2c0,0,0-0.1,0-0.1L78.2,23.2c-1.1-1.5-2.9-2.4-4.7-2.6c-1.8-0.2-3.7,0.5-5.1,1.7
	c-1.8,1.6-2.5,4.1-2,6.3c-0.5-0.1-0.9-0.2-1.4-0.3c-1.9-0.2-3.7,0.5-5.1,1.7c-1.8,1.7-2.5,4.1-2,6.4c-0.5-0.2-1-0.3-1.5-0.3
	c-1.9-0.2-3.7,0.5-5.1,1.7c-1.8,1.6-2.5,4.1-2,6.3c-0.5-0.1-0.9-0.2-1.4-0.3c-1.9-0.2-3.7,0.5-5.1,1.7c-1.8,1.6-2.5,4-2,6.3
	c-0.4-0.1-0.9-0.2-1.3-0.3c-1.9-0.2-3.7,0.5-5.1,1.7c-2.5,2.3-2.9,6.3-0.8,9l17.1,22.1l-1.6,1.5L7.5,87.6C4,80,2,71.5,2,62.5
	C2,29.1,29.1,2,62.5,2S123,29.1,123,62.5S95.9,123,62.5,123z"/>
</svg>
