<?xml version="1.0" encoding="utf-8"?>
<!-- Generator: Adobe Illustrator 19.1.0, SVG Export Plug-In . SVG Version: 6.00 Build 0)  -->
<svg version="1.1" id="Layer_1" xmlns="http://www.w3.org/2000/svg" xmlns:xlink="http://www.w3.org/1999/xlink" x="0px" y="0px"
	 viewBox="-217.5 225 45.8 30" style="enable-background:new -217.5 225 45.8 30;" xml:space="preserve">
<style type="text/css">
	.st0{fill:#A9AAAE;}
</style>
<g>
	<g>
		<path class="st0" d="M-172.8,225h-43.5c-0.7,0-1.2,0.5-1.2,1.2v27.6c0,0.7,0.5,1.2,1.2,1.2h43.5c0.7,0,1.2-0.5,1.2-1.2v-27.6
			C-171.7,225.6-172.2,225-172.8,225z M-214,234.1h4.9c0.7,0,1.2,0.2,1.4,1l1.1,5.2c-1-2.7-3.6-4.9-7.4-5.9L-214,234.1z M-208,245.9
			l-2.8-9.7c2,1.3,3.8,3.4,4.4,4.8l0.3,1.2l3.1-8h3.3l-5,11.7L-208,245.9z M-200.4,245.9l2-11.7h3.2l-2,11.7H-200.4z M-191.8,246
			c-1.4,0-2.8-0.3-3.5-0.6l0.4-2.6l0.4,0.2c1,0.4,1.7,0.6,3,0.6c0.9,0,1.9-0.4,1.9-1.1c0-0.5-0.4-0.9-1.6-1.4
			c-1.2-0.6-2.8-1.5-2.8-3.2c0-2.3,2.2-3.9,5.3-3.9c1.2,0,2.2,0.3,2.8,0.5l-0.4,2.5l-0.3-0.1c-0.6-0.2-1.3-0.5-2.4-0.4
			c-1.2,0-1.8,0.5-1.8,1c0,0.5,0.7,0.9,1.8,1.4c1.8,0.8,2.7,1.8,2.7,3.2C-186.3,244.5-188.5,246-191.8,246z M-178.1,245.9
			c0,0-0.3-1.3-0.4-1.8c-0.5,0-3.7,0-4,0c-0.1,0.3-0.7,1.8-0.7,1.8h-3.3l4.7-10.7c0.3-0.8,0.9-1,1.7-1h2.4l2.6,11.7H-178.1z
			 M-179.9,237.3c-0.2,0.4-0.4,1.1-0.4,1.1c0,0-1,2.6-1.3,3.3h2.6c-0.1-0.6-0.7-3.4-0.7-3.4L-179.9,237.3z"/>
	</g>
</g>
</svg>
