<?xml version="1.0" encoding="utf-8"?>
<!-- Generator: Adobe Illustrator 19.1.0, SVG Export Plug-In . SVG Version: 6.00 Build 0)  -->
<svg version="1.1" id="Layer_1" xmlns="http://www.w3.org/2000/svg" xmlns:xlink="http://www.w3.org/1999/xlink" x="0px" y="0px"
	 viewBox="-284.5 229 24 24" style="enable-background:new -284.5 229 24 24;" xml:space="preserve">
<style type="text/css">
	.st0{fill-rule:evenodd;clip-rule:evenodd;fill:#A9AAAE;}
</style>
<path class="st0" d="M-272.5,229c-6.6,0-12,5.4-12,12c0,6.6,5.4,12,12,12c6.6,0,12-5.4,12-12C-260.5,234.4-265.9,229-272.5,229
	L-272.5,229z M-266.4,242.3c0.6,0.5,1.2,1.1,1.7,1.7c0.2,0.3,0.4,0.5,0.6,0.9c0.2,0.4,0,0.9-0.4,1l-2.5,0c-0.6,0.1-1.1-0.2-1.6-0.6
	c-0.3-0.3-0.7-0.7-1-1.1c-0.1-0.1-0.3-0.3-0.4-0.4c-0.3-0.2-0.6-0.2-0.8,0.2c-0.2,0.4-0.2,0.8-0.3,1.1c0,0.6-0.2,0.7-0.8,0.8
	c-1.2,0.1-2.4-0.1-3.5-0.8c-1-0.6-1.7-1.3-2.4-2.2c-1.3-1.7-2.2-3.6-3.1-5.6c-0.2-0.4-0.1-0.7,0.4-0.7c0.8,0,1.6,0,2.4,0
	c0.3,0,0.5,0.2,0.7,0.5c0.4,1.1,1,2.1,1.6,3c0.2,0.3,0.4,0.5,0.6,0.7c0.3,0.2,0.5,0.1,0.6-0.2c0.1-0.2,0.1-0.4,0.1-0.6
	c0.1-0.7,0.1-1.5,0-2.2c-0.1-0.5-0.3-0.8-0.8-0.8c-0.2,0-0.2-0.1-0.1-0.3c0.2-0.2,0.4-0.4,0.8-0.4h2.8c0.4,0.1,0.5,0.3,0.6,0.7
	l0,3.1c0,0.2,0.1,0.7,0.4,0.8c0.2,0.1,0.4-0.1,0.6-0.3c0.7-0.7,1.1-1.5,1.6-2.4c0.2-0.4,0.4-0.8,0.5-1.2c0.1-0.3,0.3-0.4,0.6-0.4
	l2.7,0c0.1,0,0.2,0,0.2,0c0.5,0.1,0.6,0.3,0.4,0.7c-0.2,0.7-0.6,1.3-1.1,1.8c-0.4,0.6-0.9,1.2-1.4,1.8
	C-266.9,241.5-266.9,241.8-266.4,242.3L-266.4,242.3z M-266.4,242.3"/>
</svg>
